<svg width="277" height="180" viewBox="0 0 277 180" fill="none" xmlns="http://www.w3.org/2000/svg">
<g clip-path="url(#clip0_2331_8509)">
<path d="M133.141 158.671H59.0647C43.0423 158.671 30.0098 145.638 30.0098 129.616C30.0098 129.393 30.1847 129.219 30.4073 129.219C30.63 129.219 30.8049 129.393 30.8049 129.616C30.8049 145.201 43.4797 157.876 59.0647 157.876H132.744V137.401C132.744 137.178 132.919 137.003 133.141 137.003C133.364 137.003 133.539 137.178 133.539 137.401V158.273C133.539 158.496 133.364 158.671 133.141 158.671Z" fill="#FCCC6B"/>
<path d="M60.3602 116.941V112.202H48.1307L33.6748 103.853C31.7426 102.74 28.3791 102.875 26.1447 104.163L12.2295 112.194H0V117.204H0.00795154C-0.0477093 117.959 0.373723 118.683 1.30405 119.223L26.6933 133.886C28.6256 134.999 31.9891 134.864 34.2235 133.576L58.5313 119.541C59.8195 118.802 60.4397 117.84 60.3681 116.941H60.3602Z" fill="#2C4789"/>
<path d="M60.3602 116.941V112.202H48.1307L33.6748 103.853C31.7426 102.74 28.3791 102.875 26.1447 104.163L12.2295 112.194H0V117.204H0.00795154C-0.0477093 117.959 0.373723 118.683 1.30405 119.223L26.6933 133.886C28.6256 134.999 31.9891 134.864 34.2235 133.576L58.5313 119.541C59.8195 118.802 60.4397 117.84 60.3681 116.941H60.3602Z" fill="url(#paint0_linear_2331_8509)"/>
<path d="M33.6823 103.853C32.7519 103.32 31.4956 103.074 30.1836 103.106V134.626C31.599 134.594 33.0621 134.236 34.223 133.568L58.5309 119.534C59.819 118.794 60.4392 117.832 60.3677 116.933V112.194H48.1382L33.6823 103.845V103.853Z" fill="url(#paint1_linear_2331_8509)"/>
<path d="M26.6924 128.877L1.30309 114.222C-0.629132 113.109 -0.382634 111.161 1.8438 109.872L26.1517 95.838C28.3781 94.5498 31.7496 94.4146 33.6818 95.5278L59.0711 110.19C61.0033 111.304 60.7568 113.252 58.5304 114.54L34.2225 128.574C31.9961 129.863 28.6246 129.998 26.6924 128.885V128.877Z" fill="#2C4789"/>
<path d="M26.6924 128.877L1.30309 114.222C-0.629132 113.109 -0.382634 111.161 1.8438 109.872L26.1517 95.838C28.3781 94.5498 31.7496 94.4146 33.6818 95.5278L59.0711 110.19C61.0033 111.304 60.7568 113.252 58.5304 114.54L34.2225 128.574C31.9961 129.863 28.6246 129.998 26.6924 128.885V128.877Z" fill="url(#paint2_linear_2331_8509)"/>
<path d="M27.3684 125.64L6.90905 113.832C5.3585 112.934 5.54933 111.367 7.34638 110.334L26.931 99.0265C28.7281 97.9928 31.4396 97.8815 32.9981 98.772L53.4574 110.58C55.0079 111.479 54.8171 113.045 53.0201 114.079L33.4354 125.386C31.6384 126.42 28.9269 126.531 27.3684 125.64Z" fill="#6DE0F6"/>
<path d="M7.34669 111.86L26.9313 100.553C28.7284 99.5195 31.4399 99.4082 32.9984 100.299L53.4577 112.107C53.8394 112.329 54.1177 112.592 54.2926 112.878C54.7458 112.051 54.4835 111.169 53.4577 110.58L32.9984 98.7721C31.4478 97.8736 28.7284 97.9849 26.9313 99.0265L7.34669 110.334C5.99493 111.113 5.54964 112.194 6.0824 113.069C6.31299 112.64 6.73442 112.226 7.34669 111.868V111.86Z" fill="#42B4E5"/>
<path opacity="0.5" d="M27.5432 128.877L2.15391 114.222C0.221683 113.109 -0.239507 111.471 2.69461 109.872L27.0025 95.838C28.0998 95.2019 29.4675 94.852 30.8113 94.7884C29.213 94.7168 27.4796 95.0746 26.1517 95.838L1.8438 109.872C-0.382634 111.161 -0.629132 113.101 1.30309 114.222L26.6924 128.885C27.6704 129.449 29.0222 129.688 30.4137 129.624C29.3402 129.576 28.3224 129.33 27.5511 128.885L27.5432 128.877Z" fill="url(#paint3_linear_2331_8509)"/>
<path opacity="0.5" d="M58.5313 116.647L34.2235 130.682C31.997 131.97 28.6256 132.105 26.6933 130.992L1.30405 116.337C0.373723 115.804 -0.0397577 115.073 0.00795154 114.317H0V115.359H0.00795154C-0.0477093 116.114 0.373723 116.838 1.30405 117.379L26.6933 132.041C28.6256 133.155 31.9891 133.019 34.2235 131.731L58.5313 117.697C59.8195 116.957 60.4397 115.995 60.3681 115.097V114.055C60.4397 114.953 59.8195 115.908 58.5313 116.655V116.647Z" fill="url(#paint4_linear_2331_8509)"/>
<path d="M54.1188 115.264C54.3971 115.423 54.3971 115.685 54.1188 115.844C53.8405 116.003 53.3952 116.003 53.1169 115.844C52.8386 115.685 52.8386 115.423 53.1169 115.264C53.3952 115.105 53.8405 115.105 54.1188 115.264Z" fill="#FCCC6B"/>
<path d="M55.6852 114.365C55.9635 114.524 55.9635 114.787 55.6852 114.946C55.4069 115.105 54.9616 115.105 54.6833 114.946C54.405 114.787 54.405 114.524 54.6833 114.365C54.9616 114.206 55.4069 114.206 55.6852 114.365Z" fill="#FCCC6B"/>
<path d="M57.2438 113.459C57.5221 113.618 57.5221 113.88 57.2438 114.039C56.9655 114.198 56.5202 114.198 56.2419 114.039C55.9636 113.88 55.9636 113.618 56.2419 113.459C56.5202 113.3 56.9655 113.3 57.2438 113.459Z" fill="#FCCC6B"/>
<path d="M60.3602 97.0149V92.2758H48.1307L33.6748 83.9267C31.7426 82.8134 28.3791 82.9486 26.1447 84.2368L12.2295 92.2678H0V97.2773H0.00795154C-0.0477093 98.0327 0.373723 98.7563 1.30405 99.297L26.6933 113.96C28.6256 115.073 31.9891 114.938 34.2235 113.65L58.5313 99.6151C59.8195 98.8756 60.4397 97.9134 60.3681 97.0149H60.3602Z" fill="#2C4789"/>
<path d="M60.3602 97.0149V92.2758H48.1307L33.6748 83.9267C31.7426 82.8134 28.3791 82.9486 26.1447 84.2368L12.2295 92.2678H0V97.2773H0.00795154C-0.0477093 98.0327 0.373723 98.7563 1.30405 99.297L26.6933 113.96C28.6256 115.073 31.9891 114.938 34.2235 113.65L58.5313 99.6151C59.8195 98.8756 60.4397 97.9134 60.3681 97.0149H60.3602Z" fill="url(#paint5_linear_2331_8509)"/>
<path d="M33.6823 83.9266C32.7519 83.3938 31.4956 83.1473 30.1836 83.1791V114.699C31.599 114.667 33.0621 114.309 34.223 113.641L58.5309 99.607C59.819 98.8675 60.4392 97.9054 60.3677 97.0069V92.2677H48.1382L33.6823 83.9186V83.9266Z" fill="url(#paint6_linear_2331_8509)"/>
<path d="M26.6924 108.95L1.30309 94.2875C-0.629132 93.1743 -0.382634 91.2261 1.8438 89.938L26.1517 75.9035C28.3781 74.6154 31.7496 74.4802 33.6818 75.5934L59.0711 90.256C61.0033 91.3693 60.7568 93.3174 58.5304 94.6055L34.2225 108.64C31.9961 109.928 28.6246 110.063 26.6924 108.95Z" fill="#2C4789"/>
<path d="M26.6924 108.95L1.30309 94.2875C-0.629132 93.1743 -0.382634 91.2261 1.8438 89.938L26.1517 75.9035C28.3781 74.6154 31.7496 74.4802 33.6818 75.5934L59.0711 90.256C61.0033 91.3693 60.7568 93.3174 58.5304 94.6055L34.2225 108.64C31.9961 109.928 28.6246 110.063 26.6924 108.95Z" fill="url(#paint7_linear_2331_8509)"/>
<path d="M27.3684 105.714L6.90905 93.9057C5.3585 93.0072 5.54933 91.4408 7.34638 90.4071L26.931 79.1C28.7281 78.0663 31.4396 77.9549 32.9981 78.8455L53.4574 90.6536C55.0079 91.5521 54.8171 93.1185 53.0201 94.1522L33.4354 105.459C31.6384 106.493 28.9269 106.604 27.3684 105.714Z" fill="#6DE0F6"/>
<path d="M7.34669 91.9259L26.9313 80.6188C28.7284 79.5851 31.4399 79.4738 32.9984 80.3643L53.4577 92.1724C53.8394 92.395 54.1177 92.6574 54.2926 92.9437C54.7458 92.1167 54.4835 91.2341 53.4577 90.6457L32.9984 78.8376C31.4478 77.9391 28.7284 78.0504 26.9313 79.0921L7.34669 90.3992C5.99493 91.1784 5.54964 92.2598 6.0824 93.1345C6.31299 92.7051 6.73442 92.2916 7.34669 91.9338V91.9259Z" fill="#42B4E5"/>
<path opacity="0.5" d="M27.5432 108.95L2.15391 94.2875C0.221683 93.1743 -0.239507 91.5363 2.69461 89.938L27.0025 75.9035C28.0998 75.2674 29.4675 74.9175 30.8113 74.8539C29.213 74.7824 27.4796 75.1402 26.1517 75.9035L1.8438 89.946C-0.382634 91.2341 -0.629132 93.1743 1.30309 94.2955L26.6924 108.958C27.6704 109.523 29.0222 109.761 30.4137 109.698C29.3402 109.65 28.3224 109.403 27.5511 108.958L27.5432 108.95Z" fill="url(#paint8_linear_2331_8509)"/>
<path opacity="0.5" d="M58.5313 96.7206L34.2235 110.755C31.997 112.043 28.6256 112.178 26.6933 111.065L1.30405 96.4105C0.373723 95.8778 -0.0397577 95.1462 0.00795154 94.3908H0V95.4325H0.00795154C-0.0477093 96.1879 0.373723 96.9115 1.30405 97.4522L26.6933 112.115C28.6256 113.228 31.9891 113.093 34.2235 111.805L58.5313 97.7702C59.8195 97.0307 60.4397 96.0686 60.3681 95.1701V94.1284C60.4397 95.0269 59.8195 95.9811 58.5313 96.7286V96.7206Z" fill="url(#paint9_linear_2331_8509)"/>
<path d="M54.1188 95.3372C54.3971 95.4962 54.3971 95.7586 54.1188 95.9176C53.8405 96.0767 53.3952 96.0767 53.1169 95.9176C52.8386 95.7586 52.8386 95.4962 53.1169 95.3372C53.3952 95.1781 53.8405 95.1781 54.1188 95.3372Z" fill="#FCCC6B"/>
<path d="M55.6852 94.4386C55.9635 94.5976 55.9635 94.86 55.6852 95.0191C55.4069 95.1781 54.9616 95.1781 54.6833 95.0191C54.405 94.86 54.405 94.5976 54.6833 94.4386C54.9616 94.2796 55.4069 94.2796 55.6852 94.4386Z" fill="#FCCC6B"/>
<path d="M57.2438 93.5321C57.5221 93.6911 57.5221 93.9535 57.2438 94.1126C56.9655 94.2716 56.5202 94.2716 56.2419 94.1126C55.9636 93.9535 55.9636 93.6911 56.2419 93.5321C56.5202 93.3731 56.9655 93.3731 57.2438 93.5321Z" fill="#FCCC6B"/>
<path d="M60.3602 77.0883V72.3491H48.1307L33.6748 64C31.7426 62.8868 28.3791 63.022 26.1447 64.3101L12.2295 72.3412H0V77.3507H0.00795154C-0.0477093 78.1061 0.373723 78.8296 1.30405 79.3704L26.6933 94.033C28.6256 95.1462 31.9891 95.011 34.2235 93.7229L58.5313 79.6884C59.8195 78.9489 60.4397 77.9868 60.3681 77.0883H60.3602Z" fill="#2C4789"/>
<path d="M60.3602 77.0883V72.3491H48.1307L33.6748 64C31.7426 62.8868 28.3791 63.022 26.1447 64.3101L12.2295 72.3412H0V77.3507H0.00795154C-0.0477093 78.1061 0.373723 78.8296 1.30405 79.3704L26.6933 94.033C28.6256 95.1462 31.9891 95.011 34.2235 93.7229L58.5313 79.6884C59.8195 78.9489 60.4397 77.9868 60.3681 77.0883H60.3602Z" fill="url(#paint10_linear_2331_8509)"/>
<path d="M33.6823 63.9999C32.7519 63.4672 31.4956 63.2207 30.1836 63.2525V94.7724C31.599 94.7406 33.0621 94.3828 34.223 93.7149L58.5309 79.6804C59.819 78.9409 60.4392 77.9787 60.3677 77.0802V72.3411H48.1382L33.6823 63.992V63.9999Z" fill="url(#paint11_linear_2331_8509)"/>
<path d="M26.6924 89.0235L1.30309 74.3608C-0.629132 73.2476 -0.382634 71.2995 1.8438 70.0114L26.1517 55.9769C28.3781 54.6887 31.7496 54.5535 33.6818 55.6668L59.0711 70.3294C61.0033 71.4426 60.7568 73.3908 58.5304 74.6789L34.2225 88.7134C31.9961 90.0015 28.6246 90.1367 26.6924 89.0235Z" fill="#2C4789"/>
<path d="M26.6924 89.0235L1.30309 74.3608C-0.629132 73.2476 -0.382634 71.2995 1.8438 70.0114L26.1517 55.9769C28.3781 54.6887 31.7496 54.5535 33.6818 55.6668L59.0711 70.3294C61.0033 71.4426 60.7568 73.3908 58.5304 74.6789L34.2225 88.7134C31.9961 90.0015 28.6246 90.1367 26.6924 89.0235Z" fill="url(#paint12_linear_2331_8509)"/>
<path d="M27.3684 85.7792L6.90905 73.9712C5.3585 73.0726 5.54933 71.5062 7.34638 70.4725L26.931 59.1654C28.7281 58.1317 31.4396 58.0204 32.9981 58.9109L53.4574 70.719C55.0079 71.6175 54.8171 73.184 53.0201 74.2177L33.4354 85.5248C31.6384 86.5585 28.9269 86.6698 27.3684 85.7792Z" fill="#6DE0F6"/>
<path d="M7.34669 71.9992L26.9313 60.6921C28.7284 59.6584 31.4399 59.5471 32.9984 60.4377L53.4577 72.2457C53.8394 72.4684 54.1177 72.7308 54.2926 73.017C54.7458 72.1901 54.4835 71.3075 53.4577 70.719L32.9984 58.911C31.4478 58.0125 28.7284 58.1238 26.9313 59.1654L7.34669 70.4725C5.99493 71.2518 5.54964 72.3332 6.0824 73.2079C6.31299 72.7785 6.73442 72.365 7.34669 72.0072V71.9992Z" fill="#42B4E5"/>
<path opacity="0.5" d="M27.5432 89.0235L2.15391 74.3609C0.221683 73.2477 -0.239507 71.6096 2.69461 70.0114L27.0025 55.9769C28.0998 55.3408 29.4675 54.9909 30.8113 54.9273C29.213 54.8557 27.4796 55.2135 26.1517 55.9769L1.8438 70.0193C-0.382634 71.3075 -0.629132 73.2477 1.30309 74.3688L26.6924 89.0315C27.6704 89.596 29.0222 89.8346 30.4137 89.771C29.3402 89.7233 28.3224 89.4768 27.5511 89.0315L27.5432 89.0235Z" fill="url(#paint13_linear_2331_8509)"/>
<path opacity="0.5" d="M58.5313 76.794L34.2235 90.8285C31.997 92.1166 28.6256 92.2518 26.6933 91.1386L1.30405 76.4759C0.373723 75.9432 -0.0397577 75.2116 0.00795154 74.4563H0V75.4979H0.00795154C-0.0477093 76.2533 0.373723 76.9769 1.30405 77.5176L26.6933 92.1802C28.6256 93.2935 31.9891 93.1583 34.2235 91.8701L58.5313 77.8357C59.8195 77.0962 60.4397 76.134 60.3681 75.2355V74.1938C60.4397 75.0924 59.8195 76.0466 58.5313 76.794Z" fill="url(#paint14_linear_2331_8509)"/>
<path d="M54.1188 75.4105C54.3971 75.5696 54.3971 75.832 54.1188 75.991C53.8405 76.15 53.3952 76.15 53.1169 75.991C52.8386 75.832 52.8386 75.5696 53.1169 75.4105C53.3952 75.2515 53.8405 75.2515 54.1188 75.4105Z" fill="#FCCC6B"/>
<path d="M55.6852 74.504C55.9635 74.6631 55.9635 74.9255 55.6852 75.0845C55.4069 75.2435 54.9616 75.2435 54.6833 75.0845C54.405 74.9255 54.405 74.6631 54.6833 74.504C54.9616 74.345 55.4069 74.345 55.6852 74.504Z" fill="#FCCC6B"/>
<path d="M57.2438 73.6055C57.5221 73.7645 57.5221 74.0269 57.2438 74.1859C56.9655 74.345 56.5202 74.345 56.2419 74.1859C55.9636 74.0269 55.9636 73.7645 56.2419 73.6055C56.5202 73.4464 56.9655 73.4464 57.2438 73.6055Z" fill="#FCCC6B"/>
<path d="M7.3478 128.71C6.95818 128.71 6.5765 128.606 6.22664 128.407C5.51895 128.002 5.10547 127.27 5.10547 126.459V93.6115C5.10547 91.1306 6.44133 88.8088 8.5962 87.5683L14.2577 84.3003C14.4485 84.1889 14.6871 84.2526 14.7984 84.4434C14.9097 84.6342 14.8461 84.8728 14.6553 84.9841L8.99377 88.2522C7.0854 89.3495 5.90062 91.401 5.90062 93.6036V126.451C5.90062 126.976 6.17098 127.445 6.62421 127.708C7.07745 127.97 7.62611 127.97 8.07935 127.708L14.2577 124.137C14.4485 124.026 14.6871 124.09 14.7984 124.281C14.9097 124.471 14.8461 124.71 14.6553 124.821L8.47692 128.392C8.12706 128.598 7.73743 128.694 7.35576 128.694L7.3478 128.71Z" fill="#FCCC6B"/>
<path d="M5.4948 110.087C5.36758 110.087 5.24035 110.023 5.17674 109.904C5.07337 109.729 5.13698 109.499 5.31192 109.395L14.2654 104.227C14.4403 104.123 14.6709 104.187 14.7743 104.362C14.8776 104.537 14.814 104.767 14.6391 104.871L5.68564 110.039C5.62998 110.071 5.56637 110.087 5.50275 110.087H5.4948Z" fill="#FCCC6B"/>
<path d="M53.0853 128.71C52.6957 128.71 52.314 128.606 51.9641 128.407L45.7858 124.837C45.595 124.726 45.5313 124.487 45.6427 124.296C45.754 124.106 45.9925 124.042 46.1834 124.153L52.3617 127.724C52.815 127.986 53.3636 127.986 53.8169 127.724C54.2701 127.461 54.5404 126.992 54.5404 126.467V93.6194C54.5404 91.4169 53.3557 89.3654 51.4473 88.268L45.7858 85C45.595 84.8886 45.5313 84.6501 45.6427 84.4593C45.754 84.2684 45.9925 84.2048 46.1834 84.3161L51.8449 87.5842C53.9997 88.8247 55.3356 91.1386 55.3356 93.6274V126.475C55.3356 127.286 54.9142 128.018 54.2144 128.423C53.8646 128.63 53.4749 128.726 53.0933 128.726L53.0853 128.71Z" fill="#FCCC6B"/>
<path d="M54.9307 110.087C54.8671 110.087 54.8034 110.071 54.7478 110.039L45.7943 104.871C45.6194 104.767 45.5558 104.545 45.6592 104.362C45.7625 104.187 45.9852 104.123 46.1681 104.227L55.1215 109.395C55.2964 109.499 55.36 109.721 55.2567 109.904C55.1851 110.023 55.0658 110.087 54.9386 110.087H54.9307Z" fill="#FCCC6B"/>
<path d="M217.935 158.623H143.859C143.636 158.623 143.461 158.448 143.461 158.226V137.353C143.461 137.13 143.636 136.955 143.859 136.955C144.081 136.955 144.256 137.13 144.256 137.353V157.828H217.935C233.52 157.828 246.195 145.154 246.195 129.568C246.195 129.346 246.37 129.171 246.592 129.171C246.815 129.171 246.99 129.346 246.99 129.568C246.99 145.591 233.957 158.623 217.935 158.623Z" fill="#FCCC6B"/>
<path d="M216.64 116.894V112.155H228.87L243.326 103.805C245.258 102.692 248.621 102.827 250.856 104.116L264.771 112.147H277.008V117.156H277C277.056 117.911 276.635 118.635 275.704 119.176L250.315 133.838C248.383 134.952 245.019 134.816 242.785 133.528L218.477 119.494C217.189 118.754 216.569 117.792 216.64 116.894Z" fill="#2C4789"/>
<path d="M216.64 116.894V112.155H228.87L243.326 103.805C245.258 102.692 248.621 102.827 250.856 104.116L264.771 112.147H277.008V117.156H277C277.056 117.911 276.635 118.635 275.704 119.176L250.315 133.838C248.383 134.952 245.019 134.816 242.785 133.528L218.477 119.494C217.189 118.754 216.569 117.792 216.64 116.894Z" fill="url(#paint15_linear_2331_8509)"/>
<path d="M243.326 103.805C244.256 103.273 245.512 103.026 246.824 103.058V134.578C245.409 134.546 243.946 134.188 242.785 133.52L218.477 119.486C217.189 118.746 216.569 117.784 216.64 116.886V112.147H228.87L243.326 103.797V103.805Z" fill="url(#paint16_linear_2331_8509)"/>
<path d="M250.307 128.829L275.696 114.166C277.628 113.053 277.382 111.105 275.155 109.817L250.847 95.7823C248.621 94.4941 245.25 94.359 243.317 95.4722L217.928 110.135C215.996 111.248 216.242 113.196 218.469 114.484L242.777 128.519C245.003 129.807 248.375 129.942 250.307 128.829Z" fill="#2C4789"/>
<path d="M243.325 128.829L217.936 114.166C216.004 113.053 216.25 111.105 218.477 109.817L242.784 95.7823C245.011 94.4941 248.382 94.359 250.315 95.4722L275.704 110.135C277.636 111.248 277.39 113.196 275.163 114.484L250.855 128.519C248.629 129.807 245.257 129.942 243.325 128.829Z" fill="url(#paint17_linear_2331_8509)"/>
<path d="M249.631 125.593L270.09 113.785C271.641 112.886 271.45 111.32 269.653 110.286L250.068 98.9787C248.271 97.945 245.56 97.8337 244.001 98.7243L223.542 110.532C221.991 111.431 222.182 112.997 223.979 114.031L243.564 125.338C245.361 126.372 248.072 126.483 249.631 125.593Z" fill="#6DE0F6"/>
<path d="M269.654 111.805L250.069 100.498C248.272 99.4639 245.561 99.3525 244.002 100.243L223.543 112.051C223.161 112.274 222.883 112.536 222.708 112.822C222.255 111.995 222.517 111.113 223.543 110.524L244.002 98.7164C245.553 97.8179 248.272 97.9292 250.069 98.9709L269.654 110.278C271.006 111.057 271.451 112.139 270.918 113.013C270.688 112.584 270.266 112.17 269.654 111.813V111.805Z" fill="#42B4E5"/>
<path opacity="0.5" d="M249.456 128.829L274.845 114.166C276.777 113.053 277.238 111.415 274.304 109.817L249.996 95.7823C248.899 95.1462 247.531 94.7963 246.188 94.7327C247.786 94.6612 249.519 95.019 250.847 95.7823L275.155 109.817C277.381 111.105 277.628 113.045 275.696 114.166L250.306 128.829C249.328 129.394 247.977 129.632 246.585 129.568C247.659 129.521 248.676 129.274 249.448 128.829H249.456Z" fill="url(#paint18_linear_2331_8509)"/>
<path opacity="0.5" d="M218.469 116.599L242.777 130.634C245.004 131.922 248.375 132.057 250.307 130.944L275.697 116.281C276.627 115.749 277.04 115.017 276.993 114.262H277.001V115.303H276.993C277.048 116.059 276.627 116.782 275.697 117.323L250.307 131.986C248.375 133.099 245.012 132.964 242.777 131.676L218.469 117.641C217.181 116.902 216.561 115.939 216.633 115.041V113.999C216.561 114.898 217.181 115.852 218.469 116.599Z" fill="url(#paint19_linear_2331_8509)"/>
<path d="M222.883 115.216C222.604 115.375 222.604 115.637 222.883 115.796C223.161 115.955 223.606 115.955 223.884 115.796C224.163 115.637 224.163 115.375 223.884 115.216C223.606 115.057 223.161 115.057 222.883 115.216Z" fill="#FCCC6B"/>
<path d="M221.316 114.317C221.038 114.476 221.038 114.739 221.316 114.898C221.594 115.057 222.04 115.057 222.318 114.898C222.596 114.739 222.596 114.476 222.318 114.317C222.04 114.158 221.594 114.158 221.316 114.317Z" fill="#FCCC6B"/>
<path d="M219.758 113.411C219.479 113.57 219.479 113.832 219.758 113.991C220.036 114.15 220.481 114.15 220.759 113.991C221.038 113.832 221.038 113.57 220.759 113.411C220.481 113.252 220.036 113.252 219.758 113.411Z" fill="#FCCC6B"/>
<path d="M216.64 96.9672V92.228H228.87L243.326 83.8789C245.258 82.7657 248.621 82.9009 250.856 84.189L264.771 92.2201H277.008V97.2296H277C277.056 97.985 276.635 98.7086 275.704 99.2493L250.315 113.912C248.383 115.025 245.019 114.89 242.785 113.602L218.477 99.5673C217.189 98.8278 216.569 97.8657 216.64 96.9672Z" fill="#2C4789"/>
<path d="M216.64 96.9672V92.228H228.87L243.326 83.8789C245.258 82.7657 248.621 82.9009 250.856 84.189L264.771 92.2201H277.008V97.2296H277C277.056 97.985 276.635 98.7086 275.704 99.2493L250.315 113.912C248.383 115.025 245.019 114.89 242.785 113.602L218.477 99.5673C217.189 98.8278 216.569 97.8657 216.64 96.9672Z" fill="url(#paint20_linear_2331_8509)"/>
<path d="M243.326 83.8788C244.256 83.3461 245.512 83.0996 246.824 83.1314V114.651C245.409 114.62 243.946 114.262 242.785 113.594L218.477 99.5593C217.189 98.8198 216.569 97.8576 216.64 96.9591V92.22H228.87L243.326 83.8709V83.8788Z" fill="url(#paint21_linear_2331_8509)"/>
<path d="M250.307 108.902L275.696 94.2398C277.628 93.1265 277.382 91.1784 275.155 89.8903L250.847 75.8558C248.621 74.5676 245.25 74.4325 243.317 75.5457L217.928 90.2083C215.996 91.3215 216.242 93.2697 218.469 94.5578L242.777 108.592C245.003 109.88 248.375 110.016 250.307 108.902Z" fill="#2C4789"/>
<path d="M243.325 108.902L217.936 94.2398C216.004 93.1265 216.25 91.1784 218.477 89.8903L242.784 75.8558C245.011 74.5676 248.382 74.4325 250.315 75.5457L275.704 90.2083C277.636 91.3215 277.39 93.2697 275.163 94.5578L250.855 108.592C248.629 109.88 245.257 110.016 243.325 108.902Z" fill="url(#paint22_linear_2331_8509)"/>
<path d="M249.631 105.658L270.09 93.8501C271.641 92.9516 271.45 91.3851 269.653 90.3514L250.068 79.0443C248.271 78.0106 245.56 77.8993 244.001 78.7899L223.542 90.5979C221.991 91.4964 222.182 93.0629 223.979 94.0966L243.564 105.404C245.361 106.437 248.072 106.549 249.631 105.658Z" fill="#6DE0F6"/>
<path d="M269.654 91.8781L250.069 80.5711C248.272 79.5374 245.561 79.426 244.002 80.3166L223.543 92.1246C223.161 92.3473 222.883 92.6097 222.708 92.8959C222.255 92.069 222.517 91.1864 223.543 90.5979L244.002 78.7899C245.553 77.8914 248.272 78.0027 250.069 79.0444L269.654 90.3514C271.006 91.1307 271.451 92.2121 270.918 93.0868C270.688 92.6574 270.266 92.2439 269.654 91.8861V91.8781Z" fill="#42B4E5"/>
<path opacity="0.5" d="M249.456 108.902L274.845 94.2398C276.777 93.1266 277.238 91.4885 274.304 89.8903L249.996 75.8558C248.899 75.2197 247.531 74.8698 246.188 74.8062C247.786 74.7346 249.519 75.0925 250.847 75.8558L275.155 89.8903C277.381 91.1784 277.628 93.1186 275.696 94.2398L250.306 108.902C249.328 109.467 247.977 109.706 246.585 109.642C247.659 109.594 248.676 109.348 249.448 108.902H249.456Z" fill="url(#paint23_linear_2331_8509)"/>
<path opacity="0.5" d="M218.469 96.6729L242.777 110.707C245.004 111.996 248.375 112.131 250.307 111.017L275.697 96.3548C276.627 95.8221 277.04 95.0906 276.993 94.3352H277.001V95.3768H276.993C277.048 96.1322 276.627 96.8558 275.697 97.3965L250.307 112.059C248.375 113.172 245.012 113.037 242.777 111.749L218.469 97.7146C217.181 96.9751 216.561 96.0129 216.633 95.1144V94.0728C216.561 94.9713 217.181 95.9255 218.469 96.6729Z" fill="url(#paint24_linear_2331_8509)"/>
<path d="M222.883 95.2894C222.604 95.4485 222.604 95.7109 222.883 95.8699C223.161 96.0289 223.606 96.0289 223.884 95.8699C224.163 95.7109 224.163 95.4485 223.884 95.2894C223.606 95.1304 223.161 95.1304 222.883 95.2894Z" fill="#FCCC6B"/>
<path d="M221.316 94.3829C221.038 94.542 221.038 94.8044 221.316 94.9634C221.594 95.1224 222.04 95.1224 222.318 94.9634C222.596 94.8044 222.596 94.542 222.318 94.3829C222.04 94.2239 221.594 94.2239 221.316 94.3829Z" fill="#FCCC6B"/>
<path d="M219.758 93.4844C219.479 93.6434 219.479 93.9058 219.758 94.0648C220.036 94.2239 220.481 94.2239 220.759 94.0648C221.038 93.9058 221.038 93.6434 220.759 93.4844C220.481 93.3254 220.036 93.3254 219.758 93.4844Z" fill="#FCCC6B"/>
<path d="M216.64 77.0326V72.2935H228.87L243.326 63.9444C245.258 62.8311 248.621 62.9663 250.856 64.2545L264.771 72.2855H277.008V77.295H277C277.056 78.0504 276.635 78.774 275.704 79.3147L250.315 93.9773C248.383 95.0905 245.019 94.9554 242.785 93.6672L218.477 79.6328C217.189 78.8933 216.569 77.9311 216.64 77.0326Z" fill="#2C4789"/>
<path d="M216.64 77.0326V72.2935H228.87L243.326 63.9444C245.258 62.8311 248.621 62.9663 250.856 64.2545L264.771 72.2855H277.008V77.295H277C277.056 78.0504 276.635 78.774 275.704 79.3147L250.315 93.9773C248.383 95.0905 245.019 94.9554 242.785 93.6672L218.477 79.6328C217.189 78.8933 216.569 77.9311 216.64 77.0326Z" fill="url(#paint25_linear_2331_8509)"/>
<path d="M243.326 63.9523C244.256 63.4196 245.512 63.1731 246.824 63.2049V94.7248C245.409 94.693 243.946 94.3352 242.785 93.6672L218.477 79.6328C217.189 78.8933 216.569 77.9311 216.64 77.0326V72.2935H228.87L243.326 63.9444V63.9523Z" fill="url(#paint26_linear_2331_8509)"/>
<path d="M250.307 88.9678L275.696 74.3052C277.628 73.192 277.382 71.2438 275.155 69.9557L250.847 55.9212C248.621 54.6331 245.25 54.4979 243.317 55.6111L217.928 70.2737C215.996 71.387 216.242 73.3351 218.469 74.6232L242.777 88.6577C245.003 89.9459 248.375 90.081 250.307 88.9678Z" fill="#2C4789"/>
<path d="M243.325 88.9678L217.936 74.3052C216.004 73.192 216.25 71.2438 218.477 69.9557L242.784 55.9212C245.011 54.6331 248.382 54.4979 250.315 55.6111L275.704 70.2737C277.636 71.387 277.39 73.3351 275.163 74.6232L250.855 88.6577C248.629 89.9459 245.257 90.081 243.325 88.9678Z" fill="url(#paint27_linear_2331_8509)"/>
<path d="M249.631 85.7316L270.09 73.9236C271.641 73.025 271.45 71.4586 269.653 70.4249L250.068 59.1178C248.271 58.0841 245.56 57.9728 244.001 58.8633L223.542 70.6714C221.991 71.5699 222.182 73.1364 223.979 74.1701L243.564 85.4772C245.361 86.5109 248.072 86.6222 249.631 85.7316Z" fill="#6DE0F6"/>
<path d="M269.654 71.9515L250.069 60.6444C248.272 59.6107 245.561 59.4994 244.002 60.39L223.543 72.198C223.161 72.4207 222.883 72.6831 222.708 72.9693C222.255 72.1423 222.517 71.2597 223.543 70.6713L244.002 58.8633C245.553 57.9647 248.272 58.0761 250.069 59.1177L269.654 70.4248C271.006 71.2041 271.451 72.2855 270.918 73.1601C270.688 72.7308 270.266 72.3173 269.654 71.9595V71.9515Z" fill="#42B4E5"/>
<path opacity="0.5" d="M249.456 88.9679L274.845 74.3052C276.777 73.192 277.238 71.554 274.304 69.9557L249.996 55.9212C248.899 55.2851 247.531 54.9352 246.188 54.8716C247.786 54.8001 249.519 55.1579 250.847 55.9212L275.155 69.9557C277.381 71.2439 277.628 73.184 275.696 74.3052L250.306 88.9679C249.328 89.5324 247.977 89.771 246.585 89.7073C247.659 89.6596 248.676 89.4131 249.448 88.9679H249.456Z" fill="url(#paint28_linear_2331_8509)"/>
<path opacity="0.5" d="M218.469 76.7383L242.777 90.7728C245.004 92.061 248.375 92.1961 250.307 91.0829L275.697 76.4203C276.627 75.8875 277.04 75.156 276.993 74.4006H277.001V75.4422H276.993C277.048 76.1976 276.627 76.9212 275.697 77.4619L250.307 92.1246C248.375 93.2378 245.012 93.1026 242.777 91.8145L218.469 77.78C217.181 77.0405 216.561 76.0784 216.633 75.1798V74.1382C216.561 75.0367 217.181 75.9909 218.469 76.7383Z" fill="url(#paint29_linear_2331_8509)"/>
<path d="M222.883 75.3628C222.604 75.5218 222.604 75.7842 222.883 75.9433C223.161 76.1023 223.606 76.1023 223.884 75.9433C224.163 75.7842 224.163 75.5218 223.884 75.3628C223.606 75.2038 223.161 75.2038 222.883 75.3628Z" fill="#FCCC6B"/>
<path d="M221.316 74.4563C221.038 74.6153 221.038 74.8777 221.316 75.0368C221.594 75.1958 222.04 75.1958 222.318 75.0368C222.596 74.8777 222.596 74.6153 222.318 74.4563C222.04 74.2973 221.594 74.2973 221.316 74.4563Z" fill="#FCCC6B"/>
<path d="M219.758 73.5577C219.479 73.7168 219.479 73.9792 219.758 74.1382C220.036 74.2972 220.481 74.2972 220.759 74.1382C221.038 73.9792 221.038 73.7168 220.759 73.5577C220.481 73.3987 220.036 73.3987 219.758 73.5577Z" fill="#FCCC6B"/>
<path d="M269.66 128.662C269.27 128.662 268.888 128.559 268.538 128.36L262.36 124.79C262.169 124.678 262.106 124.44 262.217 124.249C262.328 124.058 262.567 123.994 262.758 124.106L268.936 127.676C269.389 127.938 269.93 127.938 270.391 127.676C270.844 127.414 271.115 126.944 271.115 126.42V93.5718C271.115 91.3693 269.93 89.3178 268.022 88.2204L262.36 84.9524C262.169 84.841 262.106 84.6025 262.217 84.4117C262.328 84.2208 262.567 84.1572 262.758 84.2685L268.419 87.5366C270.574 88.777 271.91 91.0909 271.91 93.5798V126.428C271.91 127.239 271.488 127.97 270.789 128.376C270.439 128.582 270.049 128.678 269.667 128.678L269.66 128.662Z" fill="#FCCC6B"/>
<path d="M271.505 110.039C271.441 110.039 271.378 110.024 271.322 109.992L262.369 104.823C262.194 104.72 262.13 104.497 262.233 104.314C262.337 104.139 262.567 104.076 262.742 104.179L271.696 109.348C271.871 109.451 271.934 109.674 271.831 109.857C271.759 109.976 271.64 110.039 271.513 110.039H271.505Z" fill="#FCCC6B"/>
<path d="M223.914 128.662C223.525 128.662 223.143 128.559 222.793 128.36C222.093 127.954 221.672 127.223 221.672 126.412V93.5638C221.672 91.0829 223.008 88.7611 225.163 87.5206L230.824 84.2525C231.015 84.1412 231.253 84.2048 231.365 84.3957C231.476 84.5865 231.413 84.825 231.222 84.9364L225.56 88.2044C223.652 89.3018 222.467 91.3533 222.467 93.5558V126.404C222.467 126.928 222.737 127.398 223.191 127.66C223.644 127.922 224.185 127.922 224.646 127.66L230.824 124.09C231.015 123.978 231.253 124.042 231.365 124.233C231.476 124.424 231.413 124.662 231.222 124.774L225.043 128.344C224.693 128.551 224.304 128.646 223.922 128.646L223.914 128.662Z" fill="#FCCC6B"/>
<path d="M222.069 110.039C221.942 110.039 221.815 109.976 221.751 109.857C221.648 109.682 221.711 109.451 221.886 109.348L230.84 104.179C231.015 104.076 231.245 104.139 231.348 104.314C231.452 104.489 231.388 104.72 231.213 104.823L222.26 109.992C222.204 110.024 222.141 110.039 222.077 110.039H222.069Z" fill="#FCCC6B"/>
<path d="M184.213 125.585V118.484H165.901L144.257 105.984C141.371 104.314 136.321 104.529 132.982 106.453L112.141 118.484H93.8203V125.982H93.8362C93.7567 127.112 94.3849 128.201 95.7684 129.004L133.793 150.958C136.679 152.628 141.728 152.413 145.068 150.489L181.47 129.473C183.394 128.36 184.325 126.921 184.213 125.585Z" fill="#2C4789"/>
<path opacity="0.5" d="M184.213 125.585V118.484H165.901L144.257 105.984C141.371 104.314 136.321 104.529 132.982 106.453L112.141 118.484H93.8203V125.982H93.8362C93.7567 127.112 94.3849 128.201 95.7684 129.004L133.793 150.958C136.679 152.628 141.728 152.413 145.068 150.489L181.47 129.473C183.394 128.36 184.325 126.921 184.213 125.585Z" fill="url(#paint30_linear_2331_8509)"/>
<path d="M144.258 105.984C142.866 105.181 140.981 104.815 139.025 104.863V152.071C141.141 152.024 143.335 151.491 145.069 150.489L181.471 129.473C183.395 128.36 184.325 126.921 184.214 125.585V118.484H165.902L144.258 105.984Z" fill="url(#paint31_linear_2331_8509)"/>
<path d="M133.8 143.46L95.776 121.506C92.8895 119.836 93.2474 116.925 96.587 115.001L132.989 93.9853C136.329 92.061 141.37 91.8463 144.264 93.5161L182.289 115.47C185.175 117.14 184.817 120.05 181.478 121.975L145.076 142.991C141.736 144.915 136.695 145.13 133.8 143.46Z" fill="#2C4789"/>
<path d="M133.8 143.46L95.776 121.506C92.8895 119.836 93.2474 116.925 96.587 115.001L132.989 93.9853C136.329 92.061 141.37 91.8463 144.264 93.5161L182.289 115.47C185.175 117.14 184.817 120.05 181.478 121.975L145.076 142.991C141.736 144.915 136.695 145.13 133.8 143.46Z" fill="url(#paint32_linear_2331_8509)"/>
<path d="M134.819 138.601L104.182 120.917C101.852 119.573 102.146 117.228 104.834 115.677L134.159 98.7403C136.847 97.1898 140.91 97.0228 143.24 98.3666L173.877 116.051C176.207 117.395 175.912 119.74 173.225 121.291L143.9 138.228C141.212 139.778 137.149 139.945 134.819 138.601Z" fill="#5FCEFF"/>
<path d="M104.833 117.967L134.158 101.03C136.845 99.4798 140.909 99.3128 143.239 100.657L173.876 118.341C174.448 118.675 174.862 119.064 175.124 119.494C175.8 118.253 175.41 116.933 173.876 116.051L143.239 98.3666C140.909 97.0228 136.845 97.1898 134.158 98.7403L104.833 115.677C102.805 116.846 102.145 118.468 102.932 119.772C103.282 119.128 103.91 118.508 104.833 117.975V117.967Z" fill="#42B4E5"/>
<path opacity="0.5" d="M135.073 143.46L97.0483 121.506C94.1619 119.836 93.4702 117.387 97.8594 115.001L134.262 93.9853C135.9 93.0391 137.959 92.5063 139.963 92.4109C137.577 92.2996 134.977 92.8324 132.981 93.9853L96.5792 115.001C93.2396 116.926 92.8817 119.844 95.7681 121.506L133.792 143.46C135.263 144.311 137.283 144.668 139.359 144.565C137.744 144.494 136.234 144.128 135.065 143.46H135.073Z" fill="url(#paint33_linear_2331_8509)"/>
<path opacity="0.8" d="M181.47 125.14L145.068 146.155C141.728 148.08 136.687 148.294 133.793 146.625L95.7684 124.67C94.3769 123.867 93.7488 122.778 93.8362 121.649H93.8203V123.199H93.8362C93.7567 124.328 94.3849 125.418 95.7684 126.221L133.793 148.175C136.679 149.845 141.728 149.63 145.068 147.706L181.47 126.69C183.394 125.577 184.325 124.138 184.213 122.802V121.251C184.325 122.587 183.394 124.026 181.47 125.14Z" fill="url(#paint34_linear_2331_8509)"/>
<path d="M174.87 123.072C175.283 123.311 175.283 123.7 174.87 123.939C174.456 124.177 173.78 124.177 173.367 123.939C172.953 123.7 172.953 123.311 173.367 123.072C173.78 122.834 174.456 122.834 174.87 123.072Z" fill="#FCCC6B"/>
<path d="M177.207 121.72C177.621 121.959 177.621 122.349 177.207 122.587C176.794 122.826 176.118 122.826 175.705 122.587C175.291 122.349 175.291 121.959 175.705 121.72C176.118 121.482 176.794 121.482 177.207 121.72Z" fill="#FCCC6B"/>
<path d="M179.553 120.369C179.967 120.607 179.967 120.997 179.553 121.235C179.14 121.474 178.464 121.474 178.05 121.235C177.637 120.997 177.637 120.607 178.05 120.369C178.464 120.13 179.14 120.13 179.553 120.369Z" fill="#FCCC6B"/>
<path opacity="0.1" d="M137.061 127.891L122.74 119.621C121.651 118.993 121.786 117.896 123.042 117.172L136.751 109.26C138.007 108.537 139.907 108.457 140.997 109.085L155.318 117.355C156.407 117.983 156.272 119.08 155.015 119.804L141.307 127.716C140.051 128.439 138.15 128.519 137.061 127.891Z" fill="#03143F"/>
<path opacity="0.8" d="M145.251 72.8024H132.815V118.476C132.807 118.635 132.887 118.778 133.077 118.89L138.31 121.911C138.707 122.142 139.399 122.11 139.86 121.847L144.87 118.953C145.108 118.818 145.235 118.643 145.243 118.476V72.8024H145.251Z" fill="#70E8FC"/>
<path opacity="0.5" d="M156.049 65.6381H122V118.484H122.008C121.976 118.905 122.207 119.319 122.732 119.621L137.052 127.891C138.142 128.519 140.042 128.439 141.298 127.716L155.007 119.804C155.659 119.43 156.001 118.953 156.033 118.492H156.041V65.6381H156.049Z" fill="#5FCEFF"/>
<path d="M184.213 55.1976V48.0969H165.901L144.257 35.5971C141.371 33.9273 136.321 34.1419 132.982 36.0662L112.141 48.0969H93.8203V55.5952H93.8362C93.7567 56.7243 94.3849 57.8137 95.7684 58.6168L133.793 80.571C136.679 82.2408 141.728 82.0261 145.068 80.1019L181.47 59.0859C183.394 57.9727 184.325 56.5335 184.213 55.1976Z" fill="#2C4789"/>
<path opacity="0.5" d="M184.213 55.1976V48.0969H165.901L144.257 35.5971C141.371 33.9273 136.321 34.1419 132.982 36.0662L112.141 48.0969H93.8203V55.5952H93.8362C93.7567 56.7243 94.3849 57.8137 95.7684 58.6168L133.793 80.571C136.679 82.2408 141.728 82.0261 145.068 80.1019L181.47 59.0859C183.394 57.9727 184.325 56.5335 184.213 55.1976Z" fill="url(#paint35_linear_2331_8509)"/>
<path d="M144.258 35.5971C142.866 34.794 140.981 34.4282 139.025 34.4759V81.6842C141.141 81.6365 143.335 81.1038 145.069 80.1019L181.471 59.086C183.395 57.9727 184.325 56.5335 184.214 55.1977V48.0969H165.902L144.258 35.5971Z" fill="url(#paint36_linear_2331_8509)"/>
<path d="M133.8 73.0727L95.776 51.1185C92.8895 49.4487 93.2474 46.5384 96.587 44.6141L132.989 23.5903C136.329 21.666 141.37 21.4513 144.264 23.1211L182.289 45.0753C185.175 46.7452 184.817 49.6554 181.478 51.5797L145.076 72.5956C141.736 74.5199 136.695 74.7346 133.8 73.0648V73.0727Z" fill="#2C4789"/>
<path d="M133.8 73.0727L95.776 51.1185C92.8895 49.4487 93.2474 46.5384 96.587 44.6141L132.989 23.5903C136.329 21.666 141.37 21.4513 144.264 23.1211L182.289 45.0753C185.175 46.7452 184.817 49.6554 181.478 51.5797L145.076 72.5956C141.736 74.5199 136.695 74.7346 133.8 73.0648V73.0727Z" fill="url(#paint37_linear_2331_8509)"/>
<path d="M134.819 68.2143L104.182 50.5301C101.852 49.1863 102.146 46.8406 104.834 45.29L134.159 28.3532C136.847 26.8027 140.91 26.6357 143.24 27.9795L173.877 45.6638C176.207 47.0076 175.912 49.3533 173.225 50.9038L143.9 67.8406C141.212 69.3912 137.149 69.5581 134.819 68.2143Z" fill="#6DE0F6"/>
<path d="M104.833 47.5801L134.158 30.6433C136.845 29.0927 140.909 28.9257 143.239 30.2696L173.876 47.9538C174.448 48.2878 174.862 48.6774 175.124 49.1068C175.8 47.8663 175.41 46.5464 173.876 45.6638L143.239 27.9795C140.909 26.6357 136.845 26.8027 134.158 28.3532L104.833 45.29C102.805 46.4589 102.145 48.081 102.932 49.3771C103.282 48.733 103.91 48.1128 104.833 47.5801Z" fill="#42B4E5"/>
<path opacity="0.5" d="M135.073 73.0728L97.0483 51.1186C94.1619 49.4487 93.4702 46.9997 97.8594 44.6142L134.262 23.5903C135.9 22.6441 137.959 22.1113 139.963 22.0159C137.577 21.9046 134.977 22.4373 132.981 23.5903L96.5792 44.6063C93.2396 46.5305 92.8817 49.4487 95.7681 51.1106L133.792 73.0648C135.263 73.9156 137.283 74.2735 139.359 74.1701C137.744 74.0985 136.234 73.7328 135.065 73.0648L135.073 73.0728Z" fill="url(#paint38_linear_2331_8509)"/>
<path opacity="0.8" d="M181.47 54.7523L145.068 75.7683C141.728 77.6925 136.687 77.9072 133.793 76.2374L95.7684 54.2832C94.3769 53.4801 93.7488 52.3907 93.8362 51.2616H93.8203V52.8121H93.8362C93.7567 53.9413 94.3849 55.0306 95.7684 55.8337L133.793 77.7879C136.679 79.4578 141.728 79.2431 145.068 77.3188L181.47 56.3029C183.394 55.1897 184.325 53.7504 184.213 52.4146V50.864C184.325 52.1999 183.394 53.6391 181.47 54.7523Z" fill="url(#paint39_linear_2331_8509)"/>
<path d="M174.87 52.6849C175.283 52.9234 175.283 53.3131 174.87 53.5516C174.456 53.7902 173.78 53.7902 173.367 53.5516C172.953 53.3131 172.953 52.9234 173.367 52.6849C173.78 52.4463 174.456 52.4463 174.87 52.6849Z" fill="#FCCC6B"/>
<path d="M177.207 51.3332C177.621 51.5718 177.621 51.9614 177.207 52.1999C176.794 52.4385 176.118 52.4385 175.705 52.1999C175.291 51.9614 175.291 51.5718 175.705 51.3332C176.118 51.0947 176.794 51.0947 177.207 51.3332Z" fill="#FCCC6B"/>
<path d="M179.553 49.9814C179.967 50.2199 179.967 50.6096 179.553 50.8481C179.14 51.0867 178.464 51.0867 178.05 50.8481C177.637 50.6096 177.637 50.2199 178.05 49.9814C178.464 49.7429 179.14 49.7429 179.553 49.9814Z" fill="#FCCC6B"/>
<g opacity="0.35">
<path opacity="0.5" d="M184.229 55.2295C184.293 56.5494 183.371 57.9489 181.486 59.0383L145.076 80.0622C141.736 81.9864 136.695 82.2011 133.801 80.5313L95.7684 58.5771C94.3769 57.774 93.7488 56.6846 93.8362 55.5555H93.8203V118.659H93.8521C93.8362 119.732 94.4405 120.766 95.7684 121.537L133.801 143.492C136.687 145.161 141.736 144.955 145.076 143.022L181.486 121.999C183.331 120.933 184.229 119.565 184.213 118.269H184.245V55.2295H184.229Z" fill="#5FCEFF"/>
<g style="mix-blend-mode:lighten" opacity="0.7">
<path d="M181.487 59.0383L145.076 80.0622C143.343 81.0641 141.148 81.5889 139.033 81.6445V144.605C141.148 144.557 143.343 144.024 145.076 143.03L181.487 122.007C183.331 120.941 184.23 119.573 184.214 118.277H184.254V55.2295H184.238C184.301 56.5494 183.379 57.9489 181.494 59.0383H181.487Z" fill="#42B4E5"/>
</g>
</g>
<path opacity="0.5" d="M84.5796 44.3756H74.5527V45.8466H84.5796V44.3756Z" fill="#5FCEFF"/>
<path opacity="0.5" d="M84.5719 49.067H79.1172V50.5381H84.5719V49.067Z" fill="#5FCEFF"/>
<path opacity="0.5" d="M84.5719 53.7505H79.1172V55.2215H84.5719V53.7505Z" fill="#5FCEFF"/>
<path opacity="0.5" d="M84.5719 58.4419H79.1172V59.9129H84.5719V58.4419Z" fill="#5FCEFF"/>
<path opacity="0.5" d="M84.5796 63.1333H74.5527V64.6043H84.5796V63.1333Z" fill="#5FCEFF"/>
<path opacity="0.5" d="M84.5719 67.8168H79.1172V69.2878H84.5719V67.8168Z" fill="#5FCEFF"/>
<path opacity="0.5" d="M84.5719 72.5082H79.1172V73.9792H84.5719V72.5082Z" fill="#5FCEFF"/>
<path opacity="0.5" d="M84.5719 77.1996H79.1172V78.6706H84.5719V77.1996Z" fill="#5FCEFF"/>
<path opacity="0.5" d="M84.5719 81.8831H79.1172V83.3541H84.5719V81.8831Z" fill="#5FCEFF"/>
<path opacity="0.5" d="M84.5719 86.5745H79.1172V88.0455H84.5719V86.5745Z" fill="#5FCEFF"/>
<path opacity="0.5" d="M84.5719 91.2659H79.1172V92.7369H84.5719V91.2659Z" fill="#5FCEFF"/>
<path opacity="0.5" d="M84.5719 95.9493H79.1172V97.4204H84.5719V95.9493Z" fill="#5FCEFF"/>
<path opacity="0.5" d="M84.5719 100.641H79.1172V102.112H84.5719V100.641Z" fill="#5FCEFF"/>
<path opacity="0.5" d="M84.5796 105.332H74.5527V106.803H84.5796V105.332Z" fill="#5FCEFF"/>
<path opacity="0.5" d="M84.5719 110.016H79.1172V111.487H84.5719V110.016Z" fill="#5FCEFF"/>
<path opacity="0.4" d="M84.5719 114.707H79.1172V116.178H84.5719V114.707Z" fill="#5FCEFF"/>
<path opacity="0.3" d="M84.5719 119.398H79.1172V120.869H84.5719V119.398Z" fill="#5FCEFF"/>
<path opacity="0.2" d="M84.5719 124.082H79.1172V125.553H84.5719V124.082Z" fill="#5FCEFF"/>
<path opacity="0.1" d="M84.5719 128.773H79.1172V130.244H84.5719V128.773Z" fill="#5FCEFF"/>
<path opacity="0.8" d="M84.5796 44.3756H74.5527V45.8466H84.5796V44.3756Z" fill="#5FCEFF"/>
<path opacity="0.8" d="M84.5719 58.4419H79.1172V59.9129H84.5719V58.4419Z" fill="#5FCEFF"/>
<path opacity="0.8" d="M84.5719 67.8168H79.1172V69.2878H84.5719V67.8168Z" fill="#5FCEFF"/>
<path opacity="0.8" d="M84.5719 91.2659H79.1172V92.7369H84.5719V91.2659Z" fill="#5FCEFF"/>
<path opacity="0.4" d="M193.682 49.8065H189.857V53.6312H193.682V49.8065Z" fill="#5FCEFF"/>
<path opacity="0.4" d="M193.682 55.8815H189.857V59.7062H193.682V55.8815Z" fill="#5FCEFF"/>
<path opacity="0.4" d="M193.682 61.9564H189.857V65.7811H193.682V61.9564Z" fill="#5FCEFF"/>
<path opacity="0.4" d="M193.682 68.0315H189.857V71.8562H193.682V68.0315Z" fill="#5FCEFF"/>
<path opacity="0.4" d="M193.682 74.1064H189.857V77.9311H193.682V74.1064Z" fill="#5FCEFF"/>
<path opacity="0.4" d="M199.645 49.8065H195.82V53.6312H199.645V49.8065Z" fill="#5FCEFF"/>
<path opacity="0.4" d="M199.645 55.8815H195.82V59.7062H199.645V55.8815Z" fill="#5FCEFF"/>
<path opacity="0.4" d="M199.645 61.9564H195.82V65.7811H199.645V61.9564Z" fill="#5FCEFF"/>
<path opacity="0.4" d="M199.645 68.0315H195.82V71.8562H199.645V68.0315Z" fill="#5FCEFF"/>
<path opacity="0.4" d="M199.645 74.1064H195.82V77.9311H199.645V74.1064Z" fill="#5FCEFF"/>
<path opacity="0.4" d="M205.618 49.8065H201.793V53.6312H205.618V49.8065Z" fill="#5FCEFF"/>
<path opacity="0.4" d="M205.618 55.8815H201.793V59.7062H205.618V55.8815Z" fill="#5FCEFF"/>
<path opacity="0.4" d="M205.618 61.9564H201.793V65.7811H205.618V61.9564Z" fill="#5FCEFF"/>
<path opacity="0.4" d="M205.618 68.0315H201.793V71.8562H205.618V68.0315Z" fill="#5FCEFF"/>
<path opacity="0.4" d="M205.618 74.1064H201.793V77.9311H205.618V74.1064Z" fill="#5FCEFF"/>
<path opacity="0.8" d="M199.645 49.8065H195.82V53.6312H199.645V49.8065Z" fill="#5FCEFF"/>
<path opacity="0.8" d="M199.645 68.0315H195.82V71.8562H199.645V68.0315Z" fill="#5FCEFF"/>
<path opacity="0.8" d="M205.618 55.8815H201.793V59.7062H205.618V55.8815Z" fill="#5FCEFF"/>
<path d="M212.082 118.078H203.701C203.51 118.078 203.359 117.927 203.359 117.737C203.359 117.546 203.51 117.395 203.701 117.395H211.74V70.2976H203.701C203.51 70.2976 203.359 70.1465 203.359 69.9557C203.359 69.7648 203.51 69.6138 203.701 69.6138H212.082C212.273 69.6138 212.424 69.7648 212.424 69.9557V117.744C212.424 117.935 212.273 118.086 212.082 118.086V118.078Z" fill="#5FCEFF"/>
<path opacity="0.4" d="M193.682 103.67H189.857V107.495H193.682V103.67Z" fill="#5FCEFF"/>
<path opacity="0.4" d="M193.682 109.745H189.857V113.57H193.682V109.745Z" fill="#5FCEFF"/>
<path opacity="0.4" d="M193.682 115.82H189.857V119.645H193.682V115.82Z" fill="#5FCEFF"/>
<path opacity="0.4" d="M199.645 103.67H195.82V107.495H199.645V103.67Z" fill="#5FCEFF"/>
<path opacity="0.4" d="M199.645 109.745H195.82V113.57H199.645V109.745Z" fill="#5FCEFF"/>
<path opacity="0.4" d="M199.645 115.82H195.82V119.645H199.645V115.82Z" fill="#5FCEFF"/>
<path opacity="0.4" d="M205.618 103.67H201.793V107.495H205.618V103.67Z" fill="#5FCEFF"/>
<path opacity="0.4" d="M205.618 109.745H201.793V113.57H205.618V109.745Z" fill="#5FCEFF"/>
<path opacity="0.4" d="M205.618 115.82H201.793V119.645H205.618V115.82Z" fill="#5FCEFF"/>
<path opacity="0.8" d="M199.645 103.67H195.82V107.495H199.645V103.67Z" fill="#5FCEFF"/>
<path opacity="0.8" d="M205.618 109.745H201.793V113.57H205.618V109.745Z" fill="#5FCEFF"/>
</g>
<defs>
<linearGradient id="paint0_linear_2331_8509" x1="-13.3427" y1="118.874" x2="47.0254" y2="118.874" gradientUnits="userSpaceOnUse">
<stop stop-color="#183C77"/>
<stop offset="0.09" stop-color="#11357F"/>
<stop offset="0.25" stop-color="#092F89"/>
<stop offset="0.48" stop-color="#072D8C"/>
<stop offset="0.83" stop-color="#1548A1"/>
<stop offset="1" stop-color="#1E58AD"/>
</linearGradient>
<linearGradient id="paint1_linear_2331_8509" x1="30.1836" y1="118.874" x2="60.3677" y2="118.874" gradientUnits="userSpaceOnUse">
<stop stop-color="#142851"/>
<stop offset="1" stop-color="#102251"/>
</linearGradient>
<linearGradient id="paint2_linear_2331_8509" x1="-0.000960301" y1="112.202" x2="60.3751" y2="112.202" gradientUnits="userSpaceOnUse">
<stop stop-color="#183C77"/>
<stop offset="0.09" stop-color="#11357F"/>
<stop offset="0.25" stop-color="#092F89"/>
<stop offset="0.48" stop-color="#072D8C"/>
<stop offset="0.83" stop-color="#1548A1"/>
<stop offset="1" stop-color="#1E58AD"/>
</linearGradient>
<linearGradient id="paint3_linear_2331_8509" x1="-0.000960301" y1="112.202" x2="30.8113" y2="112.202" gradientUnits="userSpaceOnUse">
<stop stop-color="#42B4E5"/>
<stop offset="0.13" stop-color="#3999CA"/>
<stop offset="0.42" stop-color="#276696"/>
<stop offset="0.67" stop-color="#1A4170"/>
<stop offset="0.87" stop-color="#122A59"/>
<stop offset="1" stop-color="#102251"/>
</linearGradient>
<linearGradient id="paint4_linear_2331_8509" x1="8.21395" y1="129.767" x2="58.746" y2="96.7444" gradientUnits="userSpaceOnUse">
<stop stop-color="#42B4E5"/>
<stop offset="0.13" stop-color="#3999CA"/>
<stop offset="0.42" stop-color="#276696"/>
<stop offset="0.67" stop-color="#1A4170"/>
<stop offset="0.87" stop-color="#122A59"/>
<stop offset="1" stop-color="#102251"/>
</linearGradient>
<linearGradient id="paint5_linear_2331_8509" x1="0" y1="98.9392" x2="0.795154" y2="98.9392" gradientUnits="userSpaceOnUse">
<stop stop-color="#183C77"/>
<stop offset="0.09" stop-color="#11357F"/>
<stop offset="0.25" stop-color="#092F89"/>
<stop offset="0.48" stop-color="#072D8C"/>
<stop offset="0.83" stop-color="#1548A1"/>
<stop offset="1" stop-color="#1E58AD"/>
</linearGradient>
<linearGradient id="paint6_linear_2331_8509" x1="-0.000468357" y1="98.9391" x2="0.794686" y2="98.9391" gradientUnits="userSpaceOnUse">
<stop stop-color="#142851"/>
<stop offset="1" stop-color="#102251"/>
</linearGradient>
<linearGradient id="paint7_linear_2331_8509" x1="-0.000960301" y1="92.2757" x2="60.3751" y2="92.2757" gradientUnits="userSpaceOnUse">
<stop stop-color="#183C77"/>
<stop offset="0.09" stop-color="#11357F"/>
<stop offset="0.25" stop-color="#092F89"/>
<stop offset="0.48" stop-color="#072D8C"/>
<stop offset="0.83" stop-color="#1548A1"/>
<stop offset="1" stop-color="#1E58AD"/>
</linearGradient>
<linearGradient id="paint8_linear_2331_8509" x1="-0.000960301" y1="92.2758" x2="0.794194" y2="92.2758" gradientUnits="userSpaceOnUse">
<stop stop-color="#42B4E5"/>
<stop offset="0.13" stop-color="#3999CA"/>
<stop offset="0.42" stop-color="#276696"/>
<stop offset="0.67" stop-color="#1A4170"/>
<stop offset="0.87" stop-color="#122A59"/>
<stop offset="1" stop-color="#102251"/>
</linearGradient>
<linearGradient id="paint9_linear_2331_8509" x1="8.21395" y1="109.841" x2="58.746" y2="76.81" gradientUnits="userSpaceOnUse">
<stop stop-color="#42B4E5"/>
<stop offset="0.13" stop-color="#3999CA"/>
<stop offset="0.42" stop-color="#276696"/>
<stop offset="0.67" stop-color="#1A4170"/>
<stop offset="0.87" stop-color="#122A59"/>
<stop offset="1" stop-color="#102251"/>
</linearGradient>
<linearGradient id="paint10_linear_2331_8509" x1="0" y1="79.0125" x2="0.795154" y2="79.0125" gradientUnits="userSpaceOnUse">
<stop stop-color="#183C77"/>
<stop offset="0.09" stop-color="#11357F"/>
<stop offset="0.25" stop-color="#092F89"/>
<stop offset="0.48" stop-color="#072D8C"/>
<stop offset="0.83" stop-color="#1548A1"/>
<stop offset="1" stop-color="#1E58AD"/>
</linearGradient>
<linearGradient id="paint11_linear_2331_8509" x1="-0.000468357" y1="79.0124" x2="0.794686" y2="79.0124" gradientUnits="userSpaceOnUse">
<stop stop-color="#142851"/>
<stop offset="1" stop-color="#102251"/>
</linearGradient>
<linearGradient id="paint12_linear_2331_8509" x1="-0.000960301" y1="72.3491" x2="60.3751" y2="72.3491" gradientUnits="userSpaceOnUse">
<stop stop-color="#183C77"/>
<stop offset="0.09" stop-color="#11357F"/>
<stop offset="0.25" stop-color="#092F89"/>
<stop offset="0.48" stop-color="#072D8C"/>
<stop offset="0.83" stop-color="#1548A1"/>
<stop offset="1" stop-color="#1E58AD"/>
</linearGradient>
<linearGradient id="paint13_linear_2331_8509" x1="-0.000960301" y1="72.3491" x2="0.794194" y2="72.3491" gradientUnits="userSpaceOnUse">
<stop stop-color="#42B4E5"/>
<stop offset="0.13" stop-color="#3999CA"/>
<stop offset="0.42" stop-color="#276696"/>
<stop offset="0.67" stop-color="#1A4170"/>
<stop offset="0.87" stop-color="#122A59"/>
<stop offset="1" stop-color="#102251"/>
</linearGradient>
<linearGradient id="paint14_linear_2331_8509" x1="8.21395" y1="89.9141" x2="58.746" y2="56.8833" gradientUnits="userSpaceOnUse">
<stop stop-color="#42B4E5"/>
<stop offset="0.13" stop-color="#3999CA"/>
<stop offset="0.42" stop-color="#276696"/>
<stop offset="0.67" stop-color="#1A4170"/>
<stop offset="0.87" stop-color="#122A59"/>
<stop offset="1" stop-color="#102251"/>
</linearGradient>
<linearGradient id="paint15_linear_2331_8509" x1="290.351" y1="118.826" x2="229.983" y2="118.826" gradientUnits="userSpaceOnUse">
<stop stop-color="#183C77"/>
<stop offset="0.09" stop-color="#11357F"/>
<stop offset="0.25" stop-color="#092F89"/>
<stop offset="0.48" stop-color="#072D8C"/>
<stop offset="0.83" stop-color="#1548A1"/>
<stop offset="1" stop-color="#1E58AD"/>
</linearGradient>
<linearGradient id="paint16_linear_2331_8509" x1="246.816" y1="118.818" x2="216.632" y2="118.818" gradientUnits="userSpaceOnUse">
<stop stop-color="#142851"/>
<stop offset="1" stop-color="#102251"/>
</linearGradient>
<linearGradient id="paint17_linear_2331_8509" x1="216.632" y1="112.155" x2="277" y2="112.155" gradientUnits="userSpaceOnUse">
<stop stop-color="#183C77"/>
<stop offset="0.09" stop-color="#11357F"/>
<stop offset="0.25" stop-color="#092F89"/>
<stop offset="0.48" stop-color="#072D8C"/>
<stop offset="0.83" stop-color="#1548A1"/>
<stop offset="1" stop-color="#1E58AD"/>
</linearGradient>
<linearGradient id="paint18_linear_2331_8509" x1="277" y1="112.155" x2="246.188" y2="112.155" gradientUnits="userSpaceOnUse">
<stop stop-color="#42B4E5"/>
<stop offset="0.13" stop-color="#3999CA"/>
<stop offset="0.42" stop-color="#276696"/>
<stop offset="0.67" stop-color="#1A4170"/>
<stop offset="0.87" stop-color="#122A59"/>
<stop offset="1" stop-color="#102251"/>
</linearGradient>
<linearGradient id="paint19_linear_2331_8509" x1="268.795" y1="129.719" x2="218.263" y2="96.6888" gradientUnits="userSpaceOnUse">
<stop stop-color="#42B4E5"/>
<stop offset="0.13" stop-color="#3999CA"/>
<stop offset="0.42" stop-color="#276696"/>
<stop offset="0.67" stop-color="#1A4170"/>
<stop offset="0.87" stop-color="#122A59"/>
<stop offset="1" stop-color="#102251"/>
</linearGradient>
<linearGradient id="paint20_linear_2331_8509" x1="290.351" y1="98.8914" x2="229.983" y2="98.8914" gradientUnits="userSpaceOnUse">
<stop stop-color="#183C77"/>
<stop offset="0.09" stop-color="#11357F"/>
<stop offset="0.25" stop-color="#092F89"/>
<stop offset="0.48" stop-color="#072D8C"/>
<stop offset="0.83" stop-color="#1548A1"/>
<stop offset="1" stop-color="#1E58AD"/>
</linearGradient>
<linearGradient id="paint21_linear_2331_8509" x1="246.816" y1="98.8913" x2="216.632" y2="98.8913" gradientUnits="userSpaceOnUse">
<stop stop-color="#142851"/>
<stop offset="1" stop-color="#102251"/>
</linearGradient>
<linearGradient id="paint22_linear_2331_8509" x1="216.632" y1="92.228" x2="277" y2="92.228" gradientUnits="userSpaceOnUse">
<stop stop-color="#183C77"/>
<stop offset="0.09" stop-color="#11357F"/>
<stop offset="0.25" stop-color="#092F89"/>
<stop offset="0.48" stop-color="#072D8C"/>
<stop offset="0.83" stop-color="#1548A1"/>
<stop offset="1" stop-color="#1E58AD"/>
</linearGradient>
<linearGradient id="paint23_linear_2331_8509" x1="277" y1="92.228" x2="246.188" y2="92.228" gradientUnits="userSpaceOnUse">
<stop stop-color="#42B4E5"/>
<stop offset="0.13" stop-color="#3999CA"/>
<stop offset="0.42" stop-color="#276696"/>
<stop offset="0.67" stop-color="#1A4170"/>
<stop offset="0.87" stop-color="#122A59"/>
<stop offset="1" stop-color="#102251"/>
</linearGradient>
<linearGradient id="paint24_linear_2331_8509" x1="268.795" y1="109.793" x2="218.263" y2="76.7623" gradientUnits="userSpaceOnUse">
<stop stop-color="#42B4E5"/>
<stop offset="0.13" stop-color="#3999CA"/>
<stop offset="0.42" stop-color="#276696"/>
<stop offset="0.67" stop-color="#1A4170"/>
<stop offset="0.87" stop-color="#122A59"/>
<stop offset="1" stop-color="#102251"/>
</linearGradient>
<linearGradient id="paint25_linear_2331_8509" x1="290.351" y1="78.9648" x2="229.983" y2="78.9648" gradientUnits="userSpaceOnUse">
<stop stop-color="#183C77"/>
<stop offset="0.09" stop-color="#11357F"/>
<stop offset="0.25" stop-color="#092F89"/>
<stop offset="0.48" stop-color="#072D8C"/>
<stop offset="0.83" stop-color="#1548A1"/>
<stop offset="1" stop-color="#1E58AD"/>
</linearGradient>
<linearGradient id="paint26_linear_2331_8509" x1="246.816" y1="78.9648" x2="216.632" y2="78.9648" gradientUnits="userSpaceOnUse">
<stop stop-color="#142851"/>
<stop offset="1" stop-color="#102251"/>
</linearGradient>
<linearGradient id="paint27_linear_2331_8509" x1="216.632" y1="72.2934" x2="277" y2="72.2934" gradientUnits="userSpaceOnUse">
<stop stop-color="#183C77"/>
<stop offset="0.09" stop-color="#11357F"/>
<stop offset="0.25" stop-color="#092F89"/>
<stop offset="0.48" stop-color="#072D8C"/>
<stop offset="0.83" stop-color="#1548A1"/>
<stop offset="1" stop-color="#1E58AD"/>
</linearGradient>
<linearGradient id="paint28_linear_2331_8509" x1="277" y1="72.2935" x2="246.188" y2="72.2935" gradientUnits="userSpaceOnUse">
<stop stop-color="#42B4E5"/>
<stop offset="0.13" stop-color="#3999CA"/>
<stop offset="0.42" stop-color="#276696"/>
<stop offset="0.67" stop-color="#1A4170"/>
<stop offset="0.87" stop-color="#122A59"/>
<stop offset="1" stop-color="#102251"/>
</linearGradient>
<linearGradient id="paint29_linear_2331_8509" x1="268.795" y1="89.8663" x2="218.263" y2="56.8356" gradientUnits="userSpaceOnUse">
<stop stop-color="#42B4E5"/>
<stop offset="0.13" stop-color="#3999CA"/>
<stop offset="0.42" stop-color="#276696"/>
<stop offset="0.67" stop-color="#1A4170"/>
<stop offset="0.87" stop-color="#122A59"/>
<stop offset="1" stop-color="#102251"/>
</linearGradient>
<linearGradient id="paint30_linear_2331_8509" x1="73.846" y1="128.471" x2="164.247" y2="128.471" gradientUnits="userSpaceOnUse">
<stop stop-color="#42B4E5"/>
<stop offset="0.13" stop-color="#3999CA"/>
<stop offset="0.42" stop-color="#276696"/>
<stop offset="0.67" stop-color="#1A4170"/>
<stop offset="0.87" stop-color="#122A59"/>
<stop offset="1" stop-color="#102251"/>
</linearGradient>
<linearGradient id="paint31_linear_2331_8509" x1="139.025" y1="128.471" x2="184.23" y2="128.471" gradientUnits="userSpaceOnUse">
<stop stop-color="#142851"/>
<stop offset="1" stop-color="#102251"/>
</linearGradient>
<linearGradient id="paint32_linear_2331_8509" x1="93.8278" y1="118.484" x2="184.229" y2="118.484" gradientUnits="userSpaceOnUse">
<stop stop-color="#183C77"/>
<stop offset="0.09" stop-color="#11357F"/>
<stop offset="0.25" stop-color="#092F89"/>
<stop offset="0.48" stop-color="#072D8C"/>
<stop offset="0.83" stop-color="#1548A1"/>
<stop offset="1" stop-color="#1E58AD"/>
</linearGradient>
<linearGradient id="paint33_linear_2331_8509" x1="93.828" y1="118.484" x2="139.971" y2="118.484" gradientUnits="userSpaceOnUse">
<stop stop-color="#42B4E5"/>
<stop offset="0.13" stop-color="#3999CA"/>
<stop offset="0.42" stop-color="#276696"/>
<stop offset="0.67" stop-color="#1A4170"/>
<stop offset="0.87" stop-color="#122A59"/>
<stop offset="1" stop-color="#102251"/>
</linearGradient>
<linearGradient id="paint34_linear_2331_8509" x1="106.121" y1="144.788" x2="181.788" y2="95.3292" gradientUnits="userSpaceOnUse">
<stop stop-color="#42B4E5"/>
<stop offset="0.13" stop-color="#3999CA"/>
<stop offset="0.42" stop-color="#276696"/>
<stop offset="0.67" stop-color="#1A4170"/>
<stop offset="0.87" stop-color="#122A59"/>
<stop offset="1" stop-color="#102251"/>
</linearGradient>
<linearGradient id="paint35_linear_2331_8509" x1="73.846" y1="58.084" x2="164.247" y2="58.084" gradientUnits="userSpaceOnUse">
<stop stop-color="#42B4E5"/>
<stop offset="0.13" stop-color="#3999CA"/>
<stop offset="0.42" stop-color="#276696"/>
<stop offset="0.67" stop-color="#1A4170"/>
<stop offset="0.87" stop-color="#122A59"/>
<stop offset="1" stop-color="#102251"/>
</linearGradient>
<linearGradient id="paint36_linear_2331_8509" x1="139.025" y1="58.0841" x2="184.23" y2="58.0841" gradientUnits="userSpaceOnUse">
<stop stop-color="#142851"/>
<stop offset="1" stop-color="#102251"/>
</linearGradient>
<linearGradient id="paint37_linear_2331_8509" x1="93.8278" y1="48.0969" x2="184.229" y2="48.0969" gradientUnits="userSpaceOnUse">
<stop stop-color="#183C77"/>
<stop offset="0.09" stop-color="#11357F"/>
<stop offset="0.25" stop-color="#092F89"/>
<stop offset="0.48" stop-color="#072D8C"/>
<stop offset="0.83" stop-color="#1548A1"/>
<stop offset="1" stop-color="#1E58AD"/>
</linearGradient>
<linearGradient id="paint38_linear_2331_8509" x1="93.828" y1="48.097" x2="139.971" y2="48.097" gradientUnits="userSpaceOnUse">
<stop stop-color="#42B4E5"/>
<stop offset="0.13" stop-color="#3999CA"/>
<stop offset="0.42" stop-color="#276696"/>
<stop offset="0.67" stop-color="#1A4170"/>
<stop offset="0.87" stop-color="#122A59"/>
<stop offset="1" stop-color="#102251"/>
</linearGradient>
<linearGradient id="paint39_linear_2331_8509" x1="106.121" y1="74.4006" x2="181.788" y2="24.942" gradientUnits="userSpaceOnUse">
<stop stop-color="#42B4E5"/>
<stop offset="0.13" stop-color="#3999CA"/>
<stop offset="0.42" stop-color="#276696"/>
<stop offset="0.67" stop-color="#1A4170"/>
<stop offset="0.87" stop-color="#122A59"/>
<stop offset="1" stop-color="#102251"/>
</linearGradient>
<clipPath id="clip0_2331_8509">
<rect width="277" height="136.671" fill="white" transform="translate(0 22)"/>
</clipPath>
</defs>
</svg>
