<svg width="277" height="180" viewBox="0 0 277 180" fill="none" xmlns="http://www.w3.org/2000/svg">
<g clip-path="url(#clip0_2331_8511)">
<path opacity="0.8" d="M142.555 141.11L178.295 120.527C180.834 119.062 180.519 116.507 177.583 114.815L143.267 95.0524C140.331 93.3609 135.897 93.1779 133.35 94.6423L97.61 115.225C95.0703 116.69 95.3859 119.245 98.322 120.937L132.638 140.7C135.574 142.391 140.008 142.574 142.555 141.11Z" fill="#080B28"/>
<path d="M138.305 146.821C135.934 146.821 133.431 146.25 131.485 145.13L91.0624 121.845C89.1099 120.725 87.9941 119.201 87.9941 117.678C87.9941 116.39 88.7869 115.218 90.2256 114.391L132.33 90.1464C135.434 88.3597 140.866 88.5794 144.434 90.6297L184.857 113.915C186.809 115.035 187.925 116.558 187.925 118.081C187.925 119.37 187.132 120.541 185.694 121.369L143.597 145.613C142.188 146.426 140.294 146.821 138.312 146.821H138.305ZM137.607 89.7656C135.779 89.7656 134.047 90.1317 132.748 90.8786L90.644 115.123C89.4769 115.797 88.8309 116.705 88.8383 117.678C88.8383 118.894 89.7999 120.146 91.4881 121.12L131.911 144.405C135.244 146.323 140.294 146.543 143.164 144.888L185.26 120.644C186.428 119.97 187.073 119.062 187.073 118.088C187.073 116.873 186.112 115.621 184.424 114.647L144.001 91.3619C142.173 90.3075 139.824 89.7656 137.607 89.7656Z" fill="url(#paint0_linear_2331_8511)"/>
<path d="M95.9004 26.2223H113.627L133.358 14.858C135.898 13.3936 140.339 13.5766 143.275 15.2681L162.293 26.2223H180.006V77.3836C180.079 78.3721 179.521 79.3313 178.303 80.0343L142.563 100.617C140.023 102.082 135.582 101.899 132.646 100.207L98.33 80.4443C96.8032 79.5656 95.9958 78.4526 95.9151 77.3836H95.9004V26.2223Z" fill="url(#paint1_linear_2331_8511)"/>
<path d="M98.33 79.6242L132.646 99.3872C135.582 101.079 140.016 101.262 142.563 99.7973L178.303 79.2142C179.521 78.5112 180.079 77.552 180.006 76.5635V77.3836C180.079 78.3721 179.521 79.3313 178.303 80.0343L142.563 100.617C140.023 102.082 135.582 101.899 132.646 100.207L98.33 80.4443C96.8032 79.5656 95.9958 78.4526 95.9151 77.3836H95.9004V76.5635H95.9151C95.9958 77.6325 96.8032 78.7455 98.33 79.6242Z" fill="url(#paint2_linear_2331_8511)"/>
<path d="M178.875 78.1964V27.0424H161.163L142.144 16.0882C139.208 14.3967 134.774 14.2137 132.227 15.6781L112.496 27.0424H95.8926V26.2223H113.619L133.35 14.858C135.89 13.3936 140.331 13.5766 143.267 15.2681L162.286 26.2223H179.998V77.3836C180.071 78.3721 179.513 79.3313 178.295 80.0343L178.097 80.1514C178.669 79.5656 178.933 78.892 178.882 78.2037L178.875 78.1964Z" fill="#0E61E5"/>
<path d="M96.906 27.1742V78.2769H96.9207C96.9647 78.8847 97.251 79.4997 97.7648 80.0855C96.6051 79.2727 95.9811 78.3135 95.9151 77.3836H95.9004V26.3395C96.2674 26.5738 96.6051 26.8447 96.906 27.1669V27.1742Z" fill="#6EE8FC"/>
<path d="M142.555 49.4561L178.295 28.873C180.834 27.4086 180.519 24.8531 177.583 23.1616L143.267 3.39857C140.331 1.70711 135.897 1.52405 133.35 2.98852L97.61 23.5716C95.0703 25.0361 95.3859 27.5916 98.322 29.2831L132.638 49.0461C135.574 50.7376 140.008 50.9206 142.555 49.4561Z" fill="url(#paint3_linear_2331_8511)"/>
<path d="M97.6178 23.5717L133.358 2.98862C134.672 2.22709 136.499 1.91955 138.364 2.02207C137.013 2.10261 135.743 2.41747 134.76 2.98862L99.0198 23.5717C96.4801 25.0362 96.7957 27.5917 99.7319 29.2832L134.048 49.0462C135.464 49.859 137.226 50.3203 138.958 50.4228C136.815 50.5546 134.451 50.086 132.646 49.0462L98.3299 29.2832C95.3937 27.5917 95.0781 25.0362 97.6178 23.5717Z" fill="#6EE8FC"/>
<path d="M141.381 43.5177L167.989 28.1921C169.883 27.101 169.641 25.1972 167.461 23.9378L141.917 9.22718C139.729 7.96773 136.426 7.83593 134.532 8.91964L107.924 24.2453C106.03 25.3363 106.272 27.2402 108.452 28.4996L133.996 43.2102C136.184 44.4696 139.487 44.6014 141.381 43.5177Z" fill="url(#paint4_linear_2331_8511)"/>
<path d="M140.433 38.7509L159.708 27.6502C161.081 26.8594 160.905 25.4828 159.327 24.5675L140.814 13.9062C139.229 12.9982 136.836 12.8957 135.471 13.6865L116.195 24.7872C114.822 25.578 114.999 26.9546 116.577 27.8699L135.089 38.5312C136.675 39.4392 139.067 39.5417 140.44 38.7509H140.433Z" fill="#6DE0F6"/>
<path d="M140.954 49.4561L176.694 28.873C179.234 27.4086 178.918 24.8531 175.982 23.1616L141.666 3.39857C140.271 2.59312 138.539 2.13913 136.836 2.02929C139.016 1.87553 141.438 2.34416 143.273 3.39857L177.589 23.1616C180.525 24.8531 180.841 27.4086 178.301 28.873L142.561 49.4561C141.225 50.225 139.368 50.5325 137.482 50.4154C138.788 50.3202 140.007 50.0053 140.961 49.4561H140.954Z" fill="#0E61E5"/>
<mask id="mask0_2331_8511" style="mask-type:luminance" maskUnits="userSpaceOnUse" x="115" y="13" width="46" height="27">
<path d="M140.433 38.7509L159.708 27.6502C161.081 26.8594 160.905 25.4828 159.327 24.5675L140.814 13.9062C139.229 12.9982 136.836 12.8957 135.471 13.6865L116.195 24.7872C114.822 25.578 114.999 26.9546 116.577 27.8699L135.089 38.5312C136.675 39.4392 139.067 39.5417 140.44 38.7509H140.433Z" fill="white"/>
</mask>
<g mask="url(#mask0_2331_8511)">
<path d="M159.334 26.0762L140.822 15.4148C139.237 14.4995 136.844 14.4043 135.471 15.1951L116.188 26.3031C115.887 26.4789 115.667 26.6839 115.513 26.9109C115.05 26.1567 115.249 25.3439 116.188 24.8021L135.471 13.6941C136.844 12.9032 139.237 13.0058 140.822 13.9137L159.334 24.5751C160.568 25.2853 160.935 26.2739 160.391 27.05C160.179 26.6986 159.834 26.3617 159.334 26.0762Z" fill="#267FE5"/>
<path d="M159.333 27.8845L140.821 17.2232C139.236 16.3079 136.843 16.2127 135.47 17.0035L116.187 28.1115C115.945 28.2507 115.769 28.4118 115.622 28.5802C115.013 27.782 115.174 26.8814 116.187 26.2956L135.47 15.1876C136.843 14.3968 139.236 14.4993 140.821 15.4073L159.333 26.0686C160.64 26.8228 160.97 27.8845 160.28 28.6827C160.06 28.3971 159.752 28.1262 159.333 27.8845Z" fill="#25BFEC"/>
<path d="M160.097 30.689C159.891 30.4766 159.649 30.2716 159.333 30.0959L140.821 19.4345C139.236 18.5192 136.843 18.424 135.47 19.2149L116.187 30.3229C116.04 30.4034 115.923 30.4986 115.813 30.5938C114.998 29.7517 115.093 28.7412 116.187 28.1115L135.47 17.0035C136.843 16.2127 139.236 16.3152 140.821 17.2232L159.333 27.8845C160.75 28.6973 161.029 29.8835 160.097 30.689Z" fill="#18D0F7"/>
</g>
<path d="M125.628 87.1443L127.61 88.2866C128.116 88.5795 128.535 88.2719 128.535 87.5909V59.9784C128.535 59.2974 128.124 58.5139 127.61 58.221L125.628 57.0787C125.122 56.7858 124.703 57.0934 124.703 57.7743V85.3869C124.703 86.0679 125.114 86.8514 125.628 87.1443Z" fill="#6DE0F6"/>
<path d="M125.628 57.0787L126.105 57.3496V84.457C126.105 85.138 126.516 85.9215 127.03 86.2143L128.535 87.0784V87.5763C128.535 88.2573 128.124 88.5648 127.61 88.2719L125.628 87.1296C125.122 86.8367 124.703 86.0459 124.703 85.3723V57.7597C124.703 57.0787 125.114 56.7712 125.628 57.0641V57.0787Z" fill="#267FE5"/>
<path d="M118.331 82.9412L120.313 84.0834C120.819 84.3763 121.238 84.0688 121.238 83.3878V55.7752C121.238 55.0943 120.827 54.3108 120.313 54.0179L118.331 52.8756C117.825 52.5827 117.406 52.8902 117.406 53.5712V81.1838C117.406 81.8648 117.817 82.6483 118.331 82.9412Z" fill="#6DE0F6"/>
<path d="M111.026 78.7308L113.008 79.8731C113.522 80.166 113.933 79.8585 113.933 79.1775V51.5649C113.933 50.8839 113.522 50.1004 113.008 49.8076L111.026 48.6653C110.52 48.3724 110.102 48.6799 110.102 49.3609V76.9735C110.102 77.6545 110.513 78.4379 111.026 78.7308Z" fill="#6DE0F6"/>
<path d="M103.724 74.528L105.706 75.6702C106.212 75.9631 106.63 75.6556 106.63 74.9746V47.362C106.63 46.6811 106.219 45.8976 105.706 45.6047L103.724 44.4624C103.21 44.1695 102.799 44.477 102.799 45.158V72.7706C102.799 73.4516 103.21 74.2351 103.724 74.528Z" fill="#6DE0F6"/>
<path d="M118.331 52.8756L118.808 53.1465V80.2539C118.808 80.9348 119.219 81.7183 119.733 82.0112L121.238 82.8753V83.3732C121.238 84.0542 120.827 84.3617 120.313 84.0688L118.331 82.9265C117.825 82.6336 117.406 81.8428 117.406 81.1691V53.5566C117.406 52.8756 117.817 52.5681 118.331 52.8609V52.8756Z" fill="#267FE5"/>
<path d="M111.026 48.6653L111.504 48.9362V76.0435C111.504 76.7245 111.915 77.508 112.428 77.8009L113.933 78.6649V79.1628C113.933 79.8438 113.522 80.1514 113.008 79.8585L111.026 78.7162C110.52 78.4233 110.102 77.6325 110.102 76.9588V49.3462C110.102 48.6653 110.513 48.3577 111.026 48.6506V48.6653Z" fill="#267FE5"/>
<path d="M103.724 44.4623L104.201 44.7332V71.8405C104.201 72.5215 104.612 73.305 105.126 73.5979L106.63 74.4619V74.9598C106.63 75.6408 106.219 75.9484 105.706 75.6555L103.724 74.5132C103.217 74.2203 102.799 73.4295 102.799 72.7558V45.1432C102.799 44.4623 103.21 44.1547 103.724 44.4476V44.4623Z" fill="#267FE5"/>
<path d="M145.506 90.5345C145.323 90.5345 145.147 90.4906 144.985 90.3954C144.574 90.1538 144.332 89.6339 144.332 88.9676V59.7514C144.332 58.5798 145.029 57.2545 145.932 56.7346L171.741 41.8702C172.181 41.6139 172.629 41.5846 172.989 41.797C173.4 42.0386 173.642 42.5512 173.642 43.2248V72.441C173.642 73.6199 172.945 74.9379 172.049 75.4578L146.241 90.3222C145.991 90.4613 145.749 90.5345 145.514 90.5345H145.506ZM172.46 42.2656C172.313 42.2656 172.159 42.3315 172.042 42.3974L146.233 57.2618C145.536 57.6645 144.941 58.8068 144.941 59.7514V88.9676C144.941 89.4069 145.073 89.7437 145.294 89.8682C145.499 89.9854 145.756 89.8975 145.932 89.795L171.741 74.9306C172.438 74.5279 173.033 73.3856 173.033 72.441V43.2248C173.033 42.7855 172.9 42.4487 172.688 42.3242C172.614 42.2876 172.541 42.2656 172.467 42.2656H172.46Z" fill="#0A2356"/>
<path d="M168.592 48.9511C168.592 49.7493 169.157 50.0715 169.847 49.676C170.544 49.2733 171.102 48.3068 171.102 47.5086C171.102 46.7105 170.537 46.3883 169.847 46.7837C169.15 47.1864 168.592 48.153 168.592 48.9511Z" fill="#6DE0F6"/>
<path d="M168.592 53.0149C168.592 53.813 169.157 54.1352 169.847 53.7398C170.544 53.337 171.102 52.3705 171.102 51.5723C171.102 50.7742 170.537 50.452 169.847 50.8474C169.15 51.2502 168.592 52.2167 168.592 53.0149Z" fill="#6DE0F6"/>
<path d="M168.592 57.0787C168.592 57.8768 169.157 58.199 169.847 57.8036C170.544 57.4009 171.102 56.4343 171.102 55.6362C171.102 54.8381 170.537 54.5159 169.847 54.9113C169.15 55.314 168.592 56.2806 168.592 57.0787Z" fill="#6DE0F6"/>
<path d="M169.216 57.3057C169.913 56.903 170.471 55.9365 170.471 55.1383C170.471 54.9919 170.449 54.8601 170.412 54.7429C170.823 54.7429 171.102 55.0651 171.102 55.6289C171.102 56.4271 170.537 57.4009 169.847 57.7963C169.282 58.1185 168.812 57.9648 168.65 57.4668C168.819 57.4668 169.01 57.4229 169.216 57.3057Z" fill="#267FE5"/>
<path d="M169.216 53.2419C169.913 52.8392 170.471 51.8726 170.471 51.0745C170.471 50.9207 170.449 50.7962 170.412 50.6791C170.823 50.6791 171.102 51.0013 171.102 51.5651C171.102 52.3632 170.537 53.3371 169.847 53.7325C169.282 54.0547 168.812 53.9009 168.65 53.403C168.819 53.403 169.01 53.3591 169.216 53.2419Z" fill="#267FE5"/>
<path d="M169.216 49.1706C169.913 48.7679 170.471 47.8013 170.471 47.0032C170.471 46.8567 170.449 46.7249 170.412 46.6078C170.823 46.6078 171.102 46.93 171.102 47.4938C171.102 48.2919 170.537 49.2658 169.847 49.6612C169.282 49.9834 168.812 49.8296 168.65 49.3317C168.819 49.3317 169.01 49.2878 169.216 49.1706Z" fill="#267FE5"/>
<path d="M147.825 75.9484L148.655 75.4725C148.912 75.326 149.124 74.9233 149.124 74.5792V70.5958C149.124 70.2516 148.912 70.0905 148.655 70.2443L147.825 70.7203C147.568 70.8667 147.355 71.2694 147.355 71.6136V75.597C147.355 75.9411 147.568 76.1022 147.825 75.9484Z" fill="#0A2356"/>
<path d="M157.867 64.6207H175.594L195.325 53.2565C197.864 51.792 202.305 51.9751 205.241 53.6665L224.26 64.6207H241.972V115.782C242.046 116.771 241.488 117.73 240.269 118.433L204.529 139.016C201.99 140.48 197.549 140.297 194.613 138.606L160.297 118.843C158.77 117.964 157.963 116.851 157.882 115.782H157.867V64.6207Z" fill="url(#paint5_linear_2331_8511)"/>
<path d="M160.289 118.023L194.605 137.786C197.541 139.477 201.975 139.66 204.522 138.196L240.262 117.613C241.48 116.91 242.038 115.95 241.965 114.962V115.782C242.038 116.771 241.48 117.73 240.262 118.433L204.522 139.016C201.982 140.48 197.541 140.297 194.605 138.606L160.289 118.843C158.762 117.964 157.955 116.851 157.874 115.782H157.859V114.962H157.874C157.955 116.031 158.762 117.144 160.289 118.023Z" fill="url(#paint6_linear_2331_8511)"/>
<path d="M240.841 116.595V65.4335H223.129L204.111 54.4793C201.174 52.7878 196.741 52.6048 194.194 54.0692L174.463 65.4335H157.859V64.6134H175.586L195.317 53.2491C197.857 51.7847 202.298 51.9677 205.234 53.6592L224.252 64.6134H241.965V115.775C242.038 116.763 241.48 117.722 240.262 118.425L240.063 118.543C240.636 117.957 240.9 117.283 240.849 116.595H240.841Z" fill="#0E61E5"/>
<path d="M158.873 65.5727V116.675H158.887C158.932 117.283 159.218 117.898 159.732 118.484C158.572 117.671 157.948 116.712 157.882 115.782H157.867V64.7452C158.234 64.9796 158.572 65.2505 158.873 65.5727Z" fill="#6EE8FC"/>
<path d="M204.521 87.8546L240.261 67.2715C242.801 65.807 242.486 63.2515 239.549 61.56L205.233 41.797C202.297 40.1055 197.864 39.9225 195.317 41.387L159.577 61.9701C157.037 63.4346 157.353 65.99 160.289 67.6815L194.605 87.4445C197.541 89.136 201.974 89.3191 204.521 87.8546Z" fill="url(#paint7_linear_2331_8511)"/>
<path d="M159.577 61.9702L195.317 41.3871C196.631 40.6255 198.458 40.318 200.323 40.4205C198.972 40.501 197.702 40.8159 196.719 41.3871L160.979 61.9702C158.439 63.4347 158.755 65.9901 161.691 67.6816L196.007 87.4446C197.423 88.2574 199.185 88.7187 200.917 88.8212C198.774 88.953 196.41 88.4844 194.605 87.4446L160.289 67.6816C157.353 65.9901 157.037 63.4347 159.577 61.9702Z" fill="#6EE8FC"/>
<path d="M203.347 81.9162L229.956 66.5905C231.85 65.4995 231.608 63.5957 229.428 62.3362L203.883 47.6256C201.696 46.3662 198.393 46.2344 196.499 47.3181L169.89 62.6438C167.997 63.7348 168.239 65.6386 170.419 66.898L195.963 81.6086C198.151 82.8681 201.454 82.9999 203.347 81.9162Z" fill="url(#paint8_linear_2331_8511)"/>
<path d="M202.4 77.1493L221.675 66.0487C223.048 65.2578 222.872 63.8812 221.293 62.9659L202.789 52.3046C201.203 51.3966 198.81 51.2941 197.438 52.0849L178.162 63.1856C176.789 63.9764 176.965 65.353 178.544 66.2683L197.048 76.9297C198.634 77.8376 201.027 77.9401 202.4 77.1493Z" fill="#6DE0F6"/>
<path d="M202.915 87.8546L238.655 67.2715C241.194 65.807 240.879 63.2515 237.943 61.56L203.627 41.797C202.232 40.9916 200.5 40.5376 198.797 40.4277C200.977 40.274 203.399 40.7426 205.234 41.797L239.55 61.56C242.486 63.2515 242.802 65.807 240.262 67.2715L204.522 87.8546C203.186 88.6234 201.329 88.931 199.443 88.8138C200.749 88.7186 201.968 88.4038 202.922 87.8546H202.915Z" fill="#0E61E5"/>
<mask id="mask1_2331_8511" style="mask-type:luminance" maskUnits="userSpaceOnUse" x="177" y="51" width="46" height="27">
<path d="M202.4 77.1493L221.675 66.0487C223.048 65.2578 222.872 63.8812 221.293 62.9659L202.789 52.3046C201.203 51.3966 198.81 51.2941 197.438 52.0849L178.162 63.1856C176.789 63.9764 176.965 65.353 178.544 66.2683L197.048 76.9297C198.634 77.8376 201.027 77.9401 202.4 77.1493Z" fill="white"/>
</mask>
<g mask="url(#mask1_2331_8511)">
<path d="M221.301 64.467L202.789 53.8057C201.204 52.8904 198.811 52.7952 197.438 53.586L178.155 64.694C177.854 64.8698 177.634 65.0748 177.48 65.3018C177.017 64.5476 177.215 63.7348 178.155 63.1929L197.438 52.0849C198.811 51.2941 201.204 51.3966 202.789 52.3046L221.301 62.9659C222.534 63.6762 222.901 64.6647 222.358 65.4409C222.145 65.0894 221.8 64.7526 221.301 64.467Z" fill="#267FE5"/>
<path d="M221.3 66.283L202.788 55.6216C201.203 54.7064 198.81 54.6112 197.437 55.402L178.154 66.51C177.912 66.6491 177.736 66.8102 177.589 66.9786C176.98 66.1805 177.141 65.2798 178.154 64.694L197.437 53.586C198.81 52.7952 201.203 52.8977 202.788 53.8057L221.3 64.467C222.607 65.2212 222.937 66.283 222.247 67.0811C222.027 66.7955 221.719 66.5246 221.3 66.283Z" fill="#25BFEC"/>
<path d="M222.064 69.0874C221.858 68.8751 221.616 68.67 221.3 68.4943L202.788 57.833C201.202 56.9177 198.81 56.8225 197.437 57.6133L178.154 68.7213C178.007 68.8018 177.89 68.897 177.78 68.9922C176.965 68.1428 177.06 67.1397 178.154 66.5099L197.437 55.4019C198.81 54.6111 201.202 54.7136 202.788 55.6216L221.3 66.283C222.717 67.0957 222.996 68.282 222.064 69.0874Z" fill="#18D0F7"/>
</g>
<path d="M187.595 125.543L189.577 126.685C190.083 126.978 190.502 126.67 190.502 125.989V98.3768C190.502 97.6958 190.091 96.9123 189.577 96.6194L187.595 95.4772C187.081 95.1843 186.67 95.4918 186.67 96.1728V123.785C186.67 124.466 187.081 125.25 187.595 125.543Z" fill="#6DE0F6"/>
<path d="M187.595 95.4772L188.072 95.7481V122.855C188.072 123.536 188.483 124.32 188.997 124.613L190.502 125.477V125.975C190.502 126.656 190.091 126.963 189.577 126.67L187.595 125.528C187.088 125.235 186.67 124.444 186.67 123.771V96.1581C186.67 95.4772 187.081 95.1696 187.595 95.4625V95.4772Z" fill="#267FE5"/>
<path d="M180.29 121.34L182.272 122.482C182.778 122.775 183.197 122.467 183.197 121.786V94.1737C183.197 93.4927 182.786 92.7092 182.272 92.4163L180.29 91.274C179.784 90.9811 179.365 91.2887 179.365 91.9697V119.582C179.365 120.263 179.776 121.047 180.29 121.34Z" fill="#6DE0F6"/>
<path d="M172.993 117.129L174.975 118.272C175.482 118.564 175.9 118.257 175.9 117.576V89.9634C175.9 89.2824 175.489 88.4989 174.975 88.206L172.993 87.0637C172.487 86.7708 172.068 87.0784 172.068 87.7593V115.372C172.068 116.053 172.479 116.836 172.993 117.129Z" fill="#6DE0F6"/>
<path d="M165.69 112.926L167.672 114.069C168.179 114.362 168.597 114.054 168.597 113.373V85.7605C168.597 85.0795 168.186 84.296 167.672 84.0031L165.69 82.8608C165.184 82.5679 164.766 82.8755 164.766 83.5564V111.169C164.766 111.85 165.177 112.634 165.69 112.926Z" fill="#6DE0F6"/>
<path d="M180.29 91.2667L180.767 91.5376V118.645C180.767 119.326 181.178 120.109 181.692 120.402L183.197 121.266V121.764C183.197 122.445 182.786 122.753 182.272 122.46L180.29 121.318C179.784 121.025 179.365 120.234 179.365 119.56V91.9477C179.365 91.2667 179.776 90.9592 180.29 91.2521V91.2667Z" fill="#267FE5"/>
<path d="M172.993 87.0637L173.47 87.3346V114.442C173.47 115.123 173.881 115.906 174.395 116.199L175.9 117.063V117.561C175.9 118.242 175.489 118.55 174.975 118.257L172.993 117.115C172.479 116.822 172.068 116.031 172.068 115.357V87.7447C172.068 87.0637 172.479 86.7562 172.993 87.0491V87.0637Z" fill="#267FE5"/>
<path d="M165.69 82.8607L166.168 83.1316V110.239C166.168 110.92 166.579 111.703 167.092 111.996L168.597 112.86V113.358C168.597 114.039 168.186 114.347 167.672 114.054L165.69 112.912C165.184 112.619 164.766 111.828 164.766 111.154V83.5417C164.766 82.8607 165.177 82.5532 165.69 82.8461V82.8607Z" fill="#267FE5"/>
<path d="M207.465 128.933C207.282 128.933 207.106 128.889 206.944 128.794C206.533 128.552 206.291 128.032 206.291 127.366V98.1498C206.291 96.9709 206.988 95.6456 207.891 95.133L233.7 80.2686C234.147 80.0124 234.588 79.9831 234.948 80.1954C235.359 80.4371 235.601 80.9569 235.601 81.6233V110.839C235.601 112.011 234.904 113.336 234.001 113.856L208.192 128.721C207.943 128.86 207.7 128.933 207.465 128.933ZM234.426 80.6567C234.28 80.6567 234.125 80.7226 234.008 80.7885L208.199 95.6529C207.502 96.0556 206.908 97.1979 206.908 98.1425V127.359C206.908 127.798 207.04 128.135 207.253 128.259C207.465 128.376 207.722 128.281 207.899 128.186L233.707 113.322C234.404 112.919 234.999 111.777 234.999 110.832V81.616C234.999 81.1766 234.867 80.8398 234.647 80.7153C234.573 80.6714 234.5 80.6567 234.426 80.6567Z" fill="#0A2356"/>
<path d="M230.559 87.342C230.559 88.1401 231.124 88.4623 231.814 88.0669C232.511 87.6642 233.069 86.6976 233.069 85.8995C233.069 85.1014 232.504 84.7792 231.814 85.1746C231.116 85.5773 230.559 86.5439 230.559 87.342Z" fill="#6DE0F6"/>
<path d="M230.559 91.4132C230.559 92.2113 231.124 92.5335 231.814 92.1381C232.511 91.7354 233.069 90.7688 233.069 89.9707C233.069 89.1725 232.504 88.8503 231.814 89.2458C231.116 89.6485 230.559 90.615 230.559 91.4132Z" fill="#6DE0F6"/>
<path d="M230.559 95.4771C230.559 96.2753 231.124 96.5975 231.814 96.202C232.511 95.7993 233.069 94.8328 233.069 94.0346C233.069 93.2365 232.504 92.9143 231.814 93.3097C231.116 93.7124 230.559 94.679 230.559 95.4771Z" fill="#6DE0F6"/>
<path d="M231.182 95.7042C231.88 95.3015 232.438 94.3349 232.438 93.5368C232.438 93.3903 232.416 93.2585 232.379 93.1414C232.79 93.1414 233.069 93.4635 233.069 94.0274C233.069 94.8255 232.504 95.7994 231.814 96.1948C231.248 96.517 230.779 96.3632 230.617 95.8653C230.786 95.8653 230.977 95.8213 231.182 95.7042Z" fill="#267FE5"/>
<path d="M231.182 91.6329C231.88 91.2302 232.438 90.2636 232.438 89.4655C232.438 89.3117 232.416 89.1872 232.379 89.0701C232.79 89.0701 233.069 89.3923 233.069 89.9561C233.069 90.7542 232.504 91.7281 231.814 92.1235C231.248 92.4457 230.779 92.2919 230.617 91.794C230.786 91.794 230.977 91.75 231.182 91.6329Z" fill="#267FE5"/>
<path d="M231.182 87.569C231.88 87.1663 232.438 86.1998 232.438 85.4016C232.438 85.2552 232.416 85.1234 232.379 85.0062C232.79 85.0062 233.069 85.3284 233.069 85.8922C233.069 86.6904 232.504 87.6642 231.814 88.0596C231.248 88.3818 230.779 88.2281 230.617 87.7301C230.786 87.7301 230.977 87.6862 231.182 87.569Z" fill="#267FE5"/>
<path d="M209.792 114.347L210.622 113.871C210.878 113.724 211.091 113.322 211.091 112.978V108.994C211.091 108.65 210.878 108.489 210.622 108.643L209.792 109.119C209.535 109.265 209.322 109.668 209.322 110.012V113.995C209.322 114.34 209.535 114.501 209.792 114.347Z" fill="#0A2356"/>
<path d="M35.0273 64.2254H52.7542L72.4849 52.8611C75.0246 51.3966 79.4655 51.5797 82.4016 53.2711L101.42 64.2254H119.132V115.387C119.206 116.375 118.648 117.334 117.43 118.037L81.6896 138.62C79.1499 140.085 74.709 139.902 71.7729 138.21L37.457 118.44C35.9302 117.561 35.1228 116.448 35.042 115.379H35.0273V64.218V64.2254Z" fill="url(#paint9_linear_2331_8511)"/>
<path d="M37.457 117.627L71.7729 137.39C74.709 139.082 79.1425 139.265 81.6896 137.8L117.43 117.217C118.648 116.514 119.206 115.555 119.132 114.567V115.387C119.206 116.375 118.648 117.334 117.43 118.037L81.6896 138.62C79.1499 140.085 74.709 139.902 71.7729 138.21L37.457 118.44C35.9302 117.561 35.1228 116.448 35.042 115.379H35.0273V114.559H35.042C35.1228 115.628 35.9302 116.741 37.457 117.62V117.627Z" fill="url(#paint10_linear_2331_8511)"/>
<path d="M118.009 116.199V65.0381H100.297L81.2786 54.0839C78.3424 52.3924 73.9089 52.2094 71.3618 53.6739L51.6311 65.0381H35.0273V64.218H52.7542L72.4849 52.8538C75.0246 51.3893 79.4655 51.5723 82.4016 53.2638L101.42 64.218H119.132V115.379C119.206 116.368 118.648 117.327 117.43 118.03L117.231 118.147C117.804 117.561 118.068 116.888 118.017 116.199H118.009Z" fill="#0E61E5"/>
<path d="M36.033 65.1773V116.28H36.0476C36.0917 116.888 36.378 117.503 36.8918 118.089C35.732 117.276 35.1081 116.317 35.042 115.387H35.0273V64.3499C35.3944 64.5842 35.732 64.8551 36.033 65.1773Z" fill="#6EE8FC"/>
<path d="M81.6821 87.4592L117.422 66.8761C119.962 65.4116 119.646 62.8561 116.71 61.1646L82.3941 41.4016C79.458 39.7102 75.0245 39.5271 72.4774 40.9916L36.7448 61.5747C34.2051 63.0392 34.5207 65.5947 37.4568 67.2861L71.7727 87.0492C74.7088 88.7406 79.1424 88.9237 81.6894 87.4592H81.6821Z" fill="url(#paint11_linear_2331_8511)"/>
<path d="M36.7448 61.5748L72.4847 40.9917C73.7986 40.2301 75.6264 39.9226 77.4908 40.0251C76.1402 40.1057 74.8703 40.4205 73.8867 40.9917L38.1395 61.5748C35.5997 63.0393 35.9153 65.5948 38.8515 67.2862L73.1674 87.0492C74.584 87.862 76.3457 88.3233 78.078 88.4258C75.9347 88.5577 73.5711 88.089 71.7654 87.0492L37.4568 67.2862C34.5207 65.5948 34.2051 63.0393 36.7448 61.5748Z" fill="#6EE8FC"/>
<path d="M80.5076 81.5208L107.116 66.1951C109.01 65.1041 108.768 63.2003 106.588 61.9408L81.0435 47.2302C78.8561 45.9708 75.5529 45.839 73.6591 46.9227L47.0505 62.2484C45.1567 63.3394 45.399 65.2432 47.579 66.5027L73.1233 81.2133C75.3107 82.4727 78.6138 82.6045 80.5076 81.5208Z" fill="url(#paint12_linear_2331_8511)"/>
<path d="M79.5617 76.7539L98.8373 65.6533C100.21 64.8625 100.034 63.4858 98.4556 62.5706L79.9434 51.9092C78.3579 51.0012 75.9649 50.8987 74.5996 51.6895L55.324 62.7902C53.9514 63.581 54.1275 64.9576 55.7057 65.8729L74.2179 76.5343C75.8034 77.4422 78.1964 77.5448 79.569 76.7539H79.5617Z" fill="#6DE0F6"/>
<path d="M80.0828 87.4592L115.823 66.8761C118.362 65.4116 118.047 62.8561 115.111 61.1647L80.7948 41.4016C79.4001 40.5962 77.6678 40.1422 75.9648 40.0323C78.1449 39.8786 80.5672 40.3472 82.4023 41.4016L116.718 61.1647C119.654 62.8561 119.97 65.4116 117.43 66.8761L81.6903 87.4592C80.3543 88.2281 78.4972 88.5356 76.6108 88.4184C77.9174 88.3232 79.1359 88.0084 80.0901 87.4592H80.0828Z" fill="#0E61E5"/>
<mask id="mask2_2331_8511" style="mask-type:luminance" maskUnits="userSpaceOnUse" x="54" y="51" width="46" height="27">
<path d="M79.5617 76.7539L98.8373 65.6533C100.21 64.8625 100.034 63.4858 98.4556 62.5706L79.9434 51.9092C78.3579 51.0012 75.9649 50.8987 74.5996 51.6895L55.324 62.7902C53.9514 63.581 54.1275 64.9576 55.7057 65.8729L74.2179 76.5343C75.8034 77.4422 78.1964 77.5448 79.569 76.7539H79.5617Z" fill="white"/>
</mask>
<g mask="url(#mask2_2331_8511)">
<path d="M98.4634 64.0716L79.9511 53.4103C78.3656 52.495 75.9727 52.3998 74.6 53.1906L55.3171 64.2986C55.0161 64.4744 54.7959 64.6794 54.6418 64.9064C54.1793 64.1522 54.3775 63.3394 55.3171 62.7975L74.6 51.6895C75.9727 50.8987 78.3656 51.0012 79.9511 51.9092L98.4634 62.5706C99.6965 63.2808 100.064 64.2693 99.5204 65.0455C99.3075 64.694 98.9625 64.3572 98.4634 64.0716Z" fill="#267FE5"/>
<path d="M98.4624 65.8876L79.9501 55.2263C78.3646 54.311 75.9717 54.2158 74.5991 55.0066L55.3161 66.1146C55.0739 66.2537 54.8977 66.4148 54.7509 66.5832C54.1416 65.7851 54.3031 64.8844 55.3161 64.2986L74.5991 53.1906C75.9717 52.3998 78.3646 52.5023 79.9501 53.4103L98.4624 64.0717C99.7689 64.8259 100.099 65.8876 99.4093 66.6857C99.1891 66.4002 98.8808 66.1292 98.4624 65.8876Z" fill="#25BFEC"/>
<path d="M99.2257 68.692C99.0202 68.4797 98.778 68.2747 98.4623 68.0989L79.9501 57.4376C78.3646 56.5223 75.9717 56.4271 74.599 57.2179L55.3161 68.3259C55.1693 68.4065 55.0518 68.5016 54.9417 68.5968C54.1269 67.7474 54.2224 66.7443 55.3161 66.1146L74.599 55.0066C75.9717 54.2157 78.3646 54.3183 79.9501 55.2262L98.4623 65.8876C99.879 66.7004 100.158 67.8866 99.2257 68.692Z" fill="#18D0F7"/>
</g>
<path d="M64.7628 125.147L66.7446 126.29C67.2511 126.583 67.6695 126.275 67.6695 125.594V97.9814C67.6695 97.3004 67.2585 96.5169 66.7446 96.224L64.7628 95.0818C64.2489 94.7889 63.8379 95.0964 63.8379 95.7774V123.39C63.8379 124.071 64.2489 124.854 64.7628 125.147Z" fill="#6DE0F6"/>
<path d="M64.7628 95.0818L65.2399 95.3527V122.46C65.2399 123.141 65.6509 123.925 66.1648 124.217L67.6695 125.081V125.579C67.6695 126.26 67.2585 126.568 66.7446 126.275L64.7628 125.133C64.2563 124.84 63.8379 124.049 63.8379 123.375V95.7627C63.8379 95.0818 64.2489 94.7742 64.7628 95.0671V95.0818Z" fill="#267FE5"/>
<path d="M57.46 120.944L59.4419 122.086C59.9484 122.379 60.3668 122.072 60.3668 121.391V93.7783C60.3668 93.0973 59.9557 92.3138 59.4419 92.0209L57.46 90.8786C56.9536 90.5858 56.5352 90.8933 56.5352 91.5743V119.187C56.5352 119.868 56.9462 120.651 57.46 120.944Z" fill="#6DE0F6"/>
<path d="M50.1553 116.734L52.1372 117.876C52.6437 118.169 53.0621 117.862 53.0621 117.181V89.568C53.0621 88.887 52.651 88.1035 52.1372 87.8106L50.1553 86.6683C49.6489 86.3754 49.2305 86.683 49.2305 87.3639V114.977C49.2305 115.657 49.6415 116.441 50.1553 116.734Z" fill="#6DE0F6"/>
<path d="M42.8526 112.531L44.8345 113.673C45.3483 113.966 45.7594 113.659 45.7594 112.978V85.3651C45.7594 84.6841 45.3483 83.9006 44.8345 83.6077L42.8526 82.4654C42.3461 82.1725 41.9277 82.4801 41.9277 83.1611V110.774C41.9277 111.455 42.3388 112.238 42.8526 112.531Z" fill="#6DE0F6"/>
<path d="M57.46 90.8713L57.9372 91.1422V118.25C57.9372 118.931 58.3482 119.714 58.862 120.007L60.3668 120.871V121.369C60.3668 122.05 59.9557 122.357 59.4419 122.065L57.46 120.922C56.9536 120.629 56.5352 119.839 56.5352 119.165V91.5523C56.5352 90.8713 56.9462 90.5638 57.46 90.8567V90.8713Z" fill="#267FE5"/>
<path d="M50.1553 86.6683L50.6325 86.9392V114.047C50.6325 114.728 51.0435 115.511 51.5573 115.804L53.0621 116.668V117.166C53.0621 117.847 52.651 118.154 52.1372 117.862L50.1553 116.719C49.6489 116.426 49.2305 115.636 49.2305 114.962V87.3493C49.2305 86.6683 49.6415 86.3608 50.1553 86.6537V86.6683Z" fill="#267FE5"/>
<path d="M42.8526 82.4653L43.3297 82.7362V109.844C43.3297 110.525 43.7408 111.308 44.2546 111.601L45.7594 112.465V112.963C45.7594 113.644 45.3483 113.951 44.8345 113.659L42.8526 112.516C42.3461 112.223 41.9277 111.433 41.9277 110.759V83.1463C41.9277 82.4653 42.3388 82.1578 42.8526 82.4507V82.4653Z" fill="#267FE5"/>
<path d="M84.6334 128.538C84.4499 128.538 84.2738 128.494 84.1123 128.398C83.7012 128.157 83.459 127.637 83.459 126.971V97.7544C83.459 96.5755 84.1563 95.2575 85.0592 94.7376L110.868 79.8733C111.315 79.617 111.756 79.5877 112.116 79.8C112.527 80.0417 112.769 80.5616 112.769 81.2279V110.444C112.769 111.616 112.071 112.941 111.169 113.461L85.3601 128.325C85.1105 128.464 84.8683 128.538 84.6334 128.538ZM111.587 80.2687C111.44 80.2687 111.286 80.3346 111.169 80.4005L85.3601 95.2648C84.6628 95.6676 84.0682 96.8099 84.0682 97.7544V126.971C84.0682 127.41 84.2004 127.747 84.4132 127.871C84.6261 127.996 84.883 127.893 85.0592 127.798L110.868 112.934C111.565 112.531 112.16 111.389 112.16 110.444V81.2279C112.16 80.7886 112.027 80.4517 111.807 80.3272C111.734 80.2906 111.66 80.2687 111.587 80.2687Z" fill="#0A2356"/>
<path d="M107.719 86.9466C107.719 87.7448 108.284 88.0669 108.974 87.6715C109.671 87.2688 110.229 86.3022 110.229 85.5041C110.229 84.706 109.664 84.3838 108.974 84.7792C108.277 85.1819 107.719 86.1485 107.719 86.9466Z" fill="#6DE0F6"/>
<path d="M107.719 91.0178C107.719 91.8159 108.284 92.1381 108.974 91.7427C109.671 91.34 110.229 90.3734 110.229 89.5753C110.229 88.7771 109.664 88.455 108.974 88.8504C108.277 89.2531 107.719 90.2196 107.719 91.0178Z" fill="#6DE0F6"/>
<path d="M107.719 95.0817C107.719 95.8799 108.284 96.2021 108.974 95.8067C109.671 95.4039 110.229 94.4374 110.229 93.6392C110.229 92.8411 109.664 92.5189 108.974 92.9143C108.277 93.3171 107.719 94.2836 107.719 95.0817Z" fill="#6DE0F6"/>
<path d="M108.343 95.3088C109.04 94.9061 109.598 93.9395 109.598 93.1414C109.598 92.9949 109.576 92.8631 109.539 92.746C109.95 92.746 110.229 93.0682 110.229 93.632C110.229 94.4301 109.664 95.404 108.974 95.7994C108.409 96.1216 107.939 95.9678 107.777 95.4699C107.946 95.4699 108.137 95.426 108.343 95.3088Z" fill="#267FE5"/>
<path d="M108.343 91.2375C109.04 90.8348 109.598 89.8682 109.598 89.0701C109.598 88.9163 109.576 88.7918 109.539 88.6747C109.95 88.6747 110.229 88.9969 110.229 89.5607C110.229 90.3588 109.664 91.3327 108.974 91.7281C108.409 92.0503 107.939 91.8965 107.777 91.3986C107.946 91.3986 108.137 91.3547 108.343 91.2375Z" fill="#267FE5"/>
<path d="M108.343 87.1737C109.04 86.7709 109.598 85.8044 109.598 85.0062C109.598 84.8598 109.576 84.728 109.539 84.6108C109.95 84.6108 110.229 84.933 110.229 85.4968C110.229 86.295 109.664 87.2689 108.974 87.6643C108.409 87.9864 107.939 87.8327 107.777 87.3348C107.946 87.3348 108.137 87.2908 108.343 87.1737Z" fill="#267FE5"/>
<path d="M86.9522 113.951L87.7817 113.476C88.0386 113.329 88.2514 112.926 88.2514 112.582V108.599C88.2514 108.255 88.0386 108.094 87.7817 108.247L86.9522 108.723C86.6953 108.87 86.4824 109.272 86.4824 109.617V113.6C86.4824 113.944 86.6953 114.105 86.9522 113.951Z" fill="#0A2356"/>
<path d="M96.9941 102.616H114.721L134.452 91.2521C136.991 89.7876 141.432 89.9707 144.368 91.6621L163.387 102.616H181.099V153.778C181.173 154.766 180.615 155.725 179.396 156.428L143.656 177.011C141.117 178.476 136.676 178.293 133.74 176.601L99.4238 156.838C97.897 155.96 97.0896 154.847 97.0088 153.778H96.9941V102.616Z" fill="url(#paint13_linear_2331_8511)"/>
<path d="M99.4238 156.018L133.74 175.781C136.676 177.473 141.109 177.656 143.656 176.191L179.396 155.608C180.615 154.905 181.173 153.946 181.099 152.958V153.778C181.173 154.766 180.615 155.725 179.396 156.428L143.656 177.011C141.117 178.476 136.676 178.293 133.74 176.601L99.4238 156.838C97.897 155.96 97.0896 154.847 97.0088 153.778H96.9941V152.958H97.0088C97.0896 154.027 97.897 155.14 99.4238 156.018Z" fill="url(#paint14_linear_2331_8511)"/>
<path d="M179.968 154.598V103.436H162.256L143.238 92.4822C140.301 90.7908 135.868 90.6077 133.321 92.0722L113.59 103.436H96.9863V102.616H114.713L134.444 91.2521C136.984 89.7876 141.424 89.9707 144.361 91.6621L163.379 102.616H181.091V153.778C181.165 154.766 180.607 155.725 179.389 156.428L179.19 156.545C179.763 155.96 180.027 155.286 179.976 154.598H179.968Z" fill="#0E61E5"/>
<path d="M97.9998 103.568V154.671H98.0144C98.0585 155.279 98.3448 155.894 98.8586 156.48C97.6988 155.667 97.0749 154.708 97.0088 153.778H96.9941V102.741C97.3612 102.975 97.6988 103.246 97.9998 103.568Z" fill="#6EE8FC"/>
<path d="M143.648 125.85L179.388 105.267C181.928 103.803 181.612 101.247 178.676 99.5556L144.36 79.7926C141.424 78.1011 136.991 77.9181 134.444 79.3826L98.7038 99.9657C96.164 101.43 96.4797 103.986 99.4158 105.677L133.732 125.44C136.668 127.132 141.101 127.315 143.648 125.85Z" fill="url(#paint15_linear_2331_8511)"/>
<path d="M98.7116 99.9734L134.452 79.3902C135.765 78.6287 137.593 78.3212 139.458 78.4237C138.107 78.5042 136.837 78.8191 135.854 79.3902L100.114 99.9734C97.5738 101.438 97.8895 103.993 100.826 105.685L135.141 125.448C136.558 126.261 138.32 126.722 140.052 126.824C137.909 126.956 135.545 126.488 133.739 125.448L99.4236 105.685C96.4875 103.993 96.1718 101.438 98.7116 99.9734Z" fill="#6EE8FC"/>
<path d="M142.474 119.919L169.083 104.593C170.977 103.502 170.735 101.599 168.555 100.339L143.01 85.6285C140.823 84.3691 137.52 84.2373 135.626 85.321L109.017 100.647C107.124 101.738 107.366 103.642 109.546 104.901L135.09 119.612C137.277 120.871 140.581 121.003 142.474 119.919Z" fill="url(#paint16_linear_2331_8511)"/>
<path d="M141.528 115.152L160.804 104.052C162.176 103.261 162 101.884 160.422 100.969L141.91 90.3075C140.324 89.3996 137.931 89.297 136.559 90.0879L117.283 101.189C115.91 101.979 116.087 103.356 117.665 104.271L136.177 114.933C137.762 115.841 140.155 115.943 141.521 115.152H141.528Z" fill="#6DE0F6"/>
<path d="M142.048 125.85L177.788 105.267C180.327 103.803 180.012 101.247 177.076 99.5556L142.76 79.7926C141.365 78.9872 139.633 78.5332 137.93 78.4233C140.11 78.2696 142.532 78.7382 144.367 79.7926L178.683 99.5556C181.619 101.247 181.935 103.803 179.395 105.267L143.655 125.85C142.319 126.619 140.462 126.927 138.576 126.809C139.882 126.714 141.101 126.399 142.055 125.85H142.048Z" fill="#0E61E5"/>
<mask id="mask3_2331_8511" style="mask-type:luminance" maskUnits="userSpaceOnUse" x="116" y="89" width="46" height="27">
<path d="M141.528 115.152L160.804 104.052C162.176 103.261 162 101.884 160.422 100.969L141.91 90.3075C140.324 89.3996 137.931 89.297 136.559 90.0879L117.283 101.189C115.91 101.979 116.087 103.356 117.665 104.271L136.177 114.933C137.762 115.841 140.155 115.943 141.521 115.152H141.528Z" fill="white"/>
</mask>
<g mask="url(#mask3_2331_8511)">
<path d="M160.428 102.47L141.916 91.8086C140.33 90.8933 137.938 90.7981 136.565 91.5889L117.282 102.697C116.981 102.873 116.761 103.078 116.607 103.305C116.144 102.551 116.342 101.738 117.282 101.196L136.565 90.0879C137.938 89.297 140.33 89.3996 141.916 90.3075L160.428 100.969C161.661 101.679 162.028 102.668 161.485 103.444C161.272 103.092 160.927 102.756 160.428 102.47Z" fill="#267FE5"/>
<path d="M160.429 104.286L141.917 93.6246C140.331 92.7093 137.938 92.6141 136.566 93.4049L117.283 104.513C117.041 104.652 116.864 104.813 116.718 104.982C116.108 104.183 116.27 103.283 117.283 102.697L136.566 91.589C137.938 90.7981 140.331 90.9007 141.917 91.8086L160.429 102.47C161.736 103.224 162.066 104.286 161.376 105.084C161.156 104.798 160.848 104.528 160.429 104.286Z" fill="#25BFEC"/>
<path d="M161.193 107.09C160.987 106.878 160.745 106.68 160.429 106.497L141.917 95.8359C140.331 94.9206 137.938 94.8254 136.566 95.6162L117.283 106.724C117.136 106.805 117.019 106.9 116.909 106.995C116.094 106.146 116.189 105.143 117.283 104.513L136.566 93.4049C137.938 92.6141 140.331 92.7166 141.917 93.6245L160.429 104.286C161.846 105.099 162.125 106.285 161.193 107.09Z" fill="#18D0F7"/>
</g>
<path d="M126.722 163.546L128.704 164.688C129.217 164.981 129.629 164.673 129.629 163.992V136.38C129.629 135.699 129.217 134.915 128.704 134.622L126.722 133.48C126.215 133.187 125.797 133.495 125.797 134.176V161.788C125.797 162.469 126.208 163.253 126.722 163.546Z" fill="#6DE0F6"/>
<path d="M126.722 133.48L127.199 133.751V160.858C127.199 161.539 127.61 162.323 128.124 162.616L129.629 163.48V163.978C129.629 164.659 129.217 164.966 128.704 164.673L126.722 163.531C126.215 163.238 125.797 162.447 125.797 161.774V134.161C125.797 133.48 126.208 133.173 126.722 133.465V133.48Z" fill="#267FE5"/>
<path d="M119.425 159.335L121.407 160.477C121.913 160.77 122.332 160.463 122.332 159.782V132.169C122.332 131.488 121.921 130.705 121.407 130.412L119.425 129.27C118.911 128.977 118.5 129.284 118.5 129.965V157.578C118.5 158.259 118.911 159.042 119.425 159.335Z" fill="#6DE0F6"/>
<path d="M112.12 155.132L114.102 156.274C114.609 156.567 115.027 156.26 115.027 155.579V127.966C115.027 127.285 114.616 126.502 114.102 126.209L112.12 125.067C111.614 124.774 111.195 125.081 111.195 125.762V153.375C111.195 154.056 111.606 154.839 112.12 155.132Z" fill="#6DE0F6"/>
<path d="M104.817 150.929L106.799 152.071C107.306 152.364 107.724 152.057 107.724 151.376V123.763C107.724 123.082 107.313 122.299 106.799 122.006L104.817 120.864C104.311 120.571 103.893 120.878 103.893 121.559V149.172C103.893 149.853 104.304 150.636 104.817 150.929Z" fill="#6DE0F6"/>
<path d="M119.425 129.27L119.902 129.541V156.648C119.902 157.329 120.313 158.112 120.827 158.405L122.332 159.269V159.767C122.332 160.448 121.921 160.756 121.407 160.463L119.425 159.321C118.918 159.028 118.5 158.237 118.5 157.563V129.951C118.5 129.27 118.911 128.962 119.425 129.255V129.27Z" fill="#267FE5"/>
<path d="M112.12 125.067L112.597 125.338V152.445C112.597 153.126 113.008 153.909 113.522 154.202L115.027 155.066V155.564C115.027 156.245 114.616 156.553 114.102 156.26L112.12 155.118C111.614 154.825 111.195 154.034 111.195 153.36V125.748C111.195 125.067 111.606 124.759 112.12 125.052V125.067Z" fill="#267FE5"/>
<path d="M104.817 120.856L105.295 121.127V148.235C105.295 148.916 105.706 149.699 106.219 149.992L107.724 150.856V151.354C107.724 152.035 107.313 152.342 106.799 152.05L104.817 150.907C104.311 150.614 103.893 149.824 103.893 149.15V121.537C103.893 120.856 104.304 120.549 104.817 120.842V120.856Z" fill="#267FE5"/>
<path d="M146.6 166.936C146.417 166.936 146.241 166.892 146.079 166.797C145.668 166.555 145.426 166.035 145.426 165.369V136.153C145.426 134.974 146.123 133.656 147.026 133.136L172.834 118.272C173.282 118.015 173.723 117.986 174.082 118.198C174.493 118.44 174.736 118.96 174.736 119.626V148.842C174.736 150.021 174.038 151.347 173.135 151.859L147.327 166.724C147.077 166.863 146.835 166.936 146.6 166.936ZM173.554 118.66C173.4 118.66 173.253 118.726 173.135 118.791L147.327 133.656C146.63 134.059 146.035 135.201 146.035 136.145V165.362C146.035 165.801 146.167 166.138 146.387 166.262C146.593 166.379 146.85 166.292 147.026 166.189L172.834 151.325C173.532 150.922 174.126 149.78 174.126 148.835V119.619C174.126 119.18 173.994 118.843 173.781 118.718C173.708 118.682 173.635 118.66 173.561 118.66H173.554Z" fill="#0A2356"/>
<path d="M169.686 125.345C169.686 126.143 170.251 126.465 170.941 126.07C171.638 125.667 172.196 124.701 172.196 123.902C172.196 123.104 171.631 122.782 170.941 123.178C170.243 123.58 169.686 124.547 169.686 125.345Z" fill="#6DE0F6"/>
<path d="M169.686 129.409C169.686 130.207 170.251 130.529 170.941 130.134C171.638 129.731 172.196 128.764 172.196 127.966C172.196 127.168 171.631 126.846 170.941 127.241C170.243 127.644 169.686 128.611 169.686 129.409Z" fill="#6DE0F6"/>
<path d="M169.686 133.48C169.686 134.278 170.251 134.6 170.941 134.205C171.638 133.802 172.196 132.836 172.196 132.038C172.196 131.239 171.631 130.917 170.941 131.313C170.243 131.715 169.686 132.682 169.686 133.48Z" fill="#6DE0F6"/>
<path d="M170.309 133.707C171.007 133.304 171.565 132.338 171.565 131.54C171.565 131.386 171.543 131.261 171.506 131.144C171.917 131.144 172.196 131.466 172.196 132.03C172.196 132.828 171.631 133.802 170.941 134.198C170.375 134.52 169.906 134.366 169.744 133.868C169.913 133.868 170.104 133.824 170.309 133.707Z" fill="#267FE5"/>
<path d="M170.309 129.636C171.007 129.233 171.565 128.267 171.565 127.468C171.565 127.322 171.543 127.19 171.506 127.073C171.917 127.073 172.196 127.395 172.196 127.959C172.196 128.757 171.631 129.731 170.941 130.126C170.375 130.449 169.906 130.295 169.744 129.797C169.913 129.797 170.104 129.753 170.309 129.636Z" fill="#267FE5"/>
<path d="M170.309 125.572C171.007 125.169 171.565 124.203 171.565 123.404C171.565 123.251 171.543 123.126 171.506 123.009C171.917 123.009 172.196 123.331 172.196 123.895C172.196 124.693 171.631 125.667 170.941 126.062C170.375 126.385 169.906 126.231 169.744 125.733C169.913 125.733 170.104 125.689 170.309 125.572Z" fill="#267FE5"/>
<path d="M148.919 152.35L149.748 151.874C150.005 151.727 150.218 151.325 150.218 150.98V146.997C150.218 146.653 150.005 146.492 149.748 146.646L148.919 147.122C148.662 147.268 148.449 147.671 148.449 148.015V151.998C148.449 152.342 148.662 152.503 148.919 152.35Z" fill="#0A2356"/>
<path style="mix-blend-mode:lighten" opacity="0.2" d="M116.365 6.32019H161.699V102.726C161.699 103.224 161.398 103.7 160.774 104.059L141.513 115.152C140.14 115.943 137.755 115.841 136.169 114.933L117.672 104.279C116.85 103.803 116.417 103.21 116.373 102.631V6.32019H116.365Z" fill="url(#paint17_linear_2331_8511)"/>
<path style="mix-blend-mode:lighten" opacity="0.25" d="M118.516 15.5098H159.548V102.763C159.548 103.217 159.269 103.649 158.711 103.971L141.278 114.01C140.037 114.72 137.872 114.632 136.441 113.812L119.705 104.169C118.963 103.744 118.567 103.202 118.53 102.675V15.5098H118.516Z" fill="url(#paint18_linear_2331_8511)"/>
</g>
<defs>
<linearGradient id="paint0_linear_2331_8511" x1="187.918" y1="117.883" x2="87.9941" y2="117.883" gradientUnits="userSpaceOnUse">
<stop stop-color="#0E61E5"/>
<stop offset="0.23" stop-color="#0E61E5"/>
<stop offset="0.51" stop-color="#6EE1F8"/>
<stop offset="0.78" stop-color="#6EE8FC"/>
<stop offset="1" stop-color="#6EE8FC"/>
</linearGradient>
<linearGradient id="paint1_linear_2331_8511" x1="187.962" y1="57.7377" x2="85.4918" y2="57.7377" gradientUnits="userSpaceOnUse">
<stop stop-color="#183C77"/>
<stop offset="0.09" stop-color="#11357F"/>
<stop offset="0.25" stop-color="#092F89"/>
<stop offset="0.48" stop-color="#072D8C"/>
<stop offset="0.83" stop-color="#1548A1"/>
<stop offset="1" stop-color="#1E58AD"/>
</linearGradient>
<linearGradient id="paint2_linear_2331_8511" x1="187.962" y1="89.0847" x2="85.4918" y2="89.0847" gradientUnits="userSpaceOnUse">
<stop stop-color="#0E61E5"/>
<stop offset="0.23" stop-color="#0E61E5"/>
<stop offset="0.51" stop-color="#6EE1F8"/>
<stop offset="0.78" stop-color="#6EE8FC"/>
<stop offset="1" stop-color="#6EE8FC"/>
</linearGradient>
<linearGradient id="paint3_linear_2331_8511" x1="512.55" y1="-164.891" x2="449.77" y2="-177.003" gradientUnits="userSpaceOnUse">
<stop stop-color="#1A4AAA"/>
<stop offset="0.25" stop-color="#1C50B2"/>
<stop offset="0.64" stop-color="#2263C9"/>
<stop offset="1" stop-color="#2979E4"/>
</linearGradient>
<linearGradient id="paint4_linear_2331_8511" x1="504.36" y1="-166.464" x2="457.623" y2="-175.484" gradientUnits="userSpaceOnUse">
<stop stop-color="#0A2F8C"/>
<stop offset="0.83" stop-color="#123388"/>
<stop offset="1" stop-color="#153587"/>
</linearGradient>
<linearGradient id="paint5_linear_2331_8511" x1="249.929" y1="96.1288" x2="147.459" y2="96.1288" gradientUnits="userSpaceOnUse">
<stop stop-color="#183C77"/>
<stop offset="0.09" stop-color="#11357F"/>
<stop offset="0.25" stop-color="#092F89"/>
<stop offset="0.48" stop-color="#072D8C"/>
<stop offset="0.83" stop-color="#1548A1"/>
<stop offset="1" stop-color="#1E58AD"/>
</linearGradient>
<linearGradient id="paint6_linear_2331_8511" x1="249.929" y1="127.476" x2="147.458" y2="127.476" gradientUnits="userSpaceOnUse">
<stop stop-color="#0E61E5"/>
<stop offset="0.23" stop-color="#0E61E5"/>
<stop offset="0.51" stop-color="#6EE1F8"/>
<stop offset="0.78" stop-color="#6EE8FC"/>
<stop offset="1" stop-color="#6EE8FC"/>
</linearGradient>
<linearGradient id="paint7_linear_2331_8511" x1="542.362" y1="-107.977" x2="479.582" y2="-120.09" gradientUnits="userSpaceOnUse">
<stop stop-color="#1A4AAA"/>
<stop offset="0.25" stop-color="#1C50B2"/>
<stop offset="0.64" stop-color="#2263C9"/>
<stop offset="1" stop-color="#2979E4"/>
</linearGradient>
<linearGradient id="paint8_linear_2331_8511" x1="534.172" y1="-109.55" x2="487.429" y2="-118.567" gradientUnits="userSpaceOnUse">
<stop stop-color="#0A2F8C"/>
<stop offset="0.83" stop-color="#123388"/>
<stop offset="1" stop-color="#153587"/>
</linearGradient>
<linearGradient id="paint9_linear_2331_8511" x1="127.089" y1="95.7408" x2="24.6188" y2="95.7408" gradientUnits="userSpaceOnUse">
<stop stop-color="#183C77"/>
<stop offset="0.09" stop-color="#11357F"/>
<stop offset="0.25" stop-color="#092F89"/>
<stop offset="0.48" stop-color="#072D8C"/>
<stop offset="0.83" stop-color="#1548A1"/>
<stop offset="1" stop-color="#1E58AD"/>
</linearGradient>
<linearGradient id="paint10_linear_2331_8511" x1="127.089" y1="127.08" x2="24.6188" y2="127.08" gradientUnits="userSpaceOnUse">
<stop stop-color="#0E61E5"/>
<stop offset="0.23" stop-color="#0E61E5"/>
<stop offset="0.51" stop-color="#6EE1F8"/>
<stop offset="0.78" stop-color="#6EE8FC"/>
<stop offset="1" stop-color="#6EE8FC"/>
</linearGradient>
<linearGradient id="paint11_linear_2331_8511" x1="450.399" y1="-126.153" x2="387.619" y2="-138.265" gradientUnits="userSpaceOnUse">
<stop stop-color="#1A4AAA"/>
<stop offset="0.25" stop-color="#1C50B2"/>
<stop offset="0.64" stop-color="#2263C9"/>
<stop offset="1" stop-color="#2979E4"/>
</linearGradient>
<linearGradient id="paint12_linear_2331_8511" x1="442.208" y1="-127.726" x2="395.471" y2="-136.746" gradientUnits="userSpaceOnUse">
<stop stop-color="#0A2F8C"/>
<stop offset="0.83" stop-color="#123388"/>
<stop offset="1" stop-color="#153587"/>
</linearGradient>
<linearGradient id="paint13_linear_2331_8511" x1="189.056" y1="134.132" x2="86.5856" y2="134.132" gradientUnits="userSpaceOnUse">
<stop stop-color="#183C77"/>
<stop offset="0.09" stop-color="#11357F"/>
<stop offset="0.25" stop-color="#092F89"/>
<stop offset="0.48" stop-color="#072D8C"/>
<stop offset="0.83" stop-color="#1548A1"/>
<stop offset="1" stop-color="#1E58AD"/>
</linearGradient>
<linearGradient id="paint14_linear_2331_8511" x1="189.056" y1="165.479" x2="86.5856" y2="165.479" gradientUnits="userSpaceOnUse">
<stop stop-color="#0E61E5"/>
<stop offset="0.23" stop-color="#0E61E5"/>
<stop offset="0.51" stop-color="#6EE1F8"/>
<stop offset="0.78" stop-color="#6EE8FC"/>
<stop offset="1" stop-color="#6EE8FC"/>
</linearGradient>
<linearGradient id="paint15_linear_2331_8511" x1="480.211" y1="-69.2388" x2="417.431" y2="-81.3517" gradientUnits="userSpaceOnUse">
<stop stop-color="#1A4AAA"/>
<stop offset="0.25" stop-color="#1C50B2"/>
<stop offset="0.64" stop-color="#2263C9"/>
<stop offset="1" stop-color="#2979E4"/>
</linearGradient>
<linearGradient id="paint16_linear_2331_8511" x1="472.02" y1="-70.8118" x2="425.277" y2="-79.8289" gradientUnits="userSpaceOnUse">
<stop stop-color="#0A2F8C"/>
<stop offset="0.83" stop-color="#123388"/>
<stop offset="1" stop-color="#153587"/>
</linearGradient>
<linearGradient id="paint17_linear_2331_8511" x1="139.032" y1="115.687" x2="139.032" y2="6.32019" gradientUnits="userSpaceOnUse">
<stop offset="0.01" stop-color="#25BFEC"/>
<stop offset="0.04" stop-color="#23B5E1" stop-opacity="0.9025"/>
<stop offset="0.19" stop-color="#1D8AB1" stop-opacity="0.49"/>
<stop offset="0.34" stop-color="#176587" stop-opacity="0.2401"/>
<stop offset="0.48" stop-color="#134665" stop-opacity="0.0961"/>
<stop offset="0.62" stop-color="#0F2E4A" stop-opacity="0.0324"/>
<stop offset="0.76" stop-color="#0D1D37" stop-opacity="0.01"/>
<stop offset="0.89" stop-color="#0B132B" stop-opacity="0.01"/>
<stop offset="1" stop-color="#0B1028" stop-opacity="0"/>
</linearGradient>
<linearGradient id="paint18_linear_2331_8511" x1="139.032" y1="114.493" x2="139.032" y2="15.5098" gradientUnits="userSpaceOnUse">
<stop offset="0.01" stop-color="#70E8FC"/>
<stop offset="0.15" stop-color="#57B4C9"/>
<stop offset="0.3" stop-color="#408298"/>
<stop offset="0.46" stop-color="#2D5970"/>
<stop offset="0.61" stop-color="#1E3950"/>
<stop offset="0.75" stop-color="#13223A"/>
<stop offset="0.88" stop-color="#0D142C"/>
<stop offset="1" stop-color="#0B1028"/>
</linearGradient>
<clipPath id="clip0_2331_8511">
<rect width="206.945" height="176" fill="white" transform="translate(35.0273 2)"/>
</clipPath>
</defs>
</svg>
