<svg width="277" height="180" viewBox="0 0 277 180" fill="none" xmlns="http://www.w3.org/2000/svg">
<g clip-path="url(#clip0_2331_8510)">
<path d="M78.3105 56.6533H89.2335L101.393 49.6353C102.955 48.735 105.688 48.8435 107.5 49.8848L119.215 56.6533H130.127V88.2507C130.17 88.8582 129.834 89.4547 129.075 89.8886L107.055 102.601C105.493 103.502 102.76 103.393 100.948 102.352L79.8074 90.149C78.8637 89.6066 78.3648 88.9232 78.3214 88.2616V56.6642L78.3105 56.6533Z" fill="url(#paint0_linear_2331_8510)"/>
<path d="M79.8083 89.6391L100.949 101.842C102.761 102.883 105.494 103.003 107.056 102.091L129.076 89.3787C129.824 88.9449 130.171 88.3591 130.128 87.7408V88.2507C130.171 88.8581 129.835 89.4547 129.076 89.8886L107.056 102.601C105.494 103.502 102.761 103.393 100.949 102.352L79.8083 90.1489C78.8646 89.6065 78.3657 88.9232 78.3223 88.2615V87.7517C78.3657 88.4134 78.8755 89.0967 79.8083 89.6391Z" fill="url(#paint1_linear_2331_8510)"/>
<path d="M129.444 88.7496V57.1522H118.532L106.817 50.3836C105.006 49.3423 102.273 49.223 100.711 50.1341L88.551 57.1522H78.3223V56.6423H89.2452L101.405 49.6243C102.967 48.724 105.7 48.8325 107.512 49.8738L119.226 56.6423H130.139V88.2397C130.182 88.8472 129.846 89.4438 129.086 89.8776L128.967 89.9536C129.325 89.5956 129.477 89.1726 129.455 88.7496H129.444Z" fill="#0E61E5"/>
<path d="M78.9288 57.2393V88.8042C78.9614 89.1838 79.1349 89.5635 79.4495 89.9214C78.7336 89.4224 78.3539 88.8259 78.3105 88.251V56.7295C78.5383 56.8705 78.7444 57.0441 78.9288 57.2393Z" fill="#6EE8FC"/>
<path d="M107.055 71.0041L129.074 58.2913C130.636 57.391 130.441 55.8074 128.641 54.766L107.5 42.5631C105.688 41.5218 102.955 41.4025 101.393 42.3137L79.3734 55.0264C77.8114 55.9267 78.0067 57.5103 79.8073 58.5517L100.948 70.7546C102.76 71.7959 105.493 71.9152 107.055 71.0041Z" fill="url(#paint2_linear_2331_8510)"/>
<path d="M79.3737 55.0156L101.393 42.3029C102.207 41.8364 103.324 41.6412 104.474 41.7063C103.638 41.7605 102.857 41.9558 102.25 42.3029L80.2306 55.0156C78.6686 55.9159 78.8638 57.4996 80.6645 58.5409L101.805 70.7438C102.673 71.2427 103.769 71.5356 104.832 71.5898C103.508 71.6658 102.055 71.3838 100.948 70.7438L79.8075 58.5409C77.9961 57.4996 77.8008 55.9159 79.3737 55.0156Z" fill="#6EE8FC"/>
<path d="M106.34 67.3376L122.73 57.8681C123.89 57.1956 123.749 56.0241 122.404 55.2432L106.665 46.1534C105.32 45.3724 103.281 45.2964 102.12 45.9689L85.7304 55.4384C84.5697 56.1109 84.7107 57.2824 86.0558 58.0634L101.795 67.1532C103.14 67.9342 105.179 68.0101 106.34 67.3376Z" fill="url(#paint3_linear_2331_8510)"/>
<path d="M105.753 64.3875L117.63 57.5322C118.476 57.044 118.368 56.198 117.392 55.6339L105.991 49.0498C105.015 48.4857 103.54 48.4206 102.694 48.9088L90.8163 55.7641C89.9703 56.2522 90.0787 57.0983 91.055 57.6623L102.455 64.2465C103.431 64.8105 104.907 64.8756 105.753 64.3875Z" fill="#6DE0F6"/>
<path d="M106.068 71.0041L128.088 58.2914C129.65 57.3911 129.455 55.8074 127.654 54.7661L106.513 42.5632C105.656 42.0642 104.582 41.7822 103.541 41.7171C104.886 41.6195 106.372 41.9123 107.511 42.5632L128.652 54.7661C130.463 55.8074 130.659 57.3911 129.086 58.2914L107.066 71.0041C106.242 71.4813 105.103 71.6657 103.932 71.6007C104.734 71.5464 105.483 71.3512 106.079 71.0041H106.068Z" fill="#0E61E5"/>
<mask id="mask0_2331_8510" style="mask-type:luminance" maskUnits="userSpaceOnUse" x="90" y="48" width="29" height="17">
<path d="M105.753 64.3872L117.63 57.5319C118.476 57.0438 118.368 56.1977 117.392 55.6337L105.991 49.0495C105.015 48.4855 103.54 48.4204 102.694 48.9085L90.8163 55.7638C89.9703 56.252 90.0787 57.098 91.055 57.6621L102.455 64.2462C103.431 64.8103 104.907 64.8754 105.753 64.3872Z" fill="white"/>
</mask>
<g mask="url(#mask0_2331_8510)">
<path d="M117.404 56.5557L105.993 49.9715C105.017 49.4075 103.542 49.3424 102.696 49.8305L90.8183 56.6858C90.6339 56.7943 90.4929 56.9245 90.4061 57.0546C90.1241 56.5882 90.2434 56.0892 90.8183 55.753L102.696 48.8977C103.542 48.4095 105.017 48.4746 105.993 49.0387L117.404 55.6228C118.164 56.0567 118.391 56.675 118.055 57.1522C117.925 56.9353 117.708 56.7292 117.404 56.5557Z" fill="#267FE5"/>
<path d="M117.403 57.6729L105.992 51.0888C105.016 50.5247 103.541 50.4596 102.695 50.9478L90.8173 57.8031C90.6654 57.8899 90.557 57.9875 90.4702 58.096C90.0906 57.597 90.199 57.0438 90.8173 56.6858L102.695 49.8305C103.541 49.3424 105.016 49.4075 105.992 49.9715L117.403 56.5557C118.206 57.0221 118.412 57.6729 117.989 58.1719C117.859 57.9983 117.664 57.8248 117.403 57.6838V57.6729Z" fill="#25BFEC"/>
<path d="M117.868 59.4083C117.749 59.2781 117.597 59.1479 117.402 59.0395L105.99 52.4553C105.014 51.8913 103.539 51.8262 102.693 52.3143L90.8154 59.1696C90.7287 59.2239 90.6527 59.2781 90.5877 59.3432C90.0887 58.8225 90.1429 58.1934 90.8154 57.8029L102.693 50.9476C103.539 50.4595 105.014 50.5246 105.99 51.0886L117.402 57.6727C118.269 58.1717 118.443 58.9093 117.868 59.4083Z" fill="#18D0F7"/>
</g>
<path d="M96.6324 94.2816L97.8581 94.9867C98.1727 95.1711 98.4222 94.9758 98.4222 94.5528V77.5013C98.4222 77.0782 98.1727 76.5901 97.8581 76.4166L96.6324 75.7115C96.3178 75.5271 96.0684 75.7223 96.0684 76.1454V93.1969C96.0684 93.6199 96.3178 94.1081 96.6324 94.2816Z" fill="#6DE0F6"/>
<path d="M96.6324 75.7115L96.9253 75.8851V92.6329C96.9253 93.0559 97.1748 93.5441 97.4893 93.7176L98.4222 94.2491V94.5528C98.4222 94.9759 98.1727 95.1603 97.8581 94.9867L96.6324 94.2816C96.3178 94.0972 96.0684 93.6091 96.0684 93.1969V76.1454C96.0684 75.7224 96.3178 75.538 96.6324 75.7115Z" fill="#267FE5"/>
<path d="M92.1305 91.6783L93.3562 92.3834C93.6707 92.5678 93.9202 92.3725 93.9202 91.9495V74.898C93.9202 74.4749 93.6707 73.9868 93.3562 73.8133L92.1305 73.1082C91.8159 72.9238 91.5664 73.1191 91.5664 73.5421V90.5936C91.5664 91.0167 91.8159 91.5048 92.1305 91.6783Z" fill="#6DE0F6"/>
<path d="M87.6402 89.0856L88.8659 89.7906C89.1805 89.975 89.43 89.7798 89.43 89.3567V72.3052C89.43 71.8822 89.1805 71.3941 88.8659 71.2205L87.6402 70.5154C87.3257 70.331 87.0762 70.5263 87.0762 70.9493V88.0009C87.0762 88.4239 87.3257 88.912 87.6402 89.0856Z" fill="#6DE0F6"/>
<path d="M83.1383 86.4825L84.364 87.1876C84.6785 87.372 84.928 87.1767 84.928 86.7537V69.7022C84.928 69.2791 84.6785 68.791 84.364 68.6175L83.1383 67.9124C82.8237 67.728 82.5742 67.9233 82.5742 68.3463V85.3978C82.5742 85.8209 82.8237 86.309 83.1383 86.4825Z" fill="#6DE0F6"/>
<path d="M92.1305 73.108L92.4233 73.2816V90.0294C92.4233 90.4524 92.6728 90.9405 92.9874 91.1141L93.9202 91.6456V91.9493C93.9202 92.3723 93.6707 92.5567 93.3562 92.3832L92.1305 91.6781C91.8159 91.4937 91.5664 91.0056 91.5664 90.5934V73.5419C91.5664 73.1189 91.8159 72.9345 92.1305 73.108Z" fill="#267FE5"/>
<path d="M87.6402 70.5157L87.9331 70.6893V87.4371C87.9331 87.8601 88.1826 88.3483 88.4971 88.5218L89.43 89.0533V89.357C89.43 89.7801 89.1805 89.9645 88.8659 89.7909L87.6402 89.0858C87.3257 88.9014 87.0762 88.4133 87.0762 88.0011V70.9496C87.0762 70.5266 87.3257 70.3422 87.6402 70.5157Z" fill="#267FE5"/>
<path d="M83.1383 67.9123L83.4311 68.0859V84.8337C83.4311 85.2567 83.6806 85.7449 83.9952 85.9184L84.928 86.4499V86.7536C84.928 87.1767 84.6785 87.3611 84.364 87.1875L83.1383 86.4824C82.8237 86.298 82.5742 85.8099 82.5742 85.3977V68.3462C82.5742 67.9232 82.8237 67.7388 83.1383 67.9123Z" fill="#267FE5"/>
<path d="M108.877 96.3751C108.758 96.3751 108.649 96.3426 108.552 96.2884C108.302 96.1365 108.15 95.8219 108.15 95.4097V77.3603C108.15 76.6335 108.584 75.82 109.137 75.4946L125.039 66.318C125.31 66.1553 125.582 66.1445 125.809 66.2746C126.07 66.4265 126.211 66.741 126.211 67.1532V85.2027C126.211 85.9294 125.777 86.743 125.224 87.0684L109.322 96.245C109.17 96.3317 109.018 96.3751 108.877 96.3751ZM125.484 66.5566C125.386 66.5566 125.3 66.6 125.224 66.6434L109.322 75.82C108.888 76.0695 108.53 76.7745 108.53 77.3603V95.4097C108.53 95.6809 108.606 95.887 108.747 95.9629C108.877 96.0389 109.029 95.9738 109.137 95.9196L125.039 86.743C125.473 86.4935 125.831 85.7884 125.831 85.2027V67.1532C125.831 66.8821 125.755 66.676 125.614 66.6C125.571 66.5783 125.527 66.5675 125.473 66.5675L125.484 66.5566Z" fill="#0A2356"/>
<path d="M123.098 70.6893C123.098 71.1883 123.445 71.3835 123.868 71.134C124.291 70.8845 124.638 70.288 124.638 69.789C124.638 69.29 124.291 69.0948 123.868 69.3443C123.445 69.5937 123.098 70.1903 123.098 70.6893Z" fill="#6DE0F6"/>
<path d="M123.098 73.195C123.098 73.694 123.445 73.8892 123.868 73.6398C124.291 73.3903 124.638 72.7937 124.638 72.2947C124.638 71.7958 124.291 71.6005 123.868 71.85C123.445 72.0995 123.098 72.6961 123.098 73.195Z" fill="#6DE0F6"/>
<path d="M123.098 75.7114C123.098 76.2104 123.445 76.4056 123.868 76.1561C124.291 75.9066 124.638 75.3101 124.638 74.8111C124.638 74.3121 124.291 74.1169 123.868 74.3664C123.445 74.6158 123.098 75.2124 123.098 75.7114Z" fill="#6DE0F6"/>
<path d="M123.489 75.8526C123.912 75.6031 124.259 75.0065 124.259 74.5075C124.259 74.4099 124.248 74.334 124.216 74.2689C124.465 74.2689 124.639 74.4642 124.639 74.8221C124.639 75.3211 124.291 75.9177 123.868 76.1672C123.521 76.3624 123.228 76.2648 123.131 75.9611C123.239 75.9611 123.348 75.9285 123.478 75.8634L123.489 75.8526Z" fill="#267FE5"/>
<path d="M123.489 73.3359C123.912 73.0864 124.259 72.4898 124.259 71.9908C124.259 71.8932 124.248 71.8173 124.216 71.7522C124.465 71.7522 124.639 71.9474 124.639 72.3054C124.639 72.8044 124.291 73.4009 123.868 73.6504C123.521 73.8457 123.228 73.748 123.131 73.4443C123.239 73.4443 123.348 73.4118 123.478 73.3467L123.489 73.3359Z" fill="#267FE5"/>
<path d="M123.489 70.8302C123.912 70.5808 124.259 69.9842 124.259 69.4852C124.259 69.3876 124.248 69.3117 124.216 69.2466C124.465 69.2466 124.639 69.4418 124.639 69.7998C124.639 70.2987 124.291 70.8953 123.868 71.1448C123.521 71.3401 123.228 71.2424 123.131 70.9387C123.239 70.9387 123.348 70.9062 123.478 70.8411L123.489 70.8302Z" fill="#267FE5"/>
<path d="M110.31 87.3613L110.82 87.0684C110.983 86.9816 111.113 86.7321 111.113 86.5152V84.0529C111.113 83.836 110.983 83.7384 110.82 83.836L110.31 84.1289C110.148 84.2156 110.018 84.4651 110.018 84.6821V87.1443C110.018 87.3613 110.148 87.4589 110.31 87.3613Z" fill="#0A2356"/>
<path d="M185.39 13.6124H180.205V11.8335H183.611V8.42749H185.39V13.6124Z" fill="#6EE1F8"/>
<path d="M181.095 17.9186H175.91V16.1397H179.316V12.7229H181.095V17.9186Z" fill="#6EE1F8"/>
<path d="M181.093 17.0291H179.314V11.8334H184.499V13.6123H181.093V17.0291Z" fill="#6EE1F8"/>
<path d="M201.934 44.6347C199.808 44.6347 198.072 42.8992 198.072 40.7732C198.072 38.6471 199.808 36.9116 201.934 36.9116C204.06 36.9116 205.795 38.6471 205.795 40.7732C205.795 42.8992 204.06 44.6347 201.934 44.6347ZM201.934 38.7014C200.784 38.7014 199.851 39.6342 199.851 40.784C199.851 41.9338 200.784 42.8666 201.934 42.8666C203.084 42.8666 204.016 41.9338 204.016 40.784C204.016 39.6342 203.084 38.7014 201.934 38.7014Z" fill="#6DE0F6"/>
<path d="M111.61 47.7804L108.465 44.6348L111.61 41.4891L114.756 44.6348L111.61 47.7804ZM110.265 44.6348L111.61 45.9798L112.956 44.6348L111.61 43.2897L110.265 44.6348Z" fill="#6DE0F6"/>
<path d="M205.025 28.6243L201.934 25.5329L205.025 22.4415L208.116 25.5329L205.025 28.6243ZM203.702 25.5329L205.025 26.8563L206.348 25.5329L205.025 24.2096L203.702 25.5329Z" fill="#6DE0F6"/>
<path d="M138.944 12.7983H132.49V14.5773H138.944V12.7983Z" fill="#6EE1F8"/>
<path d="M136.613 10.4556H134.834V16.9095H136.613V10.4556Z" fill="#6EE1F8"/>
<path d="M204.251 57.6731H183.034L159.42 44.0384C156.383 42.2812 151.068 42.4981 147.554 44.5265L124.786 57.6731H103.58V117.104C103.493 118.297 104.155 119.436 105.619 120.282L148.4 144.981C151.437 146.738 156.752 146.521 160.266 144.493L201.344 120.781C203.166 119.729 204.143 118.395 204.229 117.104H204.24V57.6731H204.251Z" fill="url(#paint4_linear_2331_8510)"/>
<path d="M108.95 57.6735H103.58V117.104C103.515 117.95 103.841 118.764 104.557 119.48C104.101 118.872 103.895 118.211 103.949 117.527V58.0965H109.373C109.243 57.9555 109.102 57.8145 108.95 57.6843V57.6735Z" fill="#0943D3"/>
<path d="M197.463 57.6735C197.42 57.7928 197.387 57.9121 197.344 58.0314H203.874V117.462H203.863C203.809 118.254 203.407 119.079 202.68 119.827C203.646 118.97 204.177 118.026 204.242 117.104H204.253V57.6735H197.463Z" fill="#6DE0F6"/>
<g style="mix-blend-mode:lighten" opacity="0.5">
<path d="M118.559 127.756V58.823H110.857V123.309L118.559 127.756Z" fill="#0943D3"/>
</g>
<g style="mix-blend-mode:lighten" opacity="0.3">
<path d="M123.301 130.489V63.4547H121.186V129.274L123.301 130.489Z" fill="#0943D3"/>
</g>
<g style="mix-blend-mode:lighten" opacity="0.15">
<path d="M127.063 132.658V64.2571H124.959V131.444L127.063 132.658Z" fill="#0943D3"/>
</g>
<path d="M148.401 85.5501L105.621 60.8514C102.583 59.0942 102.963 56.0245 106.477 53.9961L147.555 30.2845C151.07 28.2561 156.385 28.0391 159.422 29.7964L202.203 54.495C205.24 56.2523 204.86 59.322 201.346 61.3504L160.268 85.062C156.753 87.0904 151.438 87.3073 148.401 85.5501Z" fill="url(#paint5_linear_2331_8510)"/>
<path d="M148.877 85.5501L106.097 60.8514C103.06 59.0942 103.439 56.0245 106.954 53.9961L148.031 30.2845C149.767 29.2757 151.958 28.7225 154.084 28.6249C151.806 28.6574 149.431 29.1998 147.565 30.2845L106.487 53.9961C102.973 56.0245 102.593 59.0942 105.63 60.8514L148.411 85.5501C149.951 86.4395 152.056 86.8192 154.225 86.7216C152.229 86.7433 150.298 86.3745 148.877 85.5501Z" fill="#0943D3"/>
<path d="M202.203 54.4948L159.423 29.7962C157.882 28.9067 155.767 28.5271 153.598 28.6247C155.572 28.603 157.47 28.9826 158.88 29.7962L201.661 54.4948C204.698 56.2521 204.318 59.3218 200.804 61.3502L159.726 85.0618C157.991 86.0597 155.81 86.6238 153.684 86.7214C155.984 86.6997 158.381 86.1573 160.269 85.0618L201.346 61.3502C204.861 59.3218 205.24 56.2521 202.203 54.4948Z" fill="#6DE0F6"/>
<path d="M149.812 78.4345L117.965 60.0488C115.698 58.7363 115.98 56.4585 118.595 54.9507L149.172 37.2918C151.786 35.784 155.746 35.6213 158.013 36.923L189.859 55.3087C192.127 56.6212 191.845 58.899 189.23 60.4068L158.653 78.0658C156.038 79.5735 152.079 79.7362 149.812 78.4345Z" fill="#6DE0F6"/>
<path d="M118.594 58.3782L149.171 40.7192C151.785 39.2115 155.745 39.0488 158.001 40.3504L189.848 58.7361C190.141 58.9097 190.39 59.0941 190.607 59.3002C191.822 57.9226 191.616 56.3172 189.848 55.3085L158.001 36.9227C155.734 35.6103 151.785 35.7838 149.171 37.2915L118.594 54.9505C116.316 56.263 115.817 58.1612 117.205 59.4954C117.552 59.1049 118.019 58.7253 118.594 58.389V58.3782Z" fill="#267FE5"/>
<path d="M161.493 89.7695L197.679 68.8347C198.015 68.6395 198.275 68.1297 198.275 67.6849V67.0883C198.275 66.6436 198.004 66.4484 197.679 66.6328L161.493 87.5675C161.157 87.7628 160.896 88.2726 160.896 88.7173V89.3139C160.896 89.7586 161.168 89.9539 161.493 89.7695Z" fill="#6DE0F6"/>
<path d="M196.887 68.39C197.223 68.1947 197.484 67.6849 197.484 67.2402V66.7521L197.679 66.6436C198.015 66.4483 198.275 66.6544 198.275 67.0992V67.6958C198.275 68.1405 198.004 68.6503 197.679 68.8455L161.493 89.7803C161.157 89.9756 160.896 89.7695 160.896 89.3247V89.2163L196.887 68.4008V68.39Z" fill="#267FE5"/>
<path d="M161.493 96.1369L197.679 75.2021C198.015 75.0069 198.275 74.4971 198.275 74.0524V73.4558C198.275 73.011 198.004 72.8158 197.679 73.0002L161.493 93.935C161.157 94.1302 160.896 94.64 160.896 95.0848V95.6813C160.896 96.1261 161.168 96.3213 161.493 96.1369Z" fill="#6DE0F6"/>
<path d="M196.887 74.7574C197.223 74.5622 197.484 74.0523 197.484 73.6076V73.1195L197.679 73.011C198.015 72.8158 198.275 73.0219 198.275 73.4666V74.0632C198.275 74.5079 198.004 75.0177 197.679 75.213L161.493 96.1477C161.157 96.343 160.896 96.1369 160.896 95.6922V95.5837L196.887 74.7683V74.7574Z" fill="#267FE5"/>
<path d="M161.493 102.504L197.679 81.5691C198.015 81.3738 198.275 80.864 198.275 80.4193V79.8227C198.275 79.378 198.004 79.1827 197.679 79.3671L161.493 100.302C161.157 100.497 160.896 101.007 160.896 101.452V102.048C160.896 102.493 161.168 102.688 161.493 102.504Z" fill="#6DE0F6"/>
<path d="M196.887 81.1243C197.223 80.9291 197.484 80.4193 197.484 79.9746V79.4864L197.679 79.378C198.015 79.1827 198.275 79.3888 198.275 79.8335V80.4301C198.275 80.8749 198.004 81.3847 197.679 81.5799L161.493 102.515C161.157 102.71 160.896 102.504 160.896 102.059V101.951L196.887 81.1352V81.1243Z" fill="#267FE5"/>
<path d="M161.493 108.882L197.679 87.9473C198.015 87.752 198.275 87.2422 198.275 86.7975V86.2009C198.275 85.7562 198.004 85.5609 197.679 85.7453L161.493 106.68C161.157 106.875 160.896 107.385 160.896 107.83V108.426C160.896 108.871 161.168 109.066 161.493 108.882Z" fill="#6DE0F6"/>
<path d="M196.887 87.4919C197.223 87.2967 197.484 86.7868 197.484 86.3421V85.854L197.679 85.7455C198.015 85.5503 198.275 85.7564 198.275 86.2011V86.7977C198.275 87.2424 198.004 87.7522 197.679 87.9475L161.493 108.882C161.157 109.077 160.896 108.871 160.896 108.427V108.318L196.887 87.5027V87.4919Z" fill="#267FE5"/>
<path d="M161.493 115.249L197.679 94.3142C198.015 94.119 198.275 93.6091 198.275 93.1644V92.5678C198.275 92.1231 198.004 91.9279 197.679 92.1123L161.493 113.047C161.157 113.242 160.896 113.752 160.896 114.197V114.793C160.896 115.238 161.168 115.433 161.493 115.249Z" fill="#6DE0F6"/>
<path d="M196.887 93.8588C197.223 93.6636 197.484 93.1538 197.484 92.7091V92.2209L197.679 92.1125C198.015 91.9172 198.275 92.1233 198.275 92.568V93.1646C198.275 93.6094 198.004 94.1192 197.679 94.3144L161.493 115.249C161.157 115.444 160.896 115.238 160.896 114.794V114.685L196.887 93.8697V93.8588Z" fill="#267FE5"/>
<path d="M161.493 121.616L197.679 100.681C198.015 100.486 198.275 99.9763 198.275 99.5316V98.935C198.275 98.4903 198.004 98.295 197.679 98.4794L161.493 119.414C161.157 119.609 160.896 120.119 160.896 120.564V121.161C160.896 121.605 161.168 121.801 161.493 121.616Z" fill="#6DE0F6"/>
<path d="M196.887 100.226C197.223 100.031 197.484 99.521 197.484 99.0762V98.5881L197.679 98.4797C198.015 98.2844 198.275 98.4905 198.275 98.9352V99.5318C198.275 99.9765 198.004 100.486 197.679 100.682L161.493 121.616C161.157 121.812 160.896 121.606 160.896 121.161V121.052L196.887 100.237V100.226Z" fill="#267FE5"/>
<path d="M161.493 127.984L197.679 107.049C198.015 106.854 198.275 106.344 198.275 105.899V105.302C198.275 104.858 198.004 104.662 197.679 104.847L161.493 125.782C161.157 125.977 160.896 126.487 160.896 126.931V127.528C160.896 127.973 161.168 128.168 161.493 127.984Z" fill="#6DE0F6"/>
<path d="M196.887 106.604C197.223 106.409 197.484 105.899 197.484 105.454V104.966L197.679 104.858C198.015 104.662 198.275 104.869 198.275 105.313V105.91C198.275 106.355 198.004 106.864 197.679 107.06L161.493 127.994C161.157 128.19 160.896 127.984 160.896 127.539V127.43L196.887 106.615V106.604Z" fill="#267FE5"/>
<path d="M161.493 134.351L197.679 113.416C198.015 113.221 198.275 112.711 198.275 112.267V111.67C198.275 111.225 198.004 111.03 197.679 111.215L161.493 132.149C161.157 132.345 160.896 132.854 160.896 133.299V133.896C160.896 134.34 161.168 134.536 161.493 134.351Z" fill="#6DE0F6"/>
<path d="M196.887 112.972C197.223 112.777 197.484 112.267 197.484 111.822V111.334L197.679 111.225C198.015 111.03 198.275 111.236 198.275 111.681V112.278C198.275 112.722 198.004 113.232 197.679 113.427L161.493 134.362C161.157 134.557 160.896 134.351 160.896 133.907V133.798L196.887 112.983V112.972Z" fill="#267FE5"/>
<path d="M161.493 140.718L197.679 119.783C198.015 119.588 198.275 119.078 198.275 118.634V118.037C198.275 117.592 198.004 117.397 197.679 117.581L161.493 138.516C161.157 138.712 160.896 139.221 160.896 139.666V140.263C160.896 140.707 161.168 140.903 161.493 140.718Z" fill="#6DE0F6"/>
<path d="M196.887 119.339C197.223 119.143 197.484 118.634 197.484 118.189V117.701L197.679 117.592C198.015 117.397 198.275 117.603 198.275 118.048V118.644C198.275 119.089 198.004 119.599 197.679 119.794L161.493 140.729C161.157 140.924 160.896 140.718 160.896 140.273V140.165L196.887 119.35V119.339Z" fill="#267FE5"/>
<path d="M153.914 91.7874C154.453 91.7874 154.89 91.3504 154.89 90.8112C154.89 90.272 154.453 89.835 153.914 89.835C153.375 89.835 152.938 90.272 152.938 90.8112C152.938 91.3504 153.375 91.7874 153.914 91.7874Z" fill="#6DE0F6"/>
<path d="M153.914 91.4188C153.436 91.4188 153.046 91.0825 152.959 90.627C152.948 90.6812 152.938 90.7463 152.938 90.8114C152.938 91.3429 153.371 91.7876 153.914 91.7876C154.456 91.7876 154.89 91.3537 154.89 90.8114C154.89 90.7463 154.89 90.692 154.868 90.627C154.781 91.0717 154.391 91.4188 153.914 91.4188Z" fill="#267FE5"/>
<path d="M153.914 98.1546C154.453 98.1546 154.89 97.7175 154.89 97.1784C154.89 96.6392 154.453 96.2021 153.914 96.2021C153.375 96.2021 152.938 96.6392 152.938 97.1784C152.938 97.7175 153.375 98.1546 153.914 98.1546Z" fill="#6DE0F6"/>
<path d="M153.914 97.786C153.436 97.786 153.046 97.4497 152.959 96.9941C152.948 97.0484 152.938 97.1135 152.938 97.1785C152.938 97.71 153.371 98.1548 153.914 98.1548C154.456 98.1548 154.89 97.7209 154.89 97.1785C154.89 97.1135 154.89 97.0592 154.868 96.9941C154.781 97.4389 154.391 97.786 153.914 97.786Z" fill="#267FE5"/>
<path d="M153.914 104.522C154.453 104.522 154.89 104.084 154.89 103.545C154.89 103.006 154.453 102.569 153.914 102.569C153.375 102.569 152.938 103.006 152.938 103.545C152.938 104.084 153.375 104.522 153.914 104.522Z" fill="#6DE0F6"/>
<path d="M153.914 104.153C153.436 104.153 153.046 103.817 152.959 103.361C152.948 103.415 152.938 103.48 152.938 103.545C152.938 104.077 153.371 104.522 153.914 104.522C154.456 104.522 154.89 104.088 154.89 103.545C154.89 103.48 154.89 103.426 154.868 103.361C154.781 103.806 154.391 104.153 153.914 104.153Z" fill="#267FE5"/>
<path d="M153.914 110.889C154.453 110.889 154.89 110.452 154.89 109.913C154.89 109.374 154.453 108.937 153.914 108.937C153.375 108.937 152.938 109.374 152.938 109.913C152.938 110.452 153.375 110.889 153.914 110.889Z" fill="#6DE0F6"/>
<path d="M153.914 110.52C153.436 110.52 153.046 110.184 152.959 109.728C152.948 109.783 152.938 109.848 152.938 109.913C152.938 110.444 153.371 110.889 153.914 110.889C154.456 110.889 154.89 110.455 154.89 109.913C154.89 109.848 154.89 109.793 154.868 109.728C154.781 110.173 154.391 110.52 153.914 110.52Z" fill="#267FE5"/>
<path d="M153.914 117.256C154.453 117.256 154.89 116.819 154.89 116.28C154.89 115.741 154.453 115.304 153.914 115.304C153.375 115.304 152.938 115.741 152.938 116.28C152.938 116.819 153.375 117.256 153.914 117.256Z" fill="#6DE0F6"/>
<path d="M153.914 116.888C153.436 116.888 153.046 116.551 152.959 116.096C152.948 116.15 152.938 116.215 152.938 116.28C152.938 116.812 153.371 117.256 153.914 117.256C154.456 117.256 154.89 116.822 154.89 116.28C154.89 116.215 154.89 116.161 154.868 116.096C154.781 116.54 154.391 116.888 153.914 116.888Z" fill="#267FE5"/>
<path d="M153.914 123.624C154.453 123.624 154.89 123.187 154.89 122.647C154.89 122.108 154.453 121.671 153.914 121.671C153.375 121.671 152.938 122.108 152.938 122.647C152.938 123.187 153.375 123.624 153.914 123.624Z" fill="#6DE0F6"/>
<path d="M153.914 123.255C153.436 123.255 153.046 122.919 152.959 122.463C152.948 122.517 152.938 122.582 152.938 122.648C152.938 123.179 153.371 123.624 153.914 123.624C154.456 123.624 154.89 123.19 154.89 122.648C154.89 122.582 154.89 122.528 154.868 122.463C154.781 122.908 154.391 123.255 153.914 123.255Z" fill="#267FE5"/>
<path d="M153.914 130.001C154.453 130.001 154.89 129.564 154.89 129.025C154.89 128.486 154.453 128.049 153.914 128.049C153.375 128.049 152.938 128.486 152.938 129.025C152.938 129.564 153.375 130.001 153.914 130.001Z" fill="#6DE0F6"/>
<path d="M153.914 129.622C153.436 129.622 153.046 129.285 152.959 128.83C152.948 128.884 152.938 128.949 152.938 129.014C152.938 129.546 153.371 129.99 153.914 129.99C154.456 129.99 154.89 129.557 154.89 129.014C154.89 128.949 154.89 128.895 154.868 128.83C154.781 129.275 154.391 129.622 153.914 129.622Z" fill="#267FE5"/>
<path d="M153.914 136.369C154.453 136.369 154.89 135.932 154.89 135.393C154.89 134.853 154.453 134.416 153.914 134.416C153.375 134.416 152.938 134.853 152.938 135.393C152.938 135.932 153.375 136.369 153.914 136.369Z" fill="#6DE0F6"/>
<path d="M153.914 136C153.436 136 153.046 135.664 152.959 135.208C152.948 135.262 152.938 135.328 152.938 135.393C152.938 135.924 153.371 136.369 153.914 136.369C154.456 136.369 154.89 135.935 154.89 135.393C154.89 135.328 154.89 135.273 154.868 135.208C154.781 135.653 154.391 136 153.914 136Z" fill="#267FE5"/>
<path d="M153.914 142.736C154.453 142.736 154.89 142.299 154.89 141.76C154.89 141.221 154.453 140.783 153.914 140.783C153.375 140.783 152.938 141.221 152.938 141.76C152.938 142.299 153.375 142.736 153.914 142.736Z" fill="#6DE0F6"/>
<path d="M153.914 142.367C153.436 142.367 153.046 142.031 152.959 141.575C152.948 141.63 152.938 141.695 152.938 141.76C152.938 142.291 153.371 142.736 153.914 142.736C154.456 142.736 154.89 142.302 154.89 141.76C154.89 141.695 154.89 141.641 154.868 141.575C154.781 142.02 154.391 142.367 153.914 142.367Z" fill="#267FE5"/>
<path d="M140.028 132.442C139.833 132.442 139.627 132.377 139.42 132.257L137.967 131.422C137.175 130.966 136.535 129.752 136.535 128.71V89.6175C136.535 89.0426 136.73 88.5979 137.078 88.3918C137.37 88.2183 137.739 88.2508 138.108 88.4677L139.561 89.303C140.353 89.7585 140.993 90.9734 140.993 92.0147V131.107C140.993 131.682 140.798 132.127 140.451 132.333C140.321 132.409 140.18 132.442 140.028 132.442ZM137.501 88.5762C137.403 88.5762 137.305 88.5979 137.229 88.6521C136.98 88.7931 136.839 89.1511 136.839 89.6175V128.71C136.839 129.654 137.414 130.76 138.119 131.172L139.572 132.008C139.854 132.17 140.115 132.192 140.31 132.084C140.559 131.943 140.7 131.585 140.7 131.118V92.0256C140.7 91.0819 140.126 89.9755 139.42 89.5633L137.967 88.7281C137.804 88.6304 137.642 88.5871 137.501 88.5871V88.5762Z" fill="#6DE0F6"/>
<path d="M115.915 118.731C115.719 118.731 115.513 118.666 115.307 118.547L113.854 117.712C113.062 117.256 112.422 116.041 112.422 115V75.9071C112.422 75.3322 112.617 74.8874 112.964 74.6814C113.257 74.5078 113.626 74.5403 113.995 74.7573L115.448 75.5925C116.24 76.0481 116.88 77.2629 116.88 78.3043V117.397C116.88 117.972 116.685 118.417 116.338 118.623C116.207 118.699 116.066 118.731 115.915 118.731ZM113.387 74.8766C113.29 74.8766 113.192 74.8983 113.116 74.9525C112.867 75.0935 112.726 75.4515 112.726 75.9179V115.011C112.726 115.954 113.3 117.061 114.006 117.473L115.459 118.308C115.741 118.471 116.001 118.493 116.197 118.384C116.446 118.243 116.587 117.885 116.587 117.419V78.326C116.587 77.3823 116.012 76.2759 115.307 75.8637L113.854 75.0285C113.691 74.9308 113.528 74.8875 113.387 74.8875V74.8766Z" fill="#6DE0F6"/>
<path d="M127.965 125.586C127.77 125.586 127.564 125.521 127.358 125.402L125.904 124.567C125.113 124.111 124.473 122.896 124.473 121.855V82.762C124.473 82.1872 124.668 81.7424 125.015 81.5363C125.308 81.3628 125.677 81.3953 126.045 81.6123L127.499 82.4475C128.291 82.9031 128.931 84.1179 128.931 85.1592V124.252C128.931 124.827 128.736 125.272 128.388 125.478C128.258 125.554 128.117 125.586 127.965 125.586ZM126.056 124.317L127.51 125.152C127.792 125.315 128.052 125.337 128.247 125.228C128.497 125.087 128.638 124.729 128.638 124.263V85.1701C128.638 84.2156 128.063 83.12 127.358 82.7078L125.904 81.8726C125.622 81.7099 125.362 81.6882 125.167 81.7967C124.917 81.9377 124.776 82.2956 124.776 82.762V121.855C124.776 122.798 125.351 123.905 126.056 124.317Z" fill="#6DE0F6"/>
<path opacity="0.5" d="M192.236 48.6915L190.869 56.1434L197.974 52.065L192.236 48.6915Z" fill="#111D3A"/>
<path d="M154.931 12.7225L153.271 13.6879L154.931 15.5753V29.5788C154.931 32.6377 156.786 36.1955 159.085 37.5188L189.566 55.1236C189.566 55.1236 189.631 55.1561 189.663 55.167L190.65 56.2842L192.201 55.3839C192.201 55.3839 192.245 55.3622 192.267 55.3514L192.418 55.2646C193.232 54.7222 193.742 53.5724 193.742 51.9779V35.1216L154.953 12.7225H154.931Z" fill="url(#paint6_linear_2331_8510)"/>
<path d="M153.271 13.6876L192.06 36.0867V52.943C192.06 56.0019 190.206 57.412 187.906 56.0778L157.426 38.4731C155.137 37.1497 153.271 33.5919 153.271 30.533V13.6768V13.6876Z" fill="#6DE0F6"/>
<path opacity="0.5" d="M152.362 79.2367L144.931 83.5538L111.609 64.3112L118.508 60.3412L152.362 79.2367Z" fill="#031C59"/>
<path style="mix-blend-mode:lighten" d="M191.41 -13.8416H116.457V57.456H116.5C116.327 58.4214 116.804 59.3651 117.986 60.0376L149.833 78.4233C152.1 79.7358 156.049 79.5622 158.663 78.0545L189.241 60.3955C190.705 59.5495 191.41 58.4648 191.377 57.4451H191.41V-13.8416Z" fill="url(#paint7_linear_2331_8510)"/>
<path d="M117.152 35.458L115.492 36.4234L117.152 38.3108V52.3143C117.152 55.3732 119.007 58.931 121.306 60.2543L151.786 77.859C151.786 77.859 151.851 77.8916 151.884 77.9024L152.871 79.0197L154.422 78.1194C154.422 78.1194 154.466 78.0977 154.487 78.0868L154.639 78.0001C155.453 77.4577 155.962 76.3079 155.962 74.7134V57.8571L117.173 35.458H117.152Z" fill="url(#paint8_linear_2331_8510)"/>
<path d="M115.492 36.4231L154.281 58.8222V75.6785C154.281 78.7373 152.426 80.1475 150.127 78.8133L119.647 61.2085C117.358 59.8852 115.492 56.3274 115.492 53.2685V36.4122V36.4231Z" fill="url(#paint9_linear_2331_8510)"/>
<path d="M113.617 32.7355C113.617 33.3972 113.085 33.9287 112.424 33.9287C111.762 33.9287 111.23 33.3972 111.23 32.7355C111.23 32.0739 111.762 31.5424 112.424 31.5424C113.085 31.5424 113.617 32.0739 113.617 32.7355Z" fill="#6DE0F6"/>
<path d="M104.266 23.3203C104.266 23.8409 103.843 24.264 103.323 24.264C102.802 24.264 102.379 23.8409 102.379 23.3203C102.379 22.7996 102.802 22.3766 103.323 22.3766C103.843 22.3766 104.266 22.7996 104.266 23.3203Z" fill="#6DE0F6"/>
<path d="M175.912 11.1283C175.912 11.5188 175.598 11.8333 175.207 11.8333C174.817 11.8333 174.502 11.5188 174.502 11.1283C174.502 10.7378 174.817 10.4232 175.207 10.4232C175.598 10.4232 175.912 10.7378 175.912 11.1283Z" fill="#6DE0F6"/>
<path d="M187.506 114.761H198.429L210.588 107.743C212.15 106.842 214.884 106.951 216.695 107.992L228.41 114.761H239.322V146.358C239.365 146.966 239.029 147.562 238.27 147.996L216.25 160.709C214.689 161.609 211.955 161.501 210.144 160.459L189.003 148.256C188.059 147.714 187.56 147.031 187.517 146.369V114.772L187.506 114.761Z" fill="url(#paint10_linear_2331_8510)"/>
<path d="M188.992 147.747L210.133 159.95C211.944 160.991 214.678 161.11 216.24 160.199L238.259 147.486C239.008 147.052 239.355 146.467 239.311 145.848V146.358C239.355 146.966 239.018 147.562 238.259 147.996L216.24 160.709C214.678 161.609 211.944 161.501 210.133 160.459L188.992 148.256C188.048 147.714 187.549 147.031 187.506 146.369V145.859C187.549 146.521 188.059 147.204 188.992 147.747Z" fill="url(#paint11_linear_2331_8510)"/>
<path d="M238.628 146.868V115.271H227.716L216.001 108.502C214.19 107.461 211.456 107.341 209.894 108.253L197.735 115.271H187.506V114.761H198.429L210.588 107.743C212.15 106.842 214.884 106.951 216.695 107.992L228.41 114.761H239.322V146.358C239.365 146.966 239.029 147.562 238.27 147.996L238.151 148.072C238.509 147.714 238.66 147.291 238.639 146.868H238.628Z" fill="#0E61E5"/>
<path d="M188.124 115.347V146.911C188.157 147.291 188.33 147.671 188.645 148.029C187.929 147.53 187.549 146.933 187.506 146.358V114.837C187.734 114.978 187.94 115.151 188.124 115.347Z" fill="#6EE8FC"/>
<path d="M216.252 129.111L238.272 116.399C239.834 115.498 239.638 113.915 237.838 112.873L216.697 100.67C214.886 99.6291 212.152 99.5098 210.59 100.421L188.571 113.134C187.009 114.034 187.204 115.618 189.005 116.659L210.145 128.862C211.957 129.903 214.69 130.022 216.252 129.111Z" fill="url(#paint12_linear_2331_8510)"/>
<path d="M188.559 113.123L210.579 100.41C211.392 99.9439 212.509 99.7486 213.659 99.8137C212.824 99.8679 212.043 100.063 211.436 100.41L189.416 113.123C187.854 114.023 188.049 115.607 189.85 116.648L210.991 128.851C211.859 129.35 212.954 129.643 214.017 129.697C212.694 129.773 211.24 129.491 210.134 128.851L188.993 116.648C187.182 115.607 186.986 114.023 188.559 113.123Z" fill="#6EE8FC"/>
<path d="M215.525 125.445L231.915 115.976C233.076 115.303 232.935 114.132 231.59 113.351L215.851 104.261C214.506 103.48 212.466 103.404 211.306 104.077L194.916 113.546C193.755 114.219 193.896 115.39 195.241 116.171L210.98 125.261C212.325 126.042 214.365 126.118 215.525 125.445Z" fill="url(#paint13_linear_2331_8510)"/>
<path d="M214.938 122.505L226.816 115.65C227.662 115.162 227.553 114.316 226.577 113.752L215.177 107.168C214.201 106.604 212.725 106.539 211.879 107.027L200.002 113.882C199.156 114.37 199.264 115.216 200.241 115.78L211.641 122.364C212.617 122.928 214.092 122.994 214.938 122.505Z" fill="#6DE0F6"/>
<path d="M215.266 129.111L237.285 116.399C238.847 115.498 238.652 113.915 236.851 112.873L215.71 100.671C214.853 100.172 213.78 99.8896 212.738 99.8245C214.083 99.7269 215.569 100.02 216.708 100.671L237.849 112.873C239.661 113.915 239.856 115.498 238.283 116.399L216.264 129.111C215.439 129.589 214.3 129.773 213.129 129.708C213.931 129.654 214.68 129.459 215.276 129.111H215.266Z" fill="#0E61E5"/>
<mask id="mask1_2331_8510" style="mask-type:luminance" maskUnits="userSpaceOnUse" x="199" y="106" width="29" height="17">
<path d="M214.938 122.506L226.816 115.651C227.662 115.162 227.553 114.316 226.577 113.752L215.177 107.168C214.201 106.604 212.725 106.539 211.879 107.027L200.002 113.882C199.156 114.371 199.264 115.217 200.241 115.781L211.641 122.365C212.617 122.929 214.092 122.994 214.938 122.506Z" fill="white"/>
</mask>
<g mask="url(#mask1_2331_8510)">
<path d="M226.586 114.674L215.175 108.09C214.199 107.526 212.724 107.461 211.877 107.949L200 114.804C199.816 114.913 199.675 115.043 199.588 115.173C199.306 114.707 199.425 114.208 200 113.872L211.877 107.016C212.724 106.528 214.199 106.593 215.175 107.157L226.586 113.741C227.345 114.175 227.573 114.794 227.237 115.271C227.107 115.054 226.89 114.848 226.586 114.674Z" fill="#267FE5"/>
<path d="M226.587 115.792L215.176 109.208C214.2 108.644 212.724 108.578 211.878 109.067L200.001 115.922C199.849 116.009 199.741 116.106 199.654 116.215C199.274 115.716 199.383 115.163 200.001 114.805L211.878 107.949C212.724 107.461 214.2 107.526 215.176 108.09L226.587 114.674C227.39 115.141 227.596 115.792 227.173 116.291C227.043 116.117 226.847 115.944 226.587 115.803V115.792Z" fill="#25BFEC"/>
<path d="M227.053 117.527C226.934 117.397 226.782 117.267 226.587 117.158L215.176 110.574C214.2 110.01 212.725 109.945 211.878 110.433L200.001 117.288C199.914 117.343 199.838 117.397 199.773 117.462C199.274 116.941 199.328 116.312 200.001 115.922L211.878 109.066C212.725 108.578 214.2 108.643 215.176 109.207L226.587 115.791C227.455 116.29 227.628 117.028 227.053 117.527Z" fill="#18D0F7"/>
</g>
<path d="M205.818 152.389L207.044 153.094C207.358 153.279 207.608 153.084 207.608 152.661V135.609C207.608 135.186 207.358 134.698 207.044 134.524L205.818 133.819C205.503 133.635 205.254 133.83 205.254 134.253V151.305C205.254 151.728 205.503 152.216 205.818 152.389Z" fill="#6DE0F6"/>
<path d="M205.818 133.82L206.111 133.993V150.741C206.111 151.164 206.36 151.652 206.675 151.826L207.608 152.357V152.661C207.608 153.084 207.358 153.268 207.044 153.095L205.818 152.39C205.503 152.205 205.254 151.717 205.254 151.305V134.253C205.254 133.83 205.503 133.646 205.818 133.82Z" fill="#267FE5"/>
<path d="M201.328 149.797L202.553 150.502C202.868 150.687 203.117 150.491 203.117 150.068V133.017C203.117 132.594 202.868 132.106 202.553 131.932L201.328 131.227C201.013 131.043 200.764 131.238 200.764 131.661V148.712C200.764 149.135 201.013 149.624 201.328 149.797Z" fill="#6DE0F6"/>
<path d="M196.826 147.194L198.051 147.899C198.366 148.083 198.616 147.888 198.616 147.465V130.413C198.616 129.99 198.366 129.502 198.051 129.329L196.826 128.623C196.511 128.439 196.262 128.634 196.262 129.057V146.109C196.262 146.532 196.511 147.02 196.826 147.194Z" fill="#6DE0F6"/>
<path d="M192.324 144.601L193.55 145.306C193.864 145.491 194.114 145.296 194.114 144.872V127.821C194.114 127.398 193.864 126.91 193.55 126.736L192.324 126.031C192.009 125.847 191.76 126.042 191.76 126.465V143.517C191.76 143.94 192.009 144.428 192.324 144.601Z" fill="#6DE0F6"/>
<path d="M201.328 131.227L201.621 131.4V148.148C201.621 148.571 201.87 149.059 202.185 149.233L203.117 149.764V150.068C203.117 150.491 202.868 150.675 202.553 150.502L201.328 149.797C201.013 149.612 200.764 149.124 200.764 148.712V131.661C200.764 131.238 201.013 131.053 201.328 131.227Z" fill="#267FE5"/>
<path d="M196.826 128.624L197.119 128.797V145.545C197.119 145.968 197.368 146.456 197.683 146.63L198.616 147.161V147.465C198.616 147.888 198.366 148.072 198.051 147.899L196.826 147.194C196.511 147.009 196.262 146.521 196.262 146.109V129.058C196.262 128.635 196.511 128.45 196.826 128.624Z" fill="#267FE5"/>
<path d="M192.324 126.031L192.617 126.205V142.952C192.617 143.375 192.866 143.864 193.181 144.037L194.114 144.569V144.872C194.114 145.295 193.864 145.48 193.55 145.306L192.324 144.601C192.009 144.417 191.76 143.929 191.76 143.516V126.465C191.76 126.042 192.009 125.857 192.324 126.031Z" fill="#267FE5"/>
<path d="M218.063 154.483C217.943 154.483 217.835 154.45 217.737 154.396C217.488 154.244 217.336 153.93 217.336 153.517V135.468C217.336 134.741 217.77 133.928 218.323 133.602L234.225 124.426C234.496 124.263 234.767 124.252 234.995 124.382C235.255 124.534 235.396 124.849 235.396 125.261V143.31C235.396 144.037 234.962 144.851 234.409 145.176L218.507 154.353C218.356 154.439 218.204 154.483 218.063 154.483ZM234.669 124.675C234.572 124.675 234.485 124.719 234.409 124.762L218.507 133.939C218.074 134.188 217.716 134.893 217.716 135.479V153.528C217.716 153.799 217.792 154.006 217.933 154.081C218.063 154.157 218.215 154.092 218.323 154.038L234.225 144.861C234.659 144.612 235.017 143.907 235.017 143.321V125.272C235.017 125.001 234.941 124.794 234.8 124.719C234.756 124.697 234.713 124.686 234.659 124.686L234.669 124.675Z" fill="#0A2356"/>
<path d="M232.281 128.797C232.281 129.296 232.628 129.491 233.051 129.241C233.474 128.992 233.822 128.395 233.822 127.896C233.822 127.397 233.474 127.202 233.051 127.452C232.628 127.701 232.281 128.298 232.281 128.797Z" fill="#6DE0F6"/>
<path d="M232.281 131.313C232.281 131.812 232.628 132.007 233.051 131.758C233.474 131.508 233.822 130.912 233.822 130.413C233.822 129.914 233.474 129.719 233.051 129.968C232.628 130.218 232.281 130.814 232.281 131.313Z" fill="#6DE0F6"/>
<path d="M232.281 133.819C232.281 134.318 232.628 134.513 233.051 134.263C233.474 134.014 233.822 133.417 233.822 132.918C233.822 132.419 233.474 132.224 233.051 132.474C232.628 132.723 232.281 133.32 232.281 133.819Z" fill="#6DE0F6"/>
<path d="M232.672 133.96C233.095 133.71 233.443 133.114 233.443 132.615C233.443 132.517 233.432 132.441 233.399 132.376C233.649 132.376 233.822 132.571 233.822 132.929C233.822 133.428 233.475 134.025 233.052 134.274C232.705 134.47 232.412 134.372 232.314 134.068C232.423 134.068 232.531 134.036 232.662 133.971L232.672 133.96Z" fill="#267FE5"/>
<path d="M232.672 131.454C233.095 131.205 233.443 130.608 233.443 130.109C233.443 130.012 233.432 129.936 233.399 129.871C233.649 129.871 233.822 130.066 233.822 130.424C233.822 130.923 233.475 131.519 233.052 131.769C232.705 131.964 232.412 131.866 232.314 131.563C232.423 131.563 232.531 131.53 232.662 131.465L232.672 131.454Z" fill="#267FE5"/>
<path d="M232.672 128.938C233.095 128.688 233.443 128.092 233.443 127.593C233.443 127.495 233.432 127.419 233.399 127.354C233.649 127.354 233.822 127.549 233.822 127.907C233.822 128.406 233.475 129.003 233.052 129.252C232.705 129.447 232.412 129.35 232.314 129.046C232.423 129.046 232.531 129.014 232.662 128.949L232.672 128.938Z" fill="#267FE5"/>
<path d="M219.496 145.48L220.006 145.187C220.169 145.1 220.299 144.851 220.299 144.634V142.171C220.299 141.954 220.169 141.857 220.006 141.954L219.496 142.247C219.333 142.334 219.203 142.584 219.203 142.8V145.263C219.203 145.48 219.333 145.577 219.496 145.48Z" fill="#0A2356"/>
<path d="M160.627 140.642H165.866L171.702 137.345C172.45 136.922 173.763 136.976 174.63 137.464L180.26 140.642H185.499V155.492C185.521 155.774 185.358 156.056 185 156.262L174.424 162.239C173.676 162.662 172.363 162.607 171.496 162.119L161.343 156.381C160.887 156.132 160.649 155.806 160.627 155.492V140.642Z" fill="url(#paint14_linear_2331_8510)"/>
<path d="M161.343 156.142L171.496 161.88C172.363 162.369 173.676 162.423 174.424 162L185 156.023C185.358 155.817 185.521 155.546 185.499 155.253V155.492C185.521 155.774 185.358 156.056 185 156.262L174.424 162.238C173.676 162.661 172.363 162.607 171.496 162.119L161.343 156.381C160.887 156.132 160.649 155.806 160.627 155.492V155.253C160.649 155.567 160.887 155.882 161.343 156.142Z" fill="url(#paint15_linear_2331_8510)"/>
<path d="M185.174 155.73V140.881H179.935L174.305 137.703C173.437 137.215 172.125 137.16 171.376 137.583L165.541 140.881H160.627V140.642H165.866L171.702 137.345C172.45 136.922 173.763 136.976 174.63 137.464L180.26 140.642H185.499V155.492C185.521 155.774 185.358 156.056 185 156.262L184.946 156.294C185.12 156.121 185.195 155.926 185.174 155.73Z" fill="#0E61E5"/>
<path d="M160.921 140.924V155.752C160.932 155.925 161.019 156.11 161.17 156.273C160.823 156.034 160.639 155.763 160.617 155.492V140.675C160.726 140.74 160.823 140.826 160.91 140.913L160.921 140.924Z" fill="#6EE8FC"/>
<path d="M174.426 147.389L185.002 141.412C185.751 140.989 185.664 140.241 184.796 139.753L174.643 134.015C173.776 133.526 172.463 133.472 171.715 133.895L161.139 139.872C160.39 140.295 160.477 141.043 161.345 141.532L171.498 147.27C172.366 147.758 173.678 147.812 174.426 147.389Z" fill="url(#paint16_linear_2331_8510)"/>
<path d="M161.137 139.883L171.713 133.906C172.104 133.689 172.646 133.591 173.188 133.624C172.787 133.645 172.418 133.743 172.125 133.906L161.55 139.883C160.801 140.306 160.888 141.054 161.756 141.542L171.909 147.28C172.332 147.519 172.852 147.649 173.362 147.682C172.722 147.714 172.028 147.584 171.496 147.28L161.344 141.542C160.476 141.054 160.378 140.306 161.137 139.883Z" fill="#6EE8FC"/>
<path d="M174.079 145.664L181.954 141.217C182.518 140.902 182.442 140.349 181.802 139.98L174.241 135.707C173.591 135.338 172.614 135.305 172.061 135.62L164.186 140.067C163.622 140.382 163.698 140.935 164.338 141.304L171.898 145.577C172.549 145.946 173.526 145.979 174.079 145.664Z" fill="url(#paint17_linear_2331_8510)"/>
<path d="M173.797 144.287L179.503 141.065C179.904 140.837 179.861 140.436 179.394 140.176L173.916 137.084C173.45 136.824 172.745 136.791 172.333 137.019L166.627 140.241C166.226 140.468 166.269 140.87 166.736 141.13L172.213 144.221C172.68 144.482 173.385 144.514 173.797 144.287Z" fill="#6DE0F6"/>
<path d="M173.947 147.389L184.523 141.412C185.272 140.989 185.185 140.241 184.317 139.753L174.164 134.014C173.752 133.787 173.242 133.646 172.732 133.613C173.372 133.57 174.088 133.7 174.642 134.014L184.794 139.753C185.662 140.241 185.76 140.989 185 141.412L174.425 147.389C174.034 147.617 173.481 147.703 172.917 147.671C173.307 147.649 173.665 147.552 173.947 147.389Z" fill="#0E61E5"/>
<mask id="mask2_2331_8510" style="mask-type:luminance" maskUnits="userSpaceOnUse" x="166" y="136" width="14" height="9">
<path d="M173.799 144.287L179.505 141.065C179.906 140.837 179.862 140.436 179.396 140.176L173.918 137.084C173.452 136.824 172.747 136.791 172.335 137.019L166.629 140.241C166.228 140.469 166.271 140.87 166.738 141.13L172.215 144.222C172.682 144.482 173.387 144.515 173.799 144.287Z" fill="white"/>
</mask>
<g mask="url(#mask2_2331_8510)">
<path d="M179.396 140.61L173.918 137.518C173.452 137.258 172.747 137.225 172.334 137.453L166.629 140.675C166.542 140.729 166.477 140.783 166.434 140.848C166.293 140.631 166.358 140.393 166.629 140.241L172.334 137.019C172.736 136.791 173.452 136.824 173.918 137.084L179.396 140.176C179.765 140.382 179.873 140.664 179.71 140.892C179.645 140.794 179.548 140.696 179.396 140.61Z" fill="#267FE5"/>
<path d="M179.396 141.13L173.918 138.039C173.452 137.779 172.747 137.746 172.334 137.974L166.629 141.195C166.553 141.239 166.51 141.282 166.466 141.336C166.282 141.109 166.336 140.848 166.629 140.675L172.334 137.453C172.736 137.225 173.452 137.258 173.918 137.518L179.396 140.61C179.786 140.827 179.884 141.141 179.678 141.369C179.613 141.282 179.526 141.206 179.396 141.141V141.13Z" fill="#25BFEC"/>
<path d="M179.623 141.944C179.558 141.879 179.493 141.825 179.395 141.77L173.917 138.679C173.451 138.419 172.746 138.386 172.333 138.614L166.628 141.836C166.628 141.836 166.552 141.89 166.519 141.911C166.281 141.662 166.303 141.369 166.628 141.185L172.333 137.963C172.735 137.735 173.451 137.768 173.917 138.028L179.395 141.12C179.818 141.358 179.894 141.695 179.623 141.933V141.944Z" fill="#18D0F7"/>
</g>
<path d="M169.427 158.333L170.013 158.67C170.165 158.756 170.284 158.67 170.284 158.464V150.448C170.284 150.252 170.165 150.025 170.013 149.938L169.427 149.602C169.276 149.515 169.156 149.602 169.156 149.808V157.824C169.156 158.019 169.276 158.247 169.427 158.333Z" fill="#6DE0F6"/>
<path d="M169.427 149.602L169.568 149.678V157.542C169.568 157.737 169.688 157.965 169.84 158.052L170.284 158.301V158.442C170.284 158.637 170.165 158.724 170.013 158.648L169.427 158.312C169.276 158.225 169.156 157.997 169.156 157.802V149.786C169.156 149.591 169.276 149.504 169.427 149.58V149.602Z" fill="#267FE5"/>
<path d="M167.258 157.108L167.843 157.444C167.995 157.531 168.114 157.444 168.114 157.238V149.222C168.114 149.027 167.995 148.799 167.843 148.712L167.258 148.376C167.106 148.289 166.986 148.376 166.986 148.582V156.598C166.986 156.794 167.106 157.021 167.258 157.108Z" fill="#6DE0F6"/>
<path d="M165.097 155.882L165.683 156.218C165.835 156.305 165.954 156.218 165.954 156.012V147.996C165.954 147.801 165.835 147.573 165.683 147.486L165.097 147.15C164.945 147.063 164.826 147.15 164.826 147.356V155.372C164.826 155.567 164.945 155.795 165.097 155.882Z" fill="#6DE0F6"/>
<path d="M162.939 154.667L163.525 155.004C163.677 155.09 163.796 155.004 163.796 154.798V146.782C163.796 146.586 163.677 146.359 163.525 146.272L162.939 145.936C162.787 145.849 162.668 145.936 162.668 146.142V154.158C162.668 154.353 162.787 154.581 162.939 154.667Z" fill="#6DE0F6"/>
<path d="M167.258 148.387L167.399 148.463V156.327C167.399 156.522 167.518 156.75 167.67 156.837L168.114 157.086V157.227C168.114 157.422 167.995 157.509 167.843 157.433L167.258 157.097C167.106 157.01 166.986 156.782 166.986 156.587V148.571C166.986 148.376 167.106 148.289 167.258 148.365V148.387Z" fill="#267FE5"/>
<path d="M165.097 147.161L165.238 147.237V155.101C165.238 155.297 165.358 155.524 165.51 155.611L165.954 155.861V156.002C165.954 156.197 165.835 156.284 165.683 156.208L165.097 155.871C164.945 155.785 164.826 155.557 164.826 155.362V147.346C164.826 147.15 164.945 147.064 165.097 147.14V147.161Z" fill="#267FE5"/>
<path d="M162.939 145.946L163.08 146.022V153.886C163.08 154.082 163.199 154.309 163.351 154.396L163.796 154.646V154.787C163.796 154.982 163.677 155.069 163.525 154.993L162.939 154.656C162.787 154.57 162.668 154.342 162.668 154.147V146.131C162.668 145.935 162.787 145.849 162.939 145.925V145.946Z" fill="#267FE5"/>
<path d="M175.304 159.31C175.25 159.31 175.196 159.299 175.152 159.266C175.033 159.201 174.957 159.049 174.957 158.854V150.372C174.957 150.035 175.163 149.645 175.434 149.493L183.071 145.176C183.201 145.1 183.331 145.089 183.439 145.154C183.559 145.219 183.635 145.371 183.635 145.566V154.049C183.635 154.396 183.429 154.776 183.157 154.927L175.521 159.245C175.445 159.288 175.38 159.31 175.304 159.31ZM183.277 145.306C183.277 145.306 183.19 145.328 183.147 145.35L175.51 149.667C175.304 149.786 175.131 150.111 175.131 150.393V158.876C175.131 159.006 175.174 159.104 175.239 159.136C175.304 159.169 175.38 159.136 175.434 159.114L183.071 154.797C183.277 154.678 183.45 154.353 183.45 154.071V145.588C183.45 145.458 183.407 145.36 183.353 145.328C183.331 145.317 183.309 145.306 183.288 145.306H183.277Z" fill="#0A2356"/>
<path d="M182.127 147.248C182.127 147.476 182.29 147.573 182.496 147.454C182.702 147.335 182.865 147.053 182.865 146.825C182.865 146.597 182.702 146.499 182.496 146.619C182.29 146.738 182.127 147.02 182.127 147.248Z" fill="#6DE0F6"/>
<path d="M182.127 148.42C182.127 148.647 182.29 148.745 182.496 148.626C182.702 148.506 182.865 148.224 182.865 147.997C182.865 147.769 182.702 147.671 182.496 147.79C182.29 147.91 182.127 148.192 182.127 148.42Z" fill="#6DE0F6"/>
<path d="M182.127 149.602C182.127 149.829 182.29 149.927 182.496 149.808C182.702 149.688 182.865 149.406 182.865 149.179C182.865 148.951 182.702 148.853 182.496 148.973C182.29 149.092 182.127 149.374 182.127 149.602Z" fill="#6DE0F6"/>
<path d="M182.31 149.667C182.516 149.548 182.679 149.266 182.679 149.038C182.679 148.995 182.679 148.962 182.657 148.929C182.777 148.929 182.863 149.027 182.863 149.19C182.863 149.418 182.701 149.7 182.495 149.819C182.332 149.917 182.191 149.862 182.137 149.721C182.191 149.721 182.245 149.71 182.299 149.678L182.31 149.667Z" fill="#267FE5"/>
<path d="M182.31 148.484C182.516 148.365 182.679 148.083 182.679 147.855C182.679 147.812 182.679 147.779 182.657 147.747C182.777 147.747 182.863 147.844 182.863 148.007C182.863 148.235 182.701 148.517 182.495 148.636C182.332 148.734 182.191 148.68 182.137 148.539C182.191 148.539 182.245 148.528 182.299 148.495L182.31 148.484Z" fill="#267FE5"/>
<path d="M182.31 147.313C182.516 147.194 182.679 146.912 182.679 146.684C182.679 146.641 182.679 146.608 182.657 146.576C182.777 146.576 182.863 146.673 182.863 146.836C182.863 147.064 182.701 147.346 182.495 147.465C182.332 147.563 182.191 147.509 182.137 147.368C182.191 147.368 182.245 147.357 182.299 147.324L182.31 147.313Z" fill="#267FE5"/>
<path d="M175.989 155.079L176.238 154.938C176.314 154.895 176.379 154.776 176.379 154.678V153.518C176.379 153.42 176.314 153.377 176.238 153.42L175.989 153.561C175.913 153.604 175.848 153.724 175.848 153.821V154.982C175.848 155.079 175.913 155.123 175.989 155.079Z" fill="#0A2356"/>
<path d="M138.164 153.81L137.665 154.352C137.665 154.352 137.632 154.331 137.621 154.32L80.0777 121.095C79.3943 120.705 78.1903 120.748 77.3985 121.204L39.781 142.92C39.5749 143.039 39.4013 142.41 39.282 142.551H39V144.004C39.0217 144.286 39.1952 144.547 39.5424 144.753L97.0858 177.977C97.7692 178.368 98.9732 178.324 99.7651 177.869L137.383 156.153C137.903 155.86 138.164 155.47 138.153 155.112V153.81H138.164Z" fill="url(#paint18_linear_2331_8510)"/>
<path d="M39.5529 143.386L97.0964 176.61C97.7798 177.001 98.9838 176.958 99.7756 176.502L137.393 154.786C138.326 154.244 138.434 153.43 137.621 152.953L80.0774 119.729C79.3941 119.338 78.19 119.382 77.3982 119.837L39.7807 141.553C38.8479 142.095 38.7394 142.909 39.5529 143.386Z" fill="#E1E3EC"/>
<g style="mix-blend-mode:overlay">
<path d="M39.5529 143.386L97.0964 176.61C97.7798 177.001 98.9838 176.958 99.7756 176.502L137.393 154.786C138.326 154.244 138.434 153.43 137.621 152.953L80.0774 119.729C79.3941 119.338 78.19 119.382 77.3982 119.837L39.7807 141.553C38.8479 142.095 38.7394 142.909 39.5529 143.386Z" fill="#8FAFFF"/>
</g>
<path d="M127.241 153.267L130.506 155.155C130.614 155.22 130.799 155.209 130.929 155.144L132.09 154.471C132.209 154.395 132.22 154.287 132.111 154.233L128.846 152.345C128.738 152.28 128.554 152.291 128.423 152.356L127.263 153.029C127.143 153.105 127.133 153.213 127.241 153.267Z" fill="#163072"/>
<path d="M123.022 150.838L126.287 152.725C126.396 152.79 126.58 152.779 126.71 152.714L127.871 152.042C127.99 151.966 128.001 151.857 127.893 151.803L124.628 149.916C124.519 149.851 124.335 149.862 124.205 149.927L123.044 150.599C122.925 150.675 122.914 150.784 123.022 150.838Z" fill="#163072"/>
<path d="M118.802 148.397L122.067 150.285C122.175 150.35 122.359 150.339 122.49 150.274L123.65 149.601C123.77 149.525 123.78 149.417 123.672 149.363L120.407 147.475C120.298 147.41 120.114 147.421 119.984 147.486L118.823 148.158C118.704 148.234 118.693 148.343 118.802 148.397Z" fill="#163072"/>
<path d="M114.571 145.956L117.836 147.844C117.945 147.909 118.129 147.898 118.259 147.833L119.42 147.16C119.539 147.085 119.55 146.976 119.441 146.922L116.176 145.034C116.068 144.969 115.884 144.98 115.753 145.045L114.593 145.718C114.473 145.794 114.463 145.902 114.571 145.956Z" fill="#163072"/>
<path d="M110.352 143.516L113.617 145.403C113.726 145.468 113.91 145.457 114.04 145.392L115.201 144.72C115.32 144.644 115.331 144.535 115.223 144.481L111.958 142.594C111.849 142.529 111.665 142.54 111.535 142.605L110.374 143.277C110.255 143.353 110.244 143.462 110.352 143.516Z" fill="#163072"/>
<path d="M106.132 141.075L109.397 142.962C109.505 143.028 109.689 143.017 109.82 142.952L110.98 142.279C111.1 142.203 111.11 142.095 111.002 142.04L107.737 140.153C107.629 140.088 107.444 140.099 107.314 140.164L106.153 140.836C106.034 140.912 106.023 141.021 106.132 141.075Z" fill="#163072"/>
<path d="M101.903 138.646L105.168 140.533C105.277 140.598 105.461 140.587 105.591 140.522L106.752 139.85C106.871 139.774 106.882 139.665 106.773 139.611L103.508 137.724C103.4 137.659 103.216 137.669 103.085 137.735L101.925 138.407C101.806 138.483 101.795 138.591 101.903 138.646Z" fill="#163072"/>
<path d="M97.6824 136.205L100.947 138.093C101.056 138.158 101.24 138.147 101.37 138.082L102.531 137.409C102.65 137.333 102.661 137.225 102.553 137.171L99.2878 135.283C99.1793 135.218 98.9949 135.229 98.8648 135.294L97.7041 135.967C97.5848 136.043 97.574 136.151 97.6824 136.205Z" fill="#163072"/>
<path d="M93.452 133.764L96.7169 135.652C96.8254 135.717 97.0098 135.706 97.1399 135.641L98.3006 134.968C98.4199 134.892 98.4307 134.784 98.3223 134.73L95.0573 132.842C94.9489 132.777 94.7645 132.788 94.6343 132.853L93.4737 133.526C93.3543 133.602 93.3435 133.71 93.452 133.764Z" fill="#163072"/>
<path d="M89.2332 131.324L92.4982 133.211C92.6066 133.276 92.791 133.265 92.9212 133.2L94.0818 132.528C94.2011 132.452 94.212 132.343 94.1035 132.289L90.8386 130.402C90.7301 130.337 90.5457 130.348 90.4155 130.413L89.2549 131.085C89.1356 131.161 89.1247 131.27 89.2332 131.324Z" fill="#163072"/>
<path d="M85.0125 128.883L88.2775 130.771C88.3859 130.836 88.5703 130.825 88.7005 130.76L89.8611 130.087C89.9804 130.011 89.9913 129.903 89.8828 129.849L86.6179 127.961C86.5094 127.896 86.325 127.907 86.1948 127.972L85.0342 128.645C84.9149 128.72 84.904 128.829 85.0125 128.883Z" fill="#163072"/>
<path d="M80.782 126.454L84.047 128.341C84.1555 128.406 84.3399 128.395 84.47 128.33L85.6307 127.658C85.75 127.582 85.7608 127.473 85.6524 127.419L82.3874 125.532C82.2789 125.467 82.0945 125.478 81.9644 125.543L80.8037 126.215C80.6844 126.291 80.6736 126.4 80.782 126.454Z" fill="#163072"/>
<path d="M76.5633 124.013L79.8282 125.9C79.9367 125.965 80.1211 125.955 80.2513 125.89L81.4119 125.217C81.5312 125.141 81.5421 125.033 81.4336 124.978L78.1686 123.091C78.0602 123.026 77.8758 123.037 77.7456 123.102L76.585 123.774C76.4657 123.85 76.4548 123.959 76.5633 124.013Z" fill="#163072"/>
<path d="M75.8582 124.415L77.8974 125.586L78.711 126.053L80.7502 127.224C80.8587 127.289 80.8478 127.398 80.7285 127.463L77.9408 129.068C77.8215 129.144 77.6263 129.144 77.5178 129.079L75.4786 127.907L74.665 127.441L72.6258 126.27C72.5173 126.204 72.5282 126.096 72.6475 126.031L75.4352 124.426C75.5545 124.35 75.7497 124.35 75.8582 124.415Z" fill="#163072"/>
<path d="M123.727 155.785L126.569 157.433C126.678 157.498 126.873 157.488 126.992 157.422L129.769 155.817C129.888 155.741 129.899 155.633 129.791 155.578L126.949 153.93C126.84 153.865 126.645 153.875 126.526 153.941L123.749 155.546C123.63 155.622 123.619 155.73 123.727 155.785Z" fill="#163072"/>
<path d="M119.95 153.604L122.792 155.253C122.9 155.318 123.096 155.307 123.215 155.242L125.992 153.637C126.111 153.561 126.122 153.453 126.014 153.398L123.172 151.75C123.063 151.684 122.868 151.695 122.749 151.76L119.972 153.366C119.852 153.442 119.842 153.55 119.95 153.604Z" fill="#163072"/>
<path d="M116.177 151.424L119.018 153.073C119.127 153.138 119.322 153.127 119.442 153.062L122.218 151.457C122.338 151.381 122.349 151.272 122.24 151.218L119.398 149.569C119.29 149.504 119.094 149.515 118.975 149.58L116.198 151.186C116.079 151.261 116.068 151.37 116.177 151.424Z" fill="#163072"/>
<path d="M112.401 149.244L115.243 150.893C115.352 150.958 115.547 150.947 115.666 150.882L118.443 149.276C118.562 149.2 118.573 149.092 118.465 149.038L115.623 147.389C115.514 147.324 115.319 147.335 115.2 147.4L112.423 149.005C112.304 149.081 112.293 149.19 112.401 149.244Z" fill="#163072"/>
<path d="M108.628 147.074L111.47 148.723C111.578 148.788 111.773 148.777 111.893 148.712L114.67 147.107C114.789 147.031 114.8 146.922 114.691 146.868L111.849 145.22C111.741 145.154 111.546 145.165 111.426 145.23L108.649 146.836C108.53 146.912 108.519 147.02 108.628 147.074Z" fill="#163072"/>
<path d="M104.852 144.894L107.694 146.543C107.803 146.608 107.998 146.597 108.117 146.532L110.894 144.927C111.013 144.851 111.024 144.742 110.916 144.688L108.074 143.039C107.965 142.974 107.77 142.985 107.651 143.05L104.874 144.656C104.755 144.731 104.744 144.84 104.852 144.894Z" fill="#163072"/>
<path d="M101.077 142.714L103.919 144.363C104.027 144.428 104.223 144.417 104.342 144.352L107.119 142.747C107.238 142.671 107.249 142.562 107.14 142.508L104.299 140.859C104.19 140.794 103.995 140.805 103.875 140.87L101.099 142.475C100.979 142.551 100.968 142.66 101.077 142.714Z" fill="#163072"/>
<path d="M97.3035 140.534L100.145 142.182C100.254 142.247 100.449 142.237 100.568 142.171L103.345 140.566C103.465 140.49 103.475 140.382 103.367 140.327L100.525 138.679C100.417 138.614 100.221 138.624 100.102 138.69L97.3252 140.295C97.2059 140.371 97.1951 140.479 97.3035 140.534Z" fill="#163072"/>
<path d="M93.5281 138.353L96.3701 140.002C96.4785 140.067 96.6738 140.056 96.7931 139.991L99.5699 138.386C99.6892 138.31 99.7001 138.201 99.5916 138.147L96.7497 136.498C96.6412 136.433 96.446 136.444 96.3267 136.509L93.5498 138.115C93.4305 138.19 93.4197 138.299 93.5281 138.353Z" fill="#163072"/>
<path d="M89.7645 136.173L92.6064 137.822C92.7149 137.887 92.9101 137.876 93.0294 137.811L95.8063 136.206C95.9256 136.13 95.9364 136.021 95.828 135.967L92.986 134.318C92.8776 134.253 92.6823 134.264 92.563 134.329L89.7862 135.935C89.6668 136.011 89.656 136.119 89.7645 136.173Z" fill="#163072"/>
<path d="M85.9891 133.993L88.831 135.642C88.9395 135.707 89.1347 135.696 89.254 135.631L92.0309 134.025C92.1502 133.949 92.161 133.841 92.0526 133.787L89.2106 132.138C89.1022 132.073 88.9069 132.084 88.7876 132.149L86.0108 133.754C85.8914 133.83 85.8806 133.939 85.9891 133.993Z" fill="#163072"/>
<path d="M82.2156 131.812L85.0576 133.461C85.166 133.526 85.3613 133.515 85.4806 133.45L88.2574 131.845C88.3767 131.769 88.3876 131.661 88.2791 131.606L85.4372 129.958C85.3287 129.892 85.1335 129.903 85.0142 129.968L82.2373 131.574C82.118 131.65 82.1072 131.758 82.2156 131.812Z" fill="#163072"/>
<path d="M78.4402 129.643L81.2822 131.292C81.3906 131.357 81.5859 131.346 81.7052 131.281L84.482 129.676C84.6014 129.6 84.6122 129.491 84.5037 129.437L81.6618 127.788C81.5533 127.723 81.3581 127.734 81.2388 127.799L78.4619 129.405C78.3426 129.48 78.3318 129.589 78.4402 129.643Z" fill="#163072"/>
<path d="M107.977 164.874L110.819 166.523C110.928 166.588 111.123 166.577 111.242 166.512L114.019 164.906C114.138 164.831 114.149 164.722 114.041 164.668L111.199 163.019C111.09 162.954 110.895 162.965 110.776 163.03L107.999 164.635C107.88 164.711 107.869 164.82 107.977 164.874Z" fill="#163072"/>
<path d="M104.202 162.694L107.044 164.342C107.152 164.408 107.348 164.397 107.467 164.332L110.244 162.726C110.363 162.65 110.374 162.542 110.265 162.488L107.424 160.839C107.315 160.774 107.12 160.785 107 160.85L104.224 162.455C104.104 162.531 104.093 162.64 104.202 162.694Z" fill="#163072"/>
<path d="M100.429 160.514L103.27 162.162C103.379 162.227 103.574 162.217 103.693 162.151L106.47 160.546C106.59 160.47 106.6 160.362 106.492 160.307L103.65 158.659C103.542 158.594 103.346 158.604 103.227 158.67L100.45 160.275C100.331 160.351 100.32 160.459 100.429 160.514Z" fill="#163072"/>
<path d="M96.6512 158.344L99.4931 159.993C99.6016 160.058 99.7968 160.047 99.9161 159.982L102.693 158.377C102.812 158.301 102.823 158.193 102.715 158.138L99.8727 156.49C99.7643 156.424 99.569 156.435 99.4497 156.5L96.6729 158.106C96.5536 158.182 96.5427 158.29 96.6512 158.344Z" fill="#163072"/>
<path d="M79.5153 144.709L82.1295 146.217L82.3681 146.358L84.7978 147.768L84.9714 147.866L86.9022 148.983L87.6398 149.406L88.5617 149.938L89.7441 150.621L90.8288 151.25L91.4037 151.586L92.3257 152.118L93.6707 152.888L94.4625 153.344L95.1784 153.756L96.1004 154.287L97.3045 154.982L98.9532 155.936C99.0617 156.001 99.0508 156.11 98.9315 156.175L96.1547 157.78C96.0353 157.856 95.8401 157.856 95.7316 157.791L94.0829 156.836L92.8789 156.142L91.9569 155.611L91.241 155.198L90.4491 154.743L89.1041 153.973L88.1821 153.441L87.6072 153.105L86.5225 152.476L85.3402 151.793L84.4182 151.261L83.6806 150.838L81.7498 149.721L81.5763 149.623L79.1465 148.213L78.9079 148.072L76.2938 146.564C76.1853 146.499 76.1961 146.391 76.3155 146.326L79.0923 144.72C79.2116 144.644 79.4069 144.644 79.5153 144.709Z" fill="#163072"/>
<path d="M75.0661 142.15L75.7495 142.551L77.908 143.799L78.5914 144.2C78.6999 144.265 78.689 144.373 78.5697 144.439L75.7929 146.044C75.6735 146.12 75.4783 146.12 75.3698 146.055L74.6865 145.653L72.5279 144.406L71.8445 144.005C71.7361 143.94 71.7469 143.831 71.8662 143.766L74.6431 142.161C74.7624 142.085 74.9576 142.085 75.0661 142.15Z" fill="#163072"/>
<path d="M68.0711 141.835L70.913 143.484C71.0215 143.549 71.2167 143.538 71.3361 143.473L74.1129 141.868C74.2322 141.792 74.2431 141.683 74.1346 141.629L71.2927 139.98C71.1842 139.915 70.989 139.926 70.8696 139.991L68.0928 141.597C67.9735 141.673 67.9626 141.781 68.0711 141.835Z" fill="#163072"/>
<path d="M64.3387 139.677L67.1806 141.325C67.2891 141.39 67.4843 141.38 67.6036 141.315L70.3805 139.709C70.4998 139.633 70.5106 139.525 70.4022 139.471L67.5602 137.822C67.4518 137.757 67.2565 137.768 67.1372 137.833L64.3604 139.438C64.2411 139.514 64.2302 139.622 64.3387 139.677Z" fill="#163072"/>
<path d="M60.6082 137.529L63.4501 139.178C63.5586 139.243 63.7539 139.232 63.8732 139.167L66.65 137.561C66.7693 137.486 66.7802 137.377 66.6717 137.323L63.8298 135.674C63.7213 135.609 63.5261 135.62 63.4067 135.685L60.6299 137.29C60.5106 137.366 60.4997 137.475 60.6082 137.529Z" fill="#163072"/>
<path d="M56.8758 135.37L59.7177 137.019C59.8262 137.084 60.0214 137.073 60.1407 137.008L62.9176 135.403C63.0369 135.327 63.0478 135.219 62.9393 135.164L60.0974 133.516C59.9889 133.451 59.7936 133.461 59.6743 133.526L56.8975 135.132C56.7782 135.208 56.7673 135.316 56.8758 135.37Z" fill="#163072"/>
<path d="M125.864 157.834L123.824 156.663L123.011 156.196L120.971 155.025C120.863 154.96 120.668 154.971 120.548 155.036L117.761 156.641C117.641 156.717 117.631 156.826 117.739 156.88L119.778 158.051L120.592 158.518L122.631 159.689C122.74 159.754 122.935 159.743 123.054 159.678L125.842 158.073C125.961 157.997 125.972 157.889 125.864 157.834Z" fill="#163072"/>
<path d="M75.3154 132.376L72.4734 130.727C72.365 130.662 72.3758 130.554 72.4951 130.489L75.272 128.883C75.3913 128.807 75.5865 128.807 75.695 128.872L78.5369 130.521C78.6454 130.586 78.6346 130.695 78.5152 130.76L75.7384 132.365C75.6191 132.441 75.4238 132.441 75.3154 132.376Z" fill="#163072"/>
<path d="M79.079 134.556L76.2371 132.907C76.1286 132.842 76.1395 132.734 76.2588 132.669L79.0357 131.064C79.155 130.988 79.3502 130.988 79.4587 131.053L82.3006 132.701C82.4091 132.766 82.3982 132.875 82.2789 132.94L79.5021 134.545C79.3828 134.621 79.1875 134.621 79.079 134.556Z" fill="#163072"/>
<path d="M82.8544 136.737L80.0125 135.088C79.904 135.023 79.9149 134.914 80.0342 134.849L82.811 133.244C82.9304 133.168 83.1256 133.168 83.2341 133.233L86.076 134.882C86.1845 134.947 86.1736 135.055 86.0543 135.12L83.2775 136.726C83.1581 136.802 82.9629 136.802 82.8544 136.737Z" fill="#163072"/>
<path d="M86.6279 138.917L83.7859 137.268C83.6775 137.203 83.6883 137.095 83.8076 137.029L86.5845 135.424C86.7038 135.348 86.899 135.348 87.0075 135.413L89.8494 137.062C89.9579 137.127 89.9471 137.236 89.8277 137.301L87.0509 138.906C86.9316 138.982 86.7363 138.982 86.6279 138.917Z" fill="#163072"/>
<path d="M90.4033 141.097L87.5613 139.449C87.4529 139.383 87.4637 139.275 87.583 139.21L90.3599 137.605C90.4792 137.529 90.6744 137.529 90.7829 137.594L93.6248 139.242C93.7333 139.308 93.7224 139.416 93.6031 139.481L90.8263 141.086C90.707 141.162 90.5117 141.162 90.4033 141.097Z" fill="#163072"/>
<path d="M94.1786 143.277L91.3367 141.628C91.2283 141.563 91.2391 141.455 91.3584 141.39L94.1353 139.784C94.2546 139.709 94.4498 139.709 94.5583 139.774L97.4002 141.422C97.5087 141.487 97.4978 141.596 97.3785 141.661L94.6017 143.266C94.4824 143.342 94.2871 143.342 94.1786 143.277Z" fill="#163072"/>
<path d="M97.9521 145.447L95.1102 143.798C95.0017 143.733 95.0125 143.625 95.1319 143.559L97.9087 141.954C98.028 141.878 98.2233 141.878 98.3317 141.943L101.174 143.592C101.282 143.657 101.271 143.766 101.152 143.831L98.3751 145.436C98.2558 145.512 98.0606 145.512 97.9521 145.447Z" fill="#163072"/>
<path d="M101.727 147.627L98.8856 145.979C98.7771 145.913 98.7879 145.805 98.9072 145.74L101.684 144.135C101.803 144.059 101.999 144.059 102.107 144.124L104.949 145.772C105.058 145.838 105.047 145.946 104.927 146.011L102.151 147.616C102.031 147.692 101.836 147.692 101.727 147.627Z" fill="#163072"/>
<path d="M105.503 149.807L102.661 148.158C102.552 148.093 102.563 147.985 102.683 147.92L105.459 146.314C105.579 146.239 105.774 146.239 105.883 146.304L108.724 147.952C108.833 148.017 108.822 148.126 108.703 148.191L105.926 149.796C105.807 149.872 105.611 149.872 105.503 149.807Z" fill="#163072"/>
<path d="M109.276 151.988L106.434 150.339C106.326 150.274 106.337 150.165 106.456 150.1L109.233 148.495C109.352 148.419 109.547 148.419 109.656 148.484L112.498 150.133C112.606 150.198 112.595 150.306 112.476 150.371L109.699 151.977C109.58 152.053 109.385 152.053 109.276 151.988Z" fill="#163072"/>
<path d="M113.052 154.168L110.21 152.519C110.101 152.454 110.112 152.346 110.231 152.281L113.008 150.675C113.128 150.599 113.323 150.599 113.431 150.664L116.273 152.313C116.382 152.378 116.371 152.487 116.252 152.552L113.475 154.157C113.355 154.233 113.16 154.233 113.052 154.168Z" fill="#163072"/>
<path d="M116.825 156.348L113.983 154.699C113.875 154.634 113.886 154.526 114.005 154.461L116.782 152.855C116.901 152.779 117.096 152.779 117.205 152.844L120.047 154.493C120.155 154.558 120.144 154.667 120.025 154.732L117.248 156.337C117.129 156.413 116.934 156.413 116.825 156.348Z" fill="#163072"/>
<path d="M115.764 156.555L117.012 157.271L117.804 157.726L118.617 158.193L119.051 158.442L119.865 158.908L120.656 159.364L121.904 160.08C122.012 160.145 122.002 160.253 121.882 160.329L119.094 161.935C118.975 162.011 118.78 162.011 118.671 161.946L117.424 161.23L116.632 160.774L115.819 160.308L115.385 160.058L114.571 159.592L113.779 159.136L112.532 158.42C112.424 158.355 112.434 158.247 112.554 158.171L115.341 156.565C115.461 156.49 115.656 156.49 115.764 156.555Z" fill="#163072"/>
<path d="M64.0457 131.237L65.2931 131.953L65.7053 132.192L66.0849 132.409L66.8985 132.875L66.9527 132.908L67.3324 133.125L67.7445 133.364L68.135 133.591L68.5472 133.83L68.9269 134.047L68.9811 134.079L69.7946 134.546L70.1743 134.763L70.5865 135.001L71.8339 135.717C71.9423 135.782 71.9315 135.891 71.8122 135.956L69.0245 137.561C68.9052 137.637 68.7099 137.637 68.6015 137.572L67.354 136.856L66.9419 136.618L66.5622 136.401L65.7487 135.934L65.6945 135.902L65.3148 135.685L64.9026 135.446L64.5121 135.218L64.0999 134.98L63.7203 134.763L63.6661 134.73L62.8525 134.264L62.4729 134.047L62.0607 133.808L60.8133 133.092C60.7048 133.027 60.7157 132.919 60.835 132.854L63.6227 131.248C63.742 131.172 63.9372 131.172 64.0457 131.237Z" fill="#163072"/>
<path d="M71.9207 126.693L74.7626 128.341C74.8711 128.406 74.8602 128.515 74.7409 128.58L73.4176 129.35L71.9641 130.196L71.0312 130.738L73.3959 132.105C73.5043 132.17 73.4935 132.279 73.3742 132.344L70.5973 133.949C70.478 134.025 70.2828 134.025 70.1743 133.96L67.6036 132.474L67.3215 132.311L64.7508 130.825C64.6423 130.76 64.6532 130.652 64.7725 130.587L67.3866 129.079L67.5602 128.981L68.71 128.32L70.1635 127.474L71.4868 126.703C71.6061 126.627 71.8014 126.627 71.9098 126.693H71.9207Z" fill="#163072"/>
<path d="M111.643 157.899L108.79 156.251C108.681 156.186 108.692 156.077 108.812 156.001L111.588 154.396C111.708 154.32 111.903 154.32 112.011 154.385L114.864 156.034C114.973 156.099 114.962 156.207 114.842 156.283L112.066 157.889C111.946 157.964 111.751 157.964 111.643 157.899Z" fill="#163072"/>
<path d="M106.015 159.201L103.173 157.552C103.064 157.487 103.075 157.378 103.194 157.313L105.971 155.708C106.091 155.632 106.286 155.632 106.394 155.697L109.236 157.346C109.345 157.411 109.334 157.519 109.214 157.585L106.438 159.19C106.318 159.266 106.123 159.266 106.015 159.201Z" fill="#163072"/>
<path d="M102.272 157.032L99.4305 155.383C99.322 155.318 99.3329 155.209 99.4522 155.144L102.229 153.539C102.348 153.463 102.544 153.463 102.652 153.528L105.494 155.177C105.602 155.242 105.592 155.35 105.472 155.415L102.695 157.021C102.576 157.097 102.381 157.097 102.272 157.032Z" fill="#163072"/>
<path d="M98.5302 154.873L95.6883 153.224C95.5798 153.159 95.5907 153.051 95.71 152.986L98.4868 151.38C98.6061 151.304 98.8014 151.304 98.9099 151.37L101.752 153.018C101.86 153.083 101.849 153.192 101.73 153.257L98.9532 154.862C98.8339 154.938 98.6387 154.938 98.5302 154.873Z" fill="#163072"/>
<path d="M94.788 152.715L91.9461 151.066C91.8376 151.001 91.8485 150.892 91.9678 150.827L94.7446 149.222C94.864 149.146 95.0592 149.146 95.1677 149.211L98.0096 150.86C98.1181 150.925 98.1072 151.033 97.9879 151.098L95.2111 152.704C95.0917 152.78 94.8965 152.78 94.788 152.715Z" fill="#163072"/>
<path d="M91.0458 150.556L88.2039 148.907C88.0954 148.842 88.1063 148.734 88.2256 148.669L91.0024 147.063C91.1218 146.987 91.317 146.987 91.4255 147.052L94.2674 148.701C94.3759 148.766 94.365 148.875 94.2457 148.94L91.4689 150.545C91.3496 150.621 91.1543 150.621 91.0458 150.556Z" fill="#163072"/>
<path d="M87.2919 148.386L84.45 146.738C84.3415 146.672 84.3524 146.564 84.4717 146.499L87.2485 144.894C87.3679 144.818 87.5631 144.818 87.6716 144.883L90.5135 146.531C90.622 146.597 90.6111 146.705 90.4918 146.77L87.715 148.375C87.5956 148.451 87.4004 148.451 87.2919 148.386Z" fill="#163072"/>
<path d="M83.5497 146.228L80.7078 144.579C80.5994 144.514 80.6102 144.406 80.7295 144.341L83.5064 142.735C83.6257 142.659 83.8209 142.659 83.9294 142.724L86.7713 144.373C86.8798 144.438 86.8689 144.547 86.7496 144.612L83.9728 146.217C83.8535 146.293 83.6582 146.293 83.5497 146.228Z" fill="#163072"/>
<path d="M79.8076 144.069L76.9656 142.421C76.8572 142.356 76.868 142.247 76.9873 142.182L79.7642 140.577C79.8835 140.501 80.0787 140.501 80.1872 140.566L83.0291 142.215C83.1376 142.28 83.1267 142.388 83.0074 142.453L80.2306 144.059C80.1113 144.135 79.916 144.135 79.8076 144.069Z" fill="#163072"/>
<path d="M76.0654 141.9L73.2234 140.251C73.115 140.186 73.1258 140.078 73.2451 140.013L76.022 138.407C76.1413 138.331 76.3365 138.331 76.445 138.396L79.2869 140.045C79.3954 140.11 79.3846 140.219 79.2652 140.284L76.4884 141.889C76.3691 141.965 76.1738 141.965 76.0654 141.9Z" fill="#163072"/>
<path d="M72.3232 139.742L69.4813 138.093C69.3728 138.028 69.3836 137.919 69.503 137.854L72.2798 136.249C72.3991 136.173 72.5944 136.173 72.7028 136.238L75.5447 137.887C75.6532 137.952 75.6424 138.06 75.5231 138.125L72.7462 139.731C72.6269 139.807 72.4316 139.807 72.3232 139.742Z" fill="#163072"/>
<path d="M107.834 155.708L104.981 154.06C104.873 153.995 104.884 153.886 105.003 153.81L107.78 152.205C107.899 152.129 108.094 152.129 108.203 152.194L111.056 153.843C111.164 153.908 111.153 154.016 111.034 154.092L108.257 155.698C108.138 155.774 107.942 155.774 107.834 155.708Z" fill="#163072"/>
<path d="M104.039 153.517L101.186 151.869C101.078 151.803 101.089 151.695 101.208 151.619L103.985 150.014C104.104 149.938 104.299 149.938 104.408 150.003L107.261 151.652C107.369 151.717 107.358 151.825 107.239 151.901L104.462 153.506C104.343 153.582 104.148 153.582 104.039 153.517Z" fill="#163072"/>
<path d="M100.242 151.315L97.3895 149.666C97.281 149.601 97.2918 149.493 97.4112 149.417L100.188 147.812C100.307 147.736 100.503 147.736 100.611 147.801L103.475 149.449C103.583 149.515 103.572 149.623 103.453 149.699L100.676 151.304C100.557 151.38 100.362 151.38 100.253 151.315H100.242Z" fill="#163072"/>
<path d="M96.5537 149.189L93.7117 147.541C93.6033 147.475 93.6141 147.367 93.7334 147.302L96.5103 145.697C96.6296 145.621 96.8248 145.621 96.9333 145.686L99.7752 147.334C99.8837 147.4 99.8728 147.508 99.7535 147.573L96.9767 149.178C96.8574 149.254 96.6621 149.254 96.5537 149.189Z" fill="#163072"/>
<path d="M92.7685 147.009L89.9266 145.36C89.8181 145.295 89.8289 145.187 89.9483 145.122L92.7251 143.516C92.8444 143.44 93.0397 143.44 93.1481 143.506L95.9901 145.154C96.0985 145.219 96.0877 145.328 95.9684 145.393L93.1915 146.998C93.0722 147.074 92.877 147.074 92.7685 147.009Z" fill="#163072"/>
<path d="M88.9833 144.818L86.1414 143.169C86.0329 143.104 86.0438 142.996 86.1631 142.931L88.94 141.325C89.0593 141.249 89.2545 141.249 89.363 141.314L92.2049 142.963C92.3134 143.028 92.3025 143.137 92.1832 143.202L89.4064 144.807C89.2871 144.883 89.0918 144.883 88.9833 144.818Z" fill="#163072"/>
<path d="M85.2079 142.638L82.366 140.989C82.2576 140.924 82.2684 140.815 82.3877 140.75L85.1646 139.145C85.2839 139.069 85.4791 139.069 85.5876 139.134L88.4295 140.783C88.538 140.848 88.5271 140.956 88.4078 141.021L85.631 142.627C85.5117 142.703 85.3164 142.703 85.2079 142.638Z" fill="#163072"/>
<path d="M81.4228 140.457L78.5809 138.809C78.4724 138.744 78.4832 138.635 78.6026 138.57L81.3794 136.965C81.4987 136.889 81.694 136.889 81.8024 136.954L84.6444 138.603C84.7528 138.668 84.742 138.776 84.6227 138.841L81.8458 140.447C81.7265 140.522 81.5313 140.522 81.4228 140.457Z" fill="#163072"/>
<path d="M77.6494 138.266L74.8074 136.617C74.699 136.552 74.7098 136.444 74.8291 136.379L77.606 134.773C77.7253 134.698 77.9205 134.698 78.029 134.763L80.8709 136.411C80.9794 136.476 80.9685 136.585 80.8492 136.65L78.0724 138.255C77.9531 138.331 77.7578 138.331 77.6494 138.266Z" fill="#163072"/>
<path d="M73.8622 136.086L71.0203 134.437C70.9119 134.372 70.9227 134.263 71.042 134.198L73.8189 132.593C73.9382 132.517 74.1334 132.517 74.2419 132.582L77.0838 134.231C77.1923 134.296 77.1814 134.404 77.0621 134.47L74.2853 136.075C74.166 136.151 73.9707 136.151 73.8622 136.086Z" fill="#163072"/>
<path d="M60.5954 152.573L80.5757 164.115C81.0204 164.375 81.8014 164.342 82.3112 164.039L91.7589 158.583C92.2688 158.29 92.3338 157.834 91.8891 157.574L71.9089 146.033C71.4642 145.772 70.6832 145.805 70.1734 146.109L60.7256 151.565C60.2158 151.858 60.1507 152.313 60.5954 152.573Z" fill="#94A6D3"/>
<g style="mix-blend-mode:multiply">
<path d="M60.7265 151.792L70.1742 146.336C70.684 146.044 71.465 146.011 71.9098 146.26L91.89 157.802C92.0418 157.888 92.1395 158.008 92.172 158.127C92.2262 157.921 92.1395 157.715 91.89 157.574L71.9098 146.033C71.465 145.772 70.684 145.805 70.1742 146.109L60.7265 151.565C60.3902 151.76 60.2492 152.02 60.3143 152.248C60.3577 152.085 60.4987 151.933 60.7265 151.803V151.792Z" fill="#94A6D3"/>
</g>
<path d="M82.3121 164.039C81.8023 164.332 81.0322 164.353 80.5766 164.093L60.618 152.573C60.1625 152.313 60.2167 151.868 60.7157 151.576L63.1346 150.176L84.731 162.639L82.3121 164.039Z" fill="url(#paint19_linear_2331_8510)"/>
<path d="M99.5809 160.817L100.828 161.533L101.24 161.772L101.62 161.989L102.434 162.455L102.488 162.488L102.868 162.705L103.28 162.943L103.681 163.171L104.093 163.41L104.473 163.627L104.527 163.659L105.341 164.126L105.72 164.343L106.132 164.581L107.38 165.297C107.488 165.362 107.477 165.471 107.358 165.547L104.57 167.152C104.451 167.228 104.256 167.228 104.147 167.163L102.9 166.447L102.488 166.208L102.108 165.991L101.295 165.525L101.24 165.492L100.861 165.275L100.449 165.037L100.047 164.809L99.6351 164.57L99.2555 164.353L99.2012 164.321L98.3877 163.854L98.008 163.638L97.5959 163.399L96.3484 162.683C96.24 162.618 96.2508 162.509 96.3701 162.434L99.147 160.828C99.2663 160.752 99.4615 160.752 99.57 160.817H99.5809Z" fill="#163072"/>
<path d="M139.063 105.747L81.5195 72.5225C81.1399 72.3055 80.7819 72.2947 80.5216 72.4682L79.5996 72.9347L80.0443 73.7265V117.06C80.0443 117.972 80.5975 119.035 81.2809 119.436L138.629 152.552L138.933 153.17L139.692 152.79C139.692 152.79 139.768 152.758 139.801 152.736C140.104 152.552 140.289 152.14 140.289 151.554V108.122C140.289 107.211 139.736 106.148 139.052 105.747H139.063Z" fill="#0F1551"/>
<path d="M137.925 153.116L80.3811 119.892C79.6977 119.501 79.1445 118.438 79.1445 117.516V74.0848C79.1445 73.0001 79.8062 72.5011 80.6197 72.9675L138.163 106.192C138.847 106.582 139.4 107.645 139.4 108.567V151.999C139.4 153.084 138.738 153.583 137.925 153.116Z" fill="url(#paint20_linear_2331_8510)"/>
<path d="M136.212 148.419L82.0959 117.18C81.4126 116.789 80.8594 115.726 80.8594 114.804V79.085C80.8594 78.0003 81.521 77.5013 82.3346 77.9678L136.45 109.207C137.134 109.598 137.687 110.661 137.687 111.583V147.302C137.687 148.387 137.025 148.886 136.212 148.419Z" fill="url(#paint21_linear_2331_8510)"/>
<path d="M127.024 147.953L87.2911 125.011C86.6728 124.653 86.1738 123.699 86.1738 122.885C86.1738 122.061 86.6728 121.692 87.2911 122.039L127.024 144.98C127.642 145.338 128.141 146.293 128.141 147.107C128.141 147.931 127.642 148.3 127.024 147.953Z" fill="#0C1B3F"/>
<path d="M129.486 115.965L115.938 123.785C115.526 123.275 115.049 122.842 114.539 122.538C114.029 122.245 113.552 122.137 113.14 122.158L103.985 106.3C104.212 105.953 104.364 105.486 104.364 104.901C104.364 103.046 103.063 100.8 101.457 99.8676C99.8519 98.9347 98.5503 99.694 98.5503 101.549C98.5503 102.135 98.6913 102.764 98.9299 103.382L89.775 108.665C89.3628 108.155 88.8856 107.721 88.3758 107.417C86.7704 106.495 85.4688 107.244 85.4688 109.098C85.4688 110.953 86.7704 113.199 88.3758 114.131C89.9811 115.064 91.2828 114.305 91.2828 112.45C91.2828 111.864 91.1417 111.235 90.9031 110.617L100.058 105.334C100.47 105.844 100.947 106.278 101.457 106.582C101.967 106.875 102.444 106.983 102.857 106.962L112.011 122.82C111.784 123.167 111.632 123.633 111.632 124.219C111.632 126.074 112.933 128.319 114.539 129.252C116.144 130.174 117.446 129.426 117.446 127.571C117.446 126.985 117.305 126.356 117.066 125.738L130.614 117.917L129.486 115.965ZM127.035 111.702L133.076 122.169V115.194L127.035 111.713V111.702Z" fill="white"/>
</g>
<defs>
<linearGradient id="paint0_linear_2331_8510" x1="135.041" y1="76.1129" x2="71.9" y2="76.1129" gradientUnits="userSpaceOnUse">
<stop stop-color="#183C77"/>
<stop offset="0.09" stop-color="#11357F"/>
<stop offset="0.25" stop-color="#092F89"/>
<stop offset="0.48" stop-color="#072D8C"/>
<stop offset="0.83" stop-color="#1548A1"/>
<stop offset="1" stop-color="#1E58AD"/>
</linearGradient>
<linearGradient id="paint1_linear_2331_8510" x1="135.041" y1="95.4748" x2="71.9008" y2="95.4748" gradientUnits="userSpaceOnUse">
<stop stop-color="#0E61E5"/>
<stop offset="0.23" stop-color="#0E61E5"/>
<stop offset="0.51" stop-color="#6EE1F8"/>
<stop offset="0.78" stop-color="#6EE8FC"/>
<stop offset="1" stop-color="#6EE8FC"/>
</linearGradient>
<linearGradient id="paint2_linear_2331_8510" x1="550.451" y1="-185.737" x2="511.759" y2="-193.183" gradientUnits="userSpaceOnUse">
<stop stop-color="#1A4AAA"/>
<stop offset="0.25" stop-color="#1C50B2"/>
<stop offset="0.64" stop-color="#2263C9"/>
<stop offset="1" stop-color="#2979E4"/>
</linearGradient>
<linearGradient id="paint3_linear_2331_8510" x1="545.393" y1="-186.712" x2="516.592" y2="-192.253" gradientUnits="userSpaceOnUse">
<stop stop-color="#0A2F8C"/>
<stop offset="0.83" stop-color="#123388"/>
<stop offset="1" stop-color="#153587"/>
</linearGradient>
<linearGradient id="paint4_linear_2331_8510" x1="94.0453" y1="94.5097" x2="216.703" y2="94.5097" gradientUnits="userSpaceOnUse">
<stop stop-color="#2047A8"/>
<stop offset="0.13" stop-color="#123898"/>
<stop offset="0.28" stop-color="#092F8E"/>
<stop offset="0.48" stop-color="#072D8C"/>
<stop offset="0.66" stop-color="#1243A7"/>
<stop offset="1" stop-color="#2C75E4"/>
</linearGradient>
<linearGradient id="paint5_linear_2331_8510" x1="203.521" y1="115.853" x2="278.679" y2="101.392" gradientUnits="userSpaceOnUse">
<stop stop-color="#143A99"/>
<stop offset="0.21" stop-color="#1641A1"/>
<stop offset="0.54" stop-color="#1C54B8"/>
<stop offset="0.94" stop-color="#2774DE"/>
<stop offset="1" stop-color="#2979E4"/>
</linearGradient>
<linearGradient id="paint6_linear_2331_8510" x1="110.328" y1="20.1527" x2="193.85" y2="39.352" gradientUnits="userSpaceOnUse">
<stop stop-color="#143A99"/>
<stop offset="0.21" stop-color="#1641A1"/>
<stop offset="0.54" stop-color="#1C54B8"/>
<stop offset="0.94" stop-color="#2774DE"/>
<stop offset="1" stop-color="#2979E4"/>
</linearGradient>
<linearGradient id="paint7_linear_2331_8510" x1="153.934" y1="79.3127" x2="153.934" y2="-13.8416" gradientUnits="userSpaceOnUse">
<stop stop-color="#267FE5"/>
<stop offset="0.69" stop-color="#103367" stop-opacity="0.0841"/>
<stop offset="1" stop-color="#081433" stop-opacity="0"/>
</linearGradient>
<linearGradient id="paint8_linear_2331_8510" x1="72.5488" y1="42.8882" x2="156.071" y2="62.0766" gradientUnits="userSpaceOnUse">
<stop stop-color="#143A99"/>
<stop offset="0.21" stop-color="#1641A1"/>
<stop offset="0.54" stop-color="#1C54B8"/>
<stop offset="0.94" stop-color="#2774DE"/>
<stop offset="1" stop-color="#2979E4"/>
</linearGradient>
<linearGradient id="paint9_linear_2331_8510" x1="257.753" y1="143.804" x2="354.024" y2="154.622" gradientUnits="userSpaceOnUse">
<stop stop-color="#143A99"/>
<stop offset="0.21" stop-color="#1641A1"/>
<stop offset="0.54" stop-color="#1C54B8"/>
<stop offset="0.94" stop-color="#2774DE"/>
<stop offset="1" stop-color="#2979E4"/>
</linearGradient>
<linearGradient id="paint10_linear_2331_8510" x1="244.225" y1="134.231" x2="181.084" y2="134.231" gradientUnits="userSpaceOnUse">
<stop stop-color="#183C77"/>
<stop offset="0.09" stop-color="#11357F"/>
<stop offset="0.25" stop-color="#092F89"/>
<stop offset="0.48" stop-color="#072D8C"/>
<stop offset="0.83" stop-color="#1548A1"/>
<stop offset="1" stop-color="#1E58AD"/>
</linearGradient>
<linearGradient id="paint11_linear_2331_8510" x1="244.225" y1="153.593" x2="181.084" y2="153.593" gradientUnits="userSpaceOnUse">
<stop stop-color="#0E61E5"/>
<stop offset="0.23" stop-color="#0E61E5"/>
<stop offset="0.51" stop-color="#6EE1F8"/>
<stop offset="0.78" stop-color="#6EE8FC"/>
<stop offset="1" stop-color="#6EE8FC"/>
</linearGradient>
<linearGradient id="paint12_linear_2331_8510" x1="607.173" y1="-97.343" x2="568.49" y2="-104.794" gradientUnits="userSpaceOnUse">
<stop stop-color="#1A4AAA"/>
<stop offset="0.25" stop-color="#1C50B2"/>
<stop offset="0.64" stop-color="#2263C9"/>
<stop offset="1" stop-color="#2979E4"/>
</linearGradient>
<linearGradient id="paint13_linear_2331_8510" x1="602.128" y1="-98.3134" x2="573.328" y2="-103.855" gradientUnits="userSpaceOnUse">
<stop stop-color="#0A2F8C"/>
<stop offset="0.83" stop-color="#123388"/>
<stop offset="1" stop-color="#153587"/>
</linearGradient>
<linearGradient id="paint14_linear_2331_8510" x1="187.864" y1="149.797" x2="157.546" y2="149.797" gradientUnits="userSpaceOnUse">
<stop stop-color="#183C77"/>
<stop offset="0.09" stop-color="#11357F"/>
<stop offset="0.25" stop-color="#092F89"/>
<stop offset="0.48" stop-color="#072D8C"/>
<stop offset="0.83" stop-color="#1548A1"/>
<stop offset="1" stop-color="#1E58AD"/>
</linearGradient>
<linearGradient id="paint15_linear_2331_8510" x1="187.864" y1="158.887" x2="157.546" y2="158.887" gradientUnits="userSpaceOnUse">
<stop stop-color="#0E61E5"/>
<stop offset="0.23" stop-color="#0E61E5"/>
<stop offset="0.51" stop-color="#6EE1F8"/>
<stop offset="0.78" stop-color="#6EE8FC"/>
<stop offset="1" stop-color="#6EE8FC"/>
</linearGradient>
<linearGradient id="paint16_linear_2331_8510" x1="555.443" y1="-72.7871" x2="536.869" y2="-76.3667" gradientUnits="userSpaceOnUse">
<stop stop-color="#1A4AAA"/>
<stop offset="0.25" stop-color="#1C50B2"/>
<stop offset="0.64" stop-color="#2263C9"/>
<stop offset="1" stop-color="#2979E4"/>
</linearGradient>
<linearGradient id="paint17_linear_2331_8510" x1="553.019" y1="-73.2542" x2="539.184" y2="-75.913" gradientUnits="userSpaceOnUse">
<stop stop-color="#0A2F8C"/>
<stop offset="0.83" stop-color="#123388"/>
<stop offset="1" stop-color="#153587"/>
</linearGradient>
<linearGradient id="paint18_linear_2331_8510" x1="39" y1="149.536" x2="138.164" y2="149.536" gradientUnits="userSpaceOnUse">
<stop stop-color="#0430A0"/>
<stop offset="0.58" stop-color="#032886"/>
<stop offset="1" stop-color="#032272"/>
</linearGradient>
<linearGradient id="paint19_linear_2331_8510" x1="60.3035" y1="157.227" x2="84.731" y2="157.227" gradientUnits="userSpaceOnUse">
<stop stop-color="#0430A0"/>
<stop offset="0.58" stop-color="#032886"/>
<stop offset="1" stop-color="#032272"/>
</linearGradient>
<linearGradient id="paint20_linear_2331_8510" x1="85.7395" y1="67.1318" x2="122.967" y2="139.774" gradientUnits="userSpaceOnUse">
<stop stop-color="#62A2D6"/>
<stop offset="0.24" stop-color="#5088BE"/>
<stop offset="0.74" stop-color="#244781"/>
<stop offset="1" stop-color="#0D2560"/>
</linearGradient>
<linearGradient id="paint21_linear_2331_8510" x1="88.7777" y1="62.1745" x2="124.801" y2="151.869" gradientUnits="userSpaceOnUse">
<stop stop-color="#002747"/>
<stop offset="0.31" stop-color="#052D60"/>
<stop offset="0.96" stop-color="#153DA1"/>
<stop offset="1" stop-color="#163FA5"/>
</linearGradient>
<clipPath id="clip0_2331_8510">
<rect width="200" height="176.238" fill="white" transform="translate(39 2)"/>
</clipPath>
</defs>
</svg>
