<svg width="43" height="32" viewBox="0 0 43 32" fill="none" xmlns="http://www.w3.org/2000/svg">
<g clip-path="url(#clip0_2343_141)">
<path d="M28.427 16.0053C28.427 12.217 25.3373 9.12842 21.5501 9.12842C17.7628 9.12842 14.6699 12.2181 14.6699 16.0053C14.6699 19.7926 17.7617 22.8823 21.5501 22.8823C25.3384 22.8823 28.427 19.7926 28.427 16.0053Z" fill="white"/>
<path d="M0.141034 20.8121L19.5183 12.8019L21.5574 19.6702L0.208644 21.207C-0.0253087 21.2167 -0.0832603 20.8818 0.142107 20.811L0.141034 20.8121Z" fill="white"/>
<path d="M42.4537 11.2866L23.0625 19.2399L21.0234 12.2643L42.3861 10.8906C42.6201 10.8809 42.678 11.2158 42.4526 11.2866H42.4537Z" fill="white"/>
<path d="M30.3359 22.3285C28.3709 25.0565 25.1675 26.8316 21.5498 26.8316C16.0777 26.8316 11.5564 22.775 10.8266 17.5035C10.8213 17.5904 10.8159 17.6763 10.8116 17.7632C9.50018 9.88611 13.0696 3.20558 19.925 0C11.8021 0.814542 5.46289 7.67107 5.46289 16.0054C5.46289 23.67 10.8213 30.0812 17.9976 31.6974C23.1006 31.3883 27.8011 27.7878 30.3359 22.3285Z" fill="white"/>
<path d="M25.1967 0.333715C20.0937 0.612741 15.3739 4.1832 12.8047 9.62314C14.774 6.92839 17.957 5.17804 21.5511 5.17804C26.9996 5.17804 31.5069 9.20674 32.2625 14.4471C32.2678 14.3548 32.2732 14.2636 32.2775 14.1702C33.6415 22.043 30.1129 28.7504 23.2725 31.9989C31.346 31.1393 37.638 24.3085 37.638 16.0042C37.638 8.37503 32.3247 1.98533 25.1977 0.332642L25.1967 0.333715Z" fill="white"/>
</g>
<defs>
<clipPath id="clip0_2343_141">
<rect width="42.5933" height="32" fill="white"/>
</clipPath>
</defs>
</svg>
