<svg width="187" height="172" viewBox="0 0 187 172" fill="none" xmlns="http://www.w3.org/2000/svg">
<path d="M169.859 16.6692L153.115 33.4484L159.145 49.2715L175.892 32.4923L169.859 16.6692Z" fill="url(#paint0_linear_2339_2)"/>
<path d="M153.115 33.4483L135.203 23.095L141.233 38.9181L159.145 49.2715L153.115 33.4483Z" fill="url(#paint1_linear_2339_2)"/>
<path d="M151.947 6.3158L135.203 23.095L153.115 33.4484L169.858 16.6692L151.947 6.3158Z" fill="url(#paint2_linear_2339_2)"/>
<path d="M135.203 23.095L153.115 33.4484L169.858 16.6692L153.115 32.3262L135.203 23.095Z" fill="#8CF5FC"/>
<path d="M70.3511 99.02L53.6074 115.799L59.6374 131.622L76.3842 114.843L70.3511 99.02Z" fill="#D2D3EF"/>
<path d="M53.6068 115.799L35.6953 105.446L41.7253 121.269L59.6368 131.622L53.6068 115.799Z" fill="#ACAADC"/>
<path d="M52.439 88.6666L35.6953 105.446L53.6068 115.799L70.3505 99.02L52.439 88.6666Z" fill="#F3F2F8"/>
<path d="M97.7984 117.31L81.0547 134.089L87.0847 149.913L103.832 133.133L97.7984 117.31Z" fill="url(#paint3_linear_2339_2)"/>
<path d="M81.0541 134.089L63.1426 123.736L69.1726 139.559L87.0841 149.913L81.0541 134.089Z" fill="url(#paint4_linear_2339_2)"/>
<path d="M79.8863 106.957L63.1426 123.736L81.0541 134.089L97.7978 117.31L79.8863 106.957Z" fill="url(#paint5_linear_2339_2)"/>
<path d="M63.1426 123.736L81.0541 134.089L97.7978 117.31L81.0541 132.967L63.1426 123.736Z" fill="#8CF5FC"/>
<path d="M118.144 54.9893L101.4 71.7684L107.43 87.5916L124.177 70.8124L118.144 54.9893Z" fill="#D2D3EF"/>
<path d="M101.4 71.7683L83.4883 61.4149L89.5183 77.2381L107.43 87.5914L101.4 71.7683Z" fill="#ACAADC"/>
<path d="M100.232 44.6357L83.4883 61.4149L101.4 71.7683L118.143 54.9891L100.232 44.6357Z" fill="#F3F2F8"/>
<path d="M95.7925 77.5391L79.0488 94.3214L85.0788 110.145L101.826 93.3653L95.7925 77.5391Z" fill="#D2D3EF"/>
<path d="M79.0482 94.3214L61.1367 83.968L67.1667 99.7912L85.0782 110.145L79.0482 94.3214Z" fill="#ACAADC"/>
<path d="M77.8804 67.1858L61.1367 83.9681L79.0482 94.3215L95.7919 77.5392L77.8804 67.1858Z" fill="#F3F2F8"/>
<path d="M142.089 69.2168L125.342 85.996L131.375 101.819L148.119 85.0399L142.089 69.2168Z" fill="#D2D3EF"/>
<path d="M125.341 85.996L107.43 75.6426L113.463 91.4657L131.374 101.819L125.341 85.996Z" fill="#ACAADC"/>
<path d="M124.177 58.8634L107.43 75.6426L125.341 85.996L142.088 69.2168L124.177 58.8634Z" fill="#F3F2F8"/>
<path d="M119.736 91.7698L102.992 108.549L109.022 124.372L125.769 107.593L119.736 91.7698Z" fill="#D2D3EF"/>
<path d="M102.993 108.549L85.0781 98.1957L91.1112 114.019L109.023 124.372L102.993 108.549Z" fill="#ACAADC"/>
<path d="M101.825 81.4164L85.0781 98.1956L102.993 108.549L119.736 91.7698L101.825 81.4164Z" fill="#F3F2F8"/>
<path d="M166.469 83.899L149.723 100.678L155.756 116.501L172.503 99.7222L166.469 83.899Z" fill="url(#paint6_linear_2339_2)"/>
<path d="M149.722 100.678L131.811 90.3248L137.844 106.148L155.755 116.501L149.722 100.678Z" fill="url(#paint7_linear_2339_2)"/>
<path d="M148.557 73.5457L131.811 90.3248L149.722 100.678L166.469 83.899L148.557 73.5457Z" fill="#F3F2F8"/>
<path d="M144.117 106.452L127.373 123.231L133.403 139.054L150.15 122.275L144.117 106.452Z" fill="#D2D3EF"/>
<path d="M127.372 123.231L109.461 112.878L115.491 128.701L133.402 139.054L127.372 123.231Z" fill="#ACAADC"/>
<path d="M126.205 96.0986L109.461 112.878L127.372 123.231L144.116 106.452L126.205 96.0986Z" fill="#F3F2F8"/>
<path d="M122.402 128.434L105.658 145.214L111.688 161.04L128.435 144.258L122.402 128.434Z" fill="url(#paint8_linear_2339_2)"/>
<path d="M105.658 145.214L87.7461 134.86L93.7761 150.687L111.688 161.04L105.658 145.214Z" fill="url(#paint9_linear_2339_2)"/>
<path d="M104.49 118.081L87.7461 134.86L105.658 145.214L122.401 128.434L104.49 118.081Z" fill="#F3F2F8"/>
<path d="M107.977 32.9065L91.2305 49.6857L97.2636 65.5088L114.007 48.7296L107.977 32.9065Z" fill="#D2D3EF"/>
<path d="M91.2299 49.6857L73.3184 39.3323L79.3515 55.1554L97.263 65.5088L91.2299 49.6857Z" fill="#ACAADC"/>
<path d="M90.0652 22.5531L73.3184 39.3323L91.2299 49.6857L107.977 32.9065L90.0652 22.5531Z" fill="#F3F2F8"/>
<path d="M85.6257 55.4562L68.8789 72.2385L74.912 88.0616L91.6557 71.2825L85.6257 55.4562Z" fill="#D2D3EF"/>
<path d="M68.8783 72.2385L50.9668 61.8851L56.9999 77.7083L74.9114 88.0617L68.8783 72.2385Z" fill="#ACAADC"/>
<path d="M67.7136 45.1028L50.9668 61.8851L68.8783 72.2385L85.6251 55.4562L67.7136 45.1028Z" fill="#F3F2F8"/>
<path d="M63.9109 77.4419L47.1641 94.2211L53.1972 110.044L69.9409 93.265L63.9109 77.4419Z" fill="#D2D3EF"/>
<path d="M47.1635 94.2211L29.252 83.8677L35.2851 99.6908L53.1966 110.044L47.1635 94.2211Z" fill="#ACAADC"/>
<path d="M45.9988 67.0885L29.252 83.8677L47.1635 94.2211L63.9103 77.4419L45.9988 67.0885Z" fill="#F3F2F8"/>
<path d="M131.919 47.1343L115.176 63.9135L121.209 79.7366L137.953 62.9574L131.919 47.1343Z" fill="#D2D3EF"/>
<path d="M115.175 63.9134L97.2637 53.5601L103.297 69.3832L121.208 79.7366L115.175 63.9134Z" fill="#ACAADC"/>
<path d="M114.007 36.7809L97.2637 53.5601L115.175 63.9134L131.919 47.1343L114.007 36.7809Z" fill="#F3F2F8"/>
<path d="M109.571 69.6841L92.8242 86.4664L98.8573 102.29L115.601 85.5104L109.571 69.6841Z" fill="#D2D3EF"/>
<path d="M92.8236 86.4664L74.9121 76.113L80.9452 91.9362L98.8567 102.29L92.8236 86.4664Z" fill="#ACAADC"/>
<path d="M91.6558 59.3307L74.9121 76.113L92.8236 86.4664L109.57 69.6841L91.6558 59.3307Z" fill="#F3F2F8"/>
<path d="M87.8511 91.6696L71.1074 108.449L77.1405 124.272L93.8842 107.493L87.8511 91.6696Z" fill="#D2D3EF"/>
<path d="M71.1068 108.449L53.1953 98.0953L59.2284 113.918L77.1399 124.272L71.1068 108.449Z" fill="#ACAADC"/>
<path d="M69.939 81.3162L53.1953 98.0953L71.1068 108.449L87.8505 91.6695L69.939 81.3162Z" fill="#F3F2F8"/>
<path d="M156.298 61.8164L139.555 78.5956L145.588 94.4187L162.332 77.6396L156.298 61.8164Z" fill="url(#paint10_linear_2339_2)"/>
<path d="M139.554 78.5956L121.643 68.2422L127.676 84.0653L145.587 94.4187L139.554 78.5956Z" fill="#ACAADC"/>
<path d="M138.386 51.463L121.643 68.2422L139.554 78.5956L156.298 61.8164L138.386 51.463Z" fill="#F3F2F8"/>
<path d="M133.952 84.3693L117.205 101.148L123.238 116.972L139.982 100.192L133.952 84.3693Z" fill="url(#paint11_linear_2339_2)"/>
<path d="M117.204 101.148L99.293 90.795L105.326 106.618L123.238 116.972L117.204 101.148Z" fill="#ACAADC"/>
<path d="M116.04 74.0159L99.293 90.7951L117.204 101.148L133.951 84.3692L116.04 74.0159Z" fill="#F3F2F8"/>
<path d="M112.235 106.352L95.4883 123.131L101.521 138.954L118.265 122.175L112.235 106.352Z" fill="url(#paint12_linear_2339_2)"/>
<path d="M95.4877 123.131L77.5762 112.778L83.6093 128.601L101.521 138.954L95.4877 123.131Z" fill="url(#paint13_linear_2339_2)"/>
<path d="M94.323 95.9984L77.5762 112.778L95.4877 123.131L112.235 106.352L94.323 95.9984Z" fill="#F3F2F8"/>
<path d="M99.0679 10.3534L82.3242 27.1326L88.3573 42.9557L105.101 26.1765L99.0679 10.3534Z" fill="#D2D3EF"/>
<path d="M82.3236 27.1326L64.4121 16.7792L70.4452 32.6023L88.3567 42.9557L82.3236 27.1326Z" fill="#ACAADC"/>
<path d="M81.1558 0L64.4121 16.7792L82.3236 27.1326L99.0673 10.3534L81.1558 0Z" fill="#F3F2F8"/>
<path d="M123.011 24.5811L106.268 41.3602L112.298 57.1834L129.044 40.4042L123.011 24.5811Z" fill="url(#paint14_linear_2339_2)"/>
<path d="M106.267 41.3603L88.3555 31.007L94.3855 46.8301L112.297 57.1835L106.267 41.3603Z" fill="url(#paint15_linear_2339_2)"/>
<path d="M105.099 14.2278L88.3555 31.007L106.267 41.3603L123.011 24.5812L105.099 14.2278Z" fill="#F3F2F8"/>
<path d="M76.2906 33.4109L59.5469 50.1901L65.58 66.0132L82.3237 49.234L76.2906 33.4109Z" fill="url(#paint16_linear_2339_2)"/>
<path d="M59.5463 50.1902L41.6348 39.8368L47.6679 55.6599L65.5794 66.0133L59.5463 50.1902Z" fill="url(#paint17_linear_2339_2)"/>
<path d="M58.3785 23.0576L41.6348 39.8368L59.5463 50.1902L76.29 33.411L58.3785 23.0576Z" fill="url(#paint18_linear_2339_2)"/>
<path d="M41.6348 39.8369L59.5463 50.1903L76.29 33.4111L59.5463 49.0682L41.6348 39.8369Z" fill="#8CF5FC"/>
<path d="M54.9996 54.889L38.2559 71.6682L44.289 87.4945L61.0327 70.7122L54.9996 54.889Z" fill="url(#paint19_linear_2339_2)"/>
<path d="M38.2552 71.6682L20.3438 61.3148L26.3769 77.1411L44.2884 87.4945L38.2552 71.6682Z" fill="url(#paint20_linear_2339_2)"/>
<path d="M37.0874 44.5356L20.3438 61.3148L38.2552 71.6682L54.9989 54.889L37.0874 44.5356Z" fill="#F3F2F8"/>
<path d="M100.662 47.134L83.918 63.9132L89.9511 79.7364L106.695 62.9572L100.662 47.134Z" fill="#D2D3EF"/>
<path d="M83.9174 63.9132L66.0059 53.5598L72.039 69.383L89.9505 79.7363L83.9174 63.9132Z" fill="#ACAADC"/>
<path d="M82.7496 36.7806L66.0059 53.5598L83.9174 63.9132L100.661 47.134L82.7496 36.7806Z" fill="#F3F2F8"/>
<path d="M78.7222 68.6119L61.9785 85.3911L68.0116 101.214L84.7553 84.4351L78.7222 68.6119Z" fill="url(#paint21_linear_2339_2)"/>
<path d="M61.9779 85.3911L44.0664 75.0377L50.0995 90.8609L68.011 101.214L61.9779 85.3911Z" fill="url(#paint22_linear_2339_2)"/>
<path d="M60.8101 58.2585L44.0664 75.0377L61.9779 85.3911L78.7216 68.6119L60.8101 58.2585Z" fill="url(#paint23_linear_2339_2)"/>
<path d="M44.0664 75.0376L61.9779 85.391L78.7216 68.6118L61.9779 84.2688L44.0664 75.0376Z" fill="#8CF5FC"/>
<path d="M78.2222 138.788L61.4785 155.567L67.5085 171.393L84.2553 154.611L78.2222 138.788Z" fill="url(#paint24_linear_2339_2)"/>
<path d="M61.4779 155.567L43.5664 145.214L49.5964 161.04L67.5079 171.393L61.4779 155.567Z" fill="url(#paint25_linear_2339_2)"/>
<path d="M60.3101 128.435L43.5664 145.214L61.4779 155.567L78.2216 138.788L60.3101 128.435Z" fill="url(#paint26_linear_2339_2)"/>
<path d="M43.5664 145.214L61.4779 155.567L78.2216 138.788L61.4779 154.445L43.5664 145.214Z" fill="#8CF5FC"/>
<path d="M148.261 39.0659L131.518 55.8451L137.548 71.6682L154.294 54.8891L148.261 39.0659Z" fill="url(#paint27_linear_2339_2)"/>
<path d="M131.517 55.8451L113.605 45.4917L119.635 61.3148L137.547 71.6682L131.517 55.8451Z" fill="url(#paint28_linear_2339_2)"/>
<path d="M130.349 28.7125L113.605 45.4917L131.517 55.8451L148.261 39.0659L130.349 28.7125Z" fill="url(#paint29_linear_2339_2)"/>
<path d="M113.605 45.4916L131.517 55.845L148.261 39.0658L131.517 54.7228L113.605 45.4916Z" fill="#8CF5FC"/>
<path d="M68.3355 13.3936L51.5918 30.1727L57.6218 45.9959L74.3686 29.2167L68.3355 13.3936Z" fill="url(#paint30_linear_2339_2)"/>
<path d="M51.5912 30.1728L33.6797 19.8195L39.7097 35.6426L57.6212 45.996L51.5912 30.1728Z" fill="url(#paint31_linear_2339_2)"/>
<path d="M50.4234 3.04041L33.6797 19.8196L51.5912 30.173L68.3349 13.3938L50.4234 3.04041Z" fill="url(#paint32_linear_2339_2)"/>
<path d="M33.6797 19.8195L51.5912 30.1729L68.3349 13.3937L51.5912 29.0507L33.6797 19.8195Z" fill="#8CF5FC"/>
<path d="M125.041 61.8162L108.297 78.5953L114.33 94.4185L131.074 77.6393L125.041 61.8162Z" fill="#D2D3EF"/>
<path d="M108.296 78.5954L90.3848 68.2421L96.4179 84.0652L114.329 94.4186L108.296 78.5954Z" fill="#ACAADC"/>
<path d="M107.128 51.4628L90.3848 68.242L108.296 78.5953L125.04 61.8162L107.128 51.4628Z" fill="#F3F2F8"/>
<path d="M34.6558 74.8623L17.9121 91.6415L23.9452 107.465L40.6889 90.6855L34.6558 74.8623Z" fill="url(#paint33_linear_2339_2)"/>
<path d="M17.9135 91.6413L0.00195312 81.288L6.03507 97.1111L23.9466 107.464L17.9135 91.6413Z" fill="url(#paint34_linear_2339_2)"/>
<path d="M16.7457 64.5088L0.00195312 81.288L17.9135 91.6413L34.6572 74.8622L16.7457 64.5088Z" fill="url(#paint35_linear_2339_2)"/>
<path d="M0.00195312 81.2881L17.9135 91.6415L34.6572 74.8623L17.9135 90.5193L0.00195312 81.2881Z" fill="#8CF5FC"/>
<defs>
<linearGradient id="paint0_linear_2339_2" x1="170.241" y1="23.1326" x2="138.535" y2="77.3682" gradientUnits="userSpaceOnUse">
<stop stop-color="#41D1DA"/>
<stop offset="1" stop-color="#038BE1"/>
</linearGradient>
<linearGradient id="paint1_linear_2339_2" x1="237.547" y1="55.0108" x2="129.125" y2="32.4776" gradientUnits="userSpaceOnUse">
<stop stop-color="#41D1DA"/>
<stop offset="1" stop-color="#038BE1"/>
</linearGradient>
<linearGradient id="paint2_linear_2339_2" x1="135.203" y1="19.8821" x2="169.858" y2="19.8821" gradientUnits="userSpaceOnUse">
<stop stop-color="#41D1DA"/>
<stop offset="1" stop-color="#42FFFF"/>
</linearGradient>
<linearGradient id="paint3_linear_2339_2" x1="98.1803" y1="123.774" x2="66.4749" y2="178.009" gradientUnits="userSpaceOnUse">
<stop stop-color="#41D1DA"/>
<stop offset="1" stop-color="#038BE1"/>
</linearGradient>
<linearGradient id="paint4_linear_2339_2" x1="165.486" y1="155.652" x2="57.0644" y2="133.119" gradientUnits="userSpaceOnUse">
<stop stop-color="#41D1DA"/>
<stop offset="1" stop-color="#038BE1"/>
</linearGradient>
<linearGradient id="paint5_linear_2339_2" x1="63.1426" y1="120.523" x2="97.7978" y2="120.523" gradientUnits="userSpaceOnUse">
<stop stop-color="#41D1DA"/>
<stop offset="1" stop-color="#42FFFF"/>
</linearGradient>
<linearGradient id="paint6_linear_2339_2" x1="159.021" y1="102.264" x2="111.832" y2="148.725" gradientUnits="userSpaceOnUse">
<stop stop-color="#41D1DA"/>
<stop offset="1" stop-color="#038BE1"/>
</linearGradient>
<linearGradient id="paint7_linear_2339_2" x1="131.811" y1="103.415" x2="155.755" y2="103.415" gradientUnits="userSpaceOnUse">
<stop stop-color="#41D1DA"/>
<stop offset="1" stop-color="#038BE1"/>
</linearGradient>
<linearGradient id="paint8_linear_2339_2" x1="131.3" y1="131.983" x2="45.6912" y2="208.399" gradientUnits="userSpaceOnUse">
<stop stop-color="#41D1DA"/>
<stop offset="1" stop-color="#038BE1"/>
</linearGradient>
<linearGradient id="paint9_linear_2339_2" x1="-21.4104" y1="164.344" x2="135.492" y2="143.156" gradientUnits="userSpaceOnUse">
<stop stop-color="#41D1DA"/>
<stop offset="1" stop-color="#038BE1"/>
</linearGradient>
<linearGradient id="paint10_linear_2339_2" x1="179.874" y1="107.863" x2="204.819" y2="133.452" gradientUnits="userSpaceOnUse">
<stop stop-color="#41D1DA"/>
<stop offset="1" stop-color="#038BE1"/>
</linearGradient>
<linearGradient id="paint11_linear_2339_2" x1="157.142" y1="130.024" x2="182.087" y2="155.613" gradientUnits="userSpaceOnUse">
<stop stop-color="#41D1DA"/>
<stop offset="1" stop-color="#038BE1"/>
</linearGradient>
<linearGradient id="paint12_linear_2339_2" x1="135.018" y1="151.589" x2="159.964" y2="177.179" gradientUnits="userSpaceOnUse">
<stop stop-color="#41D1DA"/>
<stop offset="1" stop-color="#038BE1"/>
</linearGradient>
<linearGradient id="paint13_linear_2339_2" x1="29.9437" y1="104.402" x2="76.756" y2="121.221" gradientUnits="userSpaceOnUse">
<stop stop-color="#41D1DA"/>
<stop offset="1" stop-color="#038BE1"/>
</linearGradient>
<linearGradient id="paint14_linear_2339_2" x1="140.519" y1="20.9607" x2="-5.07535" y2="147.532" gradientUnits="userSpaceOnUse">
<stop stop-color="#41D1DA"/>
<stop offset="1" stop-color="#038BE1"/>
</linearGradient>
<linearGradient id="paint15_linear_2339_2" x1="88.3555" y1="44.0968" x2="112.297" y2="44.0968" gradientUnits="userSpaceOnUse">
<stop stop-color="#41D1DA"/>
<stop offset="1" stop-color="#038BE1"/>
</linearGradient>
<linearGradient id="paint16_linear_2339_2" x1="76.6725" y1="39.8743" x2="44.9702" y2="94.1099" gradientUnits="userSpaceOnUse">
<stop stop-color="#41D1DA"/>
<stop offset="1" stop-color="#038BE1"/>
</linearGradient>
<linearGradient id="paint17_linear_2339_2" x1="143.982" y1="71.7527" x2="35.5597" y2="49.2194" gradientUnits="userSpaceOnUse">
<stop stop-color="#41D1DA"/>
<stop offset="1" stop-color="#038BE1"/>
</linearGradient>
<linearGradient id="paint18_linear_2339_2" x1="41.6348" y1="36.6239" x2="76.29" y2="36.6239" gradientUnits="userSpaceOnUse">
<stop stop-color="#41D1DA"/>
<stop offset="1" stop-color="#42FFFF"/>
</linearGradient>
<linearGradient id="paint19_linear_2339_2" x1="35.507" y1="80.9527" x2="109.294" y2="30.1325" gradientUnits="userSpaceOnUse">
<stop stop-color="#41D1DA"/>
<stop offset="1" stop-color="#038BE1"/>
</linearGradient>
<linearGradient id="paint20_linear_2339_2" x1="-19.7059" y1="43.0843" x2="30.1558" y2="73.0329" gradientUnits="userSpaceOnUse">
<stop stop-color="#41D1DA"/>
<stop offset="1" stop-color="#038BE1"/>
</linearGradient>
<linearGradient id="paint21_linear_2339_2" x1="79.1042" y1="75.0754" x2="47.4019" y2="129.311" gradientUnits="userSpaceOnUse">
<stop stop-color="#41D1DA"/>
<stop offset="1" stop-color="#038BE1"/>
</linearGradient>
<linearGradient id="paint22_linear_2339_2" x1="146.413" y1="106.954" x2="37.9914" y2="84.4204" gradientUnits="userSpaceOnUse">
<stop stop-color="#41D1DA"/>
<stop offset="1" stop-color="#038BE1"/>
</linearGradient>
<linearGradient id="paint23_linear_2339_2" x1="44.0664" y1="71.8248" x2="78.7216" y2="71.8248" gradientUnits="userSpaceOnUse">
<stop stop-color="#41D1DA"/>
<stop offset="1" stop-color="#42FFFF"/>
</linearGradient>
<linearGradient id="paint24_linear_2339_2" x1="78.6042" y1="145.251" x2="46.8987" y2="199.487" gradientUnits="userSpaceOnUse">
<stop stop-color="#41D1DA"/>
<stop offset="1" stop-color="#038BE1"/>
</linearGradient>
<linearGradient id="paint25_linear_2339_2" x1="145.91" y1="177.13" x2="37.4882" y2="154.596" gradientUnits="userSpaceOnUse">
<stop stop-color="#41D1DA"/>
<stop offset="1" stop-color="#038BE1"/>
</linearGradient>
<linearGradient id="paint26_linear_2339_2" x1="43.5664" y1="142.001" x2="78.2216" y2="142.001" gradientUnits="userSpaceOnUse">
<stop stop-color="#41D1DA"/>
<stop offset="1" stop-color="#42FFFF"/>
</linearGradient>
<linearGradient id="paint27_linear_2339_2" x1="148.643" y1="45.5293" x2="116.938" y2="99.7649" gradientUnits="userSpaceOnUse">
<stop stop-color="#41D1DA"/>
<stop offset="1" stop-color="#038BE1"/>
</linearGradient>
<linearGradient id="paint28_linear_2339_2" x1="215.952" y1="77.4076" x2="107.527" y2="54.8744" gradientUnits="userSpaceOnUse">
<stop stop-color="#41D1DA"/>
<stop offset="1" stop-color="#038BE1"/>
</linearGradient>
<linearGradient id="paint29_linear_2339_2" x1="113.605" y1="42.2788" x2="148.261" y2="42.2788" gradientUnits="userSpaceOnUse">
<stop stop-color="#41D1DA"/>
<stop offset="1" stop-color="#42FFFF"/>
</linearGradient>
<linearGradient id="paint30_linear_2339_2" x1="68.7175" y1="19.857" x2="37.012" y2="74.0926" gradientUnits="userSpaceOnUse">
<stop stop-color="#41D1DA"/>
<stop offset="1" stop-color="#038BE1"/>
</linearGradient>
<linearGradient id="paint31_linear_2339_2" x1="136.024" y1="51.7353" x2="27.6015" y2="29.2021" gradientUnits="userSpaceOnUse">
<stop stop-color="#41D1DA"/>
<stop offset="1" stop-color="#038BE1"/>
</linearGradient>
<linearGradient id="paint32_linear_2339_2" x1="33.6797" y1="16.6067" x2="68.3349" y2="16.6067" gradientUnits="userSpaceOnUse">
<stop stop-color="#41D1DA"/>
<stop offset="1" stop-color="#42FFFF"/>
</linearGradient>
<linearGradient id="paint33_linear_2339_2" x1="35.0378" y1="81.3257" x2="3.33546" y2="135.561" gradientUnits="userSpaceOnUse">
<stop stop-color="#41D1DA"/>
<stop offset="1" stop-color="#038BE1"/>
</linearGradient>
<linearGradient id="paint34_linear_2339_2" x1="102.349" y1="113.204" x2="-6.0731" y2="90.6706" gradientUnits="userSpaceOnUse">
<stop stop-color="#41D1DA"/>
<stop offset="1" stop-color="#038BE1"/>
</linearGradient>
<linearGradient id="paint35_linear_2339_2" x1="0.00195312" y1="78.0751" x2="34.6572" y2="78.0751" gradientUnits="userSpaceOnUse">
<stop stop-color="#41D1DA"/>
<stop offset="1" stop-color="#42FFFF"/>
</linearGradient>
</defs>
</svg>
