<svg width="80" height="80" viewBox="0 0 80 80" fill="none" xmlns="http://www.w3.org/2000/svg">
<path d="M18.6602 33.6001C23.1084 33.6001 26.7278 29.9819 26.7278 25.5337C26.7278 21.0854 23.1084 17.4648 18.6602 17.4648C14.2119 17.4648 10.5938 21.0854 10.5938 25.5337C10.5938 29.9819 14.2119 33.6001 18.6602 33.6001Z" fill="white"/>
<path d="M25.3442 41.9067C25.918 40.6519 25.3638 39.1675 24.1077 38.5938C22.4548 37.8394 20.575 37.4414 18.6707 37.4414C15.0183 37.4414 11.5845 38.8623 9.00269 41.4453C6.4209 44.0259 5 47.4487 5 51.084C5 52.4658 6.11938 53.584 7.5 53.584C8.88062 53.584 10 52.4658 10 51.084C10 50.4842 10.0677 49.8955 10.1874 49.3207C10.5264 47.6918 11.3278 46.1896 12.5378 44.9805C14.176 43.3423 16.3538 42.4414 18.6707 42.4414C19.2607 42.4414 19.8428 42.5024 20.4028 42.6181C20.9747 42.7362 21.5236 42.9114 22.0325 43.1445C23.2812 43.7036 24.7681 43.1641 25.3442 41.9067Z" fill="white"/>
<path d="M61.3391 33.6001C65.7874 33.6001 69.4055 29.9819 69.4055 25.5337C69.4055 21.0854 65.7874 17.4648 61.3391 17.4648C56.8909 17.4648 53.2715 21.0854 53.2715 25.5337C53.2715 29.9819 56.8909 33.6001 61.3391 33.6001Z" fill="white"/>
<path d="M70.9977 41.4453C68.4159 38.8623 64.9821 37.4414 61.3297 37.4414C59.4254 37.4414 57.5455 37.8394 55.8927 38.5938C54.6366 39.1675 54.0824 40.6519 54.6561 41.9067C55.2299 43.1641 56.7167 43.7061 57.9679 43.1445C58.4768 42.9114 59.0256 42.7362 59.5975 42.6181C60.1575 42.5024 60.7397 42.4414 61.3297 42.4414C63.6466 42.4414 65.8243 43.3423 67.4625 44.9805C68.6725 46.1896 69.4739 47.6918 69.813 49.3207C69.9326 49.8955 70.0004 50.4842 70.0004 51.084C70.0004 52.4658 71.1198 53.584 72.5004 53.584C73.881 53.584 75.0004 52.4658 75.0004 51.084C75.0004 47.4487 73.5795 44.0259 70.9977 41.4453Z" fill="white"/>
<path d="M40.0014 38.163C45.2467 38.163 49.4989 33.9108 49.4989 28.6655C49.4989 23.4201 45.2467 19.168 40.0014 19.168C34.7561 19.168 30.5039 23.4201 30.5039 28.6655C30.5039 33.9108 34.7561 38.163 40.0014 38.163Z" fill="white"/>
<path d="M40.0005 43.5078C30.8879 43.5078 23.4746 50.9224 23.4746 60.0361C23.4746 61.418 24.594 62.5361 25.9746 62.5361C27.3548 62.5361 28.4737 61.416 28.4743 60.0349C28.4743 60.0354 28.4743 60.0345 28.4743 60.0349C28.4743 53.6799 33.6455 48.5078 40.0005 48.5078C46.3555 48.5078 51.5264 53.6787 51.5264 60.0337C51.5264 60.0332 51.5264 60.0341 51.5264 60.0337C51.527 61.4148 52.6462 62.5337 54.0264 62.5337C55.407 62.5337 56.5264 61.4155 56.5264 60.0337C56.5264 50.9224 49.113 43.5078 40.0005 43.5078Z" fill="white"/>
</svg>
