<svg width="80" height="80" viewBox="0 0 80 80" fill="none" xmlns="http://www.w3.org/2000/svg">
<g clip-path="url(#clip0_2348_72)">
<path d="M13.334 43.3333C19.2776 44.0396 24.8108 46.725 29.0432 50.9574C33.2755 55.1898 35.961 60.7229 36.6673 66.6666C39.6137 64.9679 42.0783 62.546 43.8281 59.6297C45.5779 56.7134 46.5551 53.399 46.6673 49.9999C52.2644 48.031 57.1519 44.4466 60.7118 39.7C64.2718 34.9533 66.3443 29.2577 66.6673 23.3333C66.6673 20.6811 65.6137 18.1375 63.7384 16.2622C61.863 14.3868 59.3195 13.3333 56.6673 13.3333C50.7429 13.6563 45.0472 15.7288 40.3006 19.2888C35.554 22.8487 31.9696 27.7362 30.0007 33.3333C26.6015 33.4455 23.2872 34.4227 20.3709 36.1725C17.4546 37.9223 15.0326 40.3869 13.334 43.3333Z" stroke="white" stroke-width="6.66667" stroke-linecap="round" stroke-linejoin="round"/>
<path d="M23.3317 46.6667C19.8624 48.6253 17.0572 51.5754 15.2755 55.1387C13.4939 58.702 12.817 62.7162 13.3317 66.6667C17.2822 67.1814 21.2964 66.5046 24.8598 64.7229C28.4231 62.9412 31.3731 60.136 33.3317 56.6667" stroke="white" stroke-width="6.66667" stroke-linecap="round" stroke-linejoin="round"/>
<path d="M46.666 30.0001C46.666 30.8841 47.0172 31.732 47.6423 32.3571C48.2674 32.9822 49.1153 33.3334 49.9993 33.3334C50.8834 33.3334 51.7312 32.9822 52.3564 32.3571C52.9815 31.732 53.3327 30.8841 53.3327 30.0001C53.3327 29.116 52.9815 28.2682 52.3564 27.6431C51.7312 27.0179 50.8834 26.6667 49.9993 26.6667C49.1153 26.6667 48.2674 27.0179 47.6423 27.6431C47.0172 28.2682 46.666 29.116 46.666 30.0001Z" stroke="white" stroke-width="6.66667" stroke-linecap="round" stroke-linejoin="round"/>
</g>
<defs>
<clipPath id="clip0_2348_72">
<rect width="80" height="80" fill="white"/>
</clipPath>
</defs>
</svg>
