<svg width="158" height="32" viewBox="0 0 158 32" fill="none" xmlns="http://www.w3.org/2000/svg">
<g clip-path="url(#clip0_2323_2542)">
<path d="M28.427 16.0053C28.427 12.217 25.3373 9.12842 21.5501 9.12842C17.7628 9.12842 14.6699 12.2181 14.6699 16.0053C14.6699 19.7926 17.7617 22.8823 21.5501 22.8823C25.3384 22.8823 28.427 19.7926 28.427 16.0053Z" fill="white"/>
<path d="M0.141034 20.8121L19.5183 12.8019L21.5574 19.6702L0.208644 21.207C-0.0253087 21.2167 -0.0832603 20.8818 0.142107 20.811L0.141034 20.8121Z" fill="white"/>
<path d="M42.4537 11.2866L23.0625 19.2399L21.0234 12.2643L42.3861 10.8906C42.6201 10.8809 42.678 11.2158 42.4526 11.2866H42.4537Z" fill="white"/>
<path d="M30.3359 22.3285C28.3709 25.0565 25.1675 26.8316 21.5498 26.8316C16.0777 26.8316 11.5564 22.775 10.8266 17.5035C10.8213 17.5905 10.8159 17.6763 10.8116 17.7632C9.50018 9.88611 13.0696 3.20558 19.925 0C11.8021 0.814542 5.46289 7.67107 5.46289 16.0054C5.46289 23.67 10.8213 30.0812 17.9976 31.6974C23.1006 31.3883 27.8011 27.7878 30.3359 22.3285Z" fill="white"/>
<path d="M25.1967 0.333715C20.0937 0.612741 15.3739 4.1832 12.8047 9.62314C14.774 6.92839 17.957 5.17804 21.5511 5.17804C26.9996 5.17804 31.5069 9.20674 32.2625 14.4471C32.2678 14.3548 32.2732 14.2636 32.2775 14.1702C33.6415 22.043 30.1129 28.7504 23.2725 31.9989C31.346 31.1393 37.638 24.3085 37.638 16.0042C37.638 8.37503 32.3247 1.98533 25.1977 0.332642L25.1967 0.333715Z" fill="white"/>
</g>
<path d="M68.4124 17.4687C68.4124 18.162 68.3188 18.8171 68.1316 19.4341C67.9514 20.0441 67.6914 20.5987 67.3517 21.0979C67.0189 21.597 66.6134 22.0338 66.135 22.4081C65.6636 22.7825 65.1368 23.0771 64.5544 23.292L67.7157 25.7981H63.7953L61.1956 23.708H58.5336C57.6393 23.708 56.8108 23.5555 56.0483 23.2504C55.2857 22.9385 54.6271 22.5052 54.0725 21.9506C53.5179 21.396 53.0811 20.7374 52.7622 19.9748C52.4503 19.2122 52.2943 18.3769 52.2943 17.4687V14.6195C52.2943 13.7182 52.4503 12.8863 52.7622 12.1238C53.0811 11.3542 53.5179 10.6957 54.0725 10.148C54.6271 9.59339 55.2857 9.16011 56.0483 8.84814C56.8108 8.53618 57.6393 8.3802 58.5336 8.3802H62.1939C63.0882 8.3802 63.9132 8.53618 64.6688 8.84814C65.4314 9.16011 66.09 9.59339 66.6446 10.148C67.1992 10.6957 67.6325 11.3542 67.9444 12.1238C68.2564 12.8863 68.4124 13.7182 68.4124 14.6195V17.4687ZM65.7087 14.6195C65.7087 14.0857 65.622 13.6038 65.4487 13.174C65.2824 12.7373 65.0432 12.3664 64.7312 12.0614C64.4262 11.7494 64.0553 11.5102 63.6185 11.3438C63.1887 11.1705 62.7139 11.0839 62.1939 11.0839H58.5336C58.0067 11.0839 57.5249 11.1705 57.0881 11.3438C56.6583 11.5102 56.2874 11.7494 55.9755 12.0614C55.6635 12.3664 55.4209 12.7373 55.2475 13.174C55.0812 13.6038 54.998 14.0857 54.998 14.6195V17.4687C54.998 18.0025 55.0812 18.4878 55.2475 18.9245C55.4209 19.3544 55.6635 19.7252 55.9755 20.0372C56.2874 20.3422 56.6583 20.5814 57.0881 20.7547C57.5249 20.9211 58.0067 21.0043 58.5336 21.0043H62.1731C62.7 21.0043 63.1783 20.9211 63.6082 20.7547C64.0449 20.5814 64.4193 20.3422 64.7312 20.0372C65.0432 19.7252 65.2824 19.3544 65.4487 18.9245C65.622 18.4878 65.7087 18.0025 65.7087 17.4687V14.6195ZM85.6951 22.1378C85.6951 22.3319 85.6605 22.5121 85.5911 22.6785C85.5218 22.8449 85.4248 22.9905 85.3 23.1152C85.1752 23.2331 85.0296 23.3267 84.8632 23.396C84.6968 23.4653 84.5201 23.5 84.3329 23.5H78.2392C77.6638 23.5 77.0815 23.4376 76.4922 23.3128C75.903 23.188 75.331 22.9974 74.7764 22.7409C74.2288 22.4775 73.7123 22.1447 73.227 21.7426C72.7417 21.3405 72.3154 20.8656 71.948 20.318C71.5875 19.7634 71.3032 19.1325 71.0953 18.4254C70.8873 17.7114 70.7833 16.9176 70.7833 16.0441V8.58817H73.487V16.0441C73.487 16.8067 73.591 17.4514 73.7989 17.9783C74.0138 18.5051 74.2842 18.9453 74.61 19.2989C74.9359 19.6525 75.2929 19.9298 75.6811 20.1308C76.0693 20.3318 76.4368 20.4809 76.7834 20.5779C77.1369 20.675 77.4454 20.7374 77.7089 20.7651C77.9792 20.7859 78.156 20.7963 78.2392 20.7963H82.9914V8.58817H85.6951V22.1378ZM103.477 23.5H100.773V19.8396H91.2689V23.5H88.5652V16.0441C88.5652 14.9557 88.7524 13.9539 89.1267 13.0388C89.5011 12.1238 90.021 11.3369 90.6865 10.6783C91.352 10.0197 92.1389 9.50673 93.047 9.13931C93.9552 8.77189 94.9466 8.58817 96.0211 8.58817H102.115C102.302 8.58817 102.479 8.62284 102.645 8.69216C102.811 8.76149 102.957 8.85854 103.082 8.98333C103.207 9.10811 103.304 9.2537 103.373 9.42008C103.442 9.58646 103.477 9.76324 103.477 9.95041V23.5ZM91.2689 17.136H100.773V11.2919H96.0211C95.9379 11.2919 95.7611 11.3057 95.4908 11.3334C95.2273 11.3542 94.9188 11.4132 94.5653 11.5102C94.2186 11.6073 93.8512 11.7563 93.463 11.9574C93.0748 12.1584 92.7177 12.4357 92.3919 12.7893C92.0661 13.1428 91.7957 13.5865 91.5808 14.1203C91.3728 14.6472 91.2689 15.2884 91.2689 16.0441V17.136ZM120.957 19.1117C120.957 19.6455 120.888 20.1273 120.749 20.5572C120.618 20.98 120.441 21.3544 120.219 21.6802C119.997 22.006 119.737 22.2833 119.439 22.5121C119.141 22.7409 118.833 22.9281 118.514 23.0737C118.195 23.2192 117.869 23.3267 117.536 23.396C117.21 23.4653 116.902 23.5 116.611 23.5H106.181V20.7963H116.611C117.131 20.7963 117.533 20.6438 117.817 20.3388C118.108 20.0337 118.254 19.6247 118.254 19.1117C118.254 18.8622 118.216 18.6334 118.139 18.4254C118.063 18.2174 117.952 18.0372 117.806 17.8847C117.668 17.7322 117.495 17.6143 117.287 17.5311C117.086 17.4479 116.86 17.4063 116.611 17.4063H110.392C109.955 17.4063 109.484 17.3301 108.978 17.1776C108.472 17.0181 108 16.7651 107.564 16.4184C107.134 16.0718 106.773 15.6177 106.482 15.0562C106.198 14.4947 106.056 13.8084 106.056 12.9973C106.056 12.1861 106.198 11.5033 106.482 10.9487C106.773 10.3872 107.134 9.93308 107.564 9.58646C108 9.2329 108.472 8.97986 108.978 8.82735C109.484 8.6679 109.955 8.58817 110.392 8.58817H119.595V11.2919H110.392C109.879 11.2919 109.477 11.4478 109.186 11.7598C108.902 12.0718 108.76 12.4842 108.76 12.9973C108.76 13.5172 108.902 13.9297 109.186 14.2347C109.477 14.5328 109.879 14.6818 110.392 14.6818H116.611H116.631C116.923 14.6888 117.231 14.7304 117.557 14.8066C117.883 14.876 118.205 14.9869 118.524 15.1394C118.85 15.2919 119.158 15.486 119.45 15.7217C119.741 15.9505 119.997 16.2278 120.219 16.5536C120.448 16.8795 120.628 17.2538 120.76 17.6767C120.891 18.0996 120.957 18.5779 120.957 19.1117ZM137.835 23.5H135.131V19.8396H125.626V23.5H122.923V16.0441C122.923 14.9557 123.11 13.9539 123.484 13.0388C123.859 12.1238 124.379 11.3369 125.044 10.6783C125.71 10.0197 126.496 9.50673 127.405 9.13931C128.313 8.77189 129.304 8.58817 130.379 8.58817H136.472C136.659 8.58817 136.836 8.62284 137.003 8.69216C137.169 8.76149 137.315 8.85854 137.439 8.98333C137.564 9.10811 137.661 9.2537 137.731 9.42008C137.8 9.58646 137.835 9.76324 137.835 9.95041V23.5ZM125.626 17.136H135.131V11.2919H130.379C130.295 11.2919 130.119 11.3057 129.848 11.3334C129.585 11.3542 129.276 11.4132 128.923 11.5102C128.576 11.6073 128.209 11.7563 127.821 11.9574C127.432 12.1584 127.075 12.4357 126.749 12.7893C126.424 13.1428 126.153 13.5865 125.938 14.1203C125.73 14.6472 125.626 15.2884 125.626 16.0441V17.136ZM155.887 13.6004C155.887 14.2174 155.811 14.7685 155.658 15.2538C155.505 15.7391 155.298 16.1689 155.034 16.5432C154.778 16.9107 154.479 17.2261 154.14 17.4895C153.8 17.753 153.443 17.9713 153.069 18.1446C152.701 18.311 152.327 18.4323 151.946 18.5086C151.571 18.5849 151.218 18.623 150.885 18.623L156.531 23.5H152.351L146.715 18.623H144.77V15.9193H150.885C151.225 15.8916 151.533 15.8222 151.81 15.7113C152.095 15.5935 152.337 15.4375 152.538 15.2434C152.746 15.0493 152.906 14.817 153.017 14.5467C153.128 14.2694 153.183 13.9539 153.183 13.6004V11.895C153.183 11.7425 153.162 11.6281 153.121 11.5518C153.086 11.4686 153.038 11.4097 152.975 11.375C152.92 11.3334 152.857 11.3092 152.788 11.3023C152.726 11.2953 152.667 11.2919 152.611 11.2919H143.689V23.5H140.985V9.95041C140.985 9.76324 141.02 9.58646 141.089 9.42008C141.159 9.2537 141.252 9.10811 141.37 8.98333C141.495 8.85854 141.64 8.76149 141.807 8.69216C141.973 8.62284 142.153 8.58817 142.348 8.58817H152.611C153.214 8.58817 153.724 8.69909 154.14 8.92094C154.556 9.13584 154.892 9.40968 155.148 9.74244C155.412 10.0683 155.599 10.4218 155.71 10.8031C155.828 11.1844 155.887 11.5414 155.887 11.8742V13.6004Z" fill="white"/>
<defs>
<clipPath id="clip0_2323_2542">
<rect width="42.5933" height="32" fill="white"/>
</clipPath>
</defs>
</svg>
