<svg width="48" height="48" viewBox="0 0 48 48" fill="none" xmlns="http://www.w3.org/2000/svg">
<rect width="48" height="48" rx="8" fill="black"/>
<path fill-rule="evenodd" clip-rule="evenodd" d="M33.7611 31.1136C31.6391 34.0597 28.1795 35.9766 24.2726 35.9766C19.4969 35.9766 15.3918 33.1156 13.5764 29.0132L18.2859 28.6742C19.6407 30.5139 21.8218 31.7116 24.2729 31.7116C27.9716 31.7116 31.0526 28.9844 31.6098 25.439L36.0452 23.6198C36.9246 31.549 33.1358 38.2313 26.133 41.5569C34.8519 40.6286 41.647 33.2517 41.647 24.2836C41.647 23.3078 41.5665 22.3507 41.4118 21.4187L46.8477 19.1892H46.8465C47.0899 19.1127 47.0273 18.7511 46.7747 18.7615L40.873 19.141C39.0608 13.2871 34.2365 8.75609 28.2122 7.3591L28.211 7.36026C22.7001 7.66159 17.6029 11.5175 14.8284 17.3923C16.9551 14.4822 20.3926 12.5919 24.274 12.5919C29.0335 12.5919 33.1281 15.4385 34.9511 19.5218L30.2065 19.8269C28.8491 18.0259 26.6928 16.8582 24.2729 16.8582C20.6423 16.8582 17.6025 19.4874 16.9655 22.9389L12.4895 24.7892C11.6953 16.8927 15.5224 10.2711 22.5179 7C13.7457 7.87966 6.89962 15.2843 6.89962 24.2849C6.89962 25.2128 6.97233 26.1236 7.11236 27.012L1.15231 29.4758L1.15347 29.4746C0.910083 29.5511 0.972668 29.9127 1.22532 29.9023L7.67639 29.4379C9.50061 35.3206 14.3663 39.8644 20.4364 41.2314C25.9473 40.8976 31.0236 37.0093 33.7611 31.1136Z" fill="white"/>
</svg>
